<?xml version="1.0" encoding="us-ascii" standalone="no"?><svg xmlns="http://www.w3.org/2000/svg" xmlns:xlink="http://www.w3.org/1999/xlink" contentStyleType="text/css" height="594px" preserveAspectRatio="none" style="width:5066px;height:594px;background:#FFFFFF;" version="1.1" viewBox="0 0 5066 594" width="5066px" zoomAndPan="magnify"><defs/><g><!--cluster Crypto Wallet Management System--><g id="cluster_Crypto Wallet Management System"><rect fill="none" height="233" rx="2.5" ry="2.5" style="stroke:#181818;stroke-width:1.0;" width="3325" x="1735.5" y="118"/><text fill="#000000" font-family="sans-serif" font-size="14" font-weight="bold" lengthAdjust="spacing" textLength="286" x="3255" y="132.9951">Crypto Wallet Management System</text></g><!--cluster User Authentication--><g id="cluster_User Authentication"><rect fill="none" height="99" rx="2.5" ry="2.5" style="stroke:#181818;stroke-width:1.0;" width="424" x="4612.5" y="204"/><text fill="#000000" font-family="sans-serif" font-size="14" font-weight="bold" lengthAdjust="spacing" textLength="164" x="4742.5" y="218.9951">User Authentication</text></g><!--cluster Crypto Information Lookup--><g id="cluster_Crypto Information Lookup"><rect fill="none" height="99" rx="2.5" ry="2.5" style="stroke:#181818;stroke-width:1.0;" width="463" x="1759.5" y="204"/><text fill="#000000" font-family="sans-serif" font-size="14" font-weight="bold" lengthAdjust="spacing" textLength="219" x="1881.5" y="218.9951">Crypto Information Lookup</text></g><!--cluster Wallet Management--><g id="cluster_Wallet Management"><rect fill="none" height="166" rx="2.5" ry="2.5" style="stroke:#181818;stroke-width:1.0;" width="1868" x="2246.5" y="161"/><text fill="#000000" font-family="sans-serif" font-size="14" font-weight="bold" lengthAdjust="spacing" textLength="162" x="3099.5" y="175.9951">Wallet Management</text></g><!--cluster Create Wallet--><g id="cluster_Create Wallet"><rect fill="none" height="99" rx="2.5" ry="2.5" style="stroke:#181818;stroke-width:1.0;" width="669" x="2493.5" y="204"/><text fill="#000000" font-family="sans-serif" font-size="14" font-weight="bold" lengthAdjust="spacing" textLength="110" x="2773" y="218.9951">Create Wallet</text></g><!--cluster Modify Wallet--><g id="cluster_Modify Wallet"><rect fill="none" height="99" rx="2.5" ry="2.5" style="stroke:#181818;stroke-width:1.0;" width="455" x="3186.5" y="204"/><text fill="#000000" font-family="sans-serif" font-size="14" font-weight="bold" lengthAdjust="spacing" textLength="112" x="3358" y="218.9951">Modify Wallet</text></g><!--cluster Delete Wallet--><g id="cluster_Delete Wallet"><rect fill="none" height="99" rx="2.5" ry="2.5" style="stroke:#181818;stroke-width:1.0;" width="425" x="3665.5" y="204"/><text fill="#000000" font-family="sans-serif" font-size="14" font-weight="bold" lengthAdjust="spacing" textLength="108" x="3824" y="218.9951">Delete Wallet</text></g><!--cluster Transaction Tracking--><g id="cluster_Transaction Tracking"><rect fill="none" height="99" rx="2.5" ry="2.5" style="stroke:#181818;stroke-width:1.0;" width="242" x="4138.5" y="204"/><text fill="#000000" font-family="sans-serif" font-size="14" font-weight="bold" lengthAdjust="spacing" textLength="175" x="4172" y="218.9951">Transaction Tracking</text></g><!--cluster Data Visualization--><g id="cluster_Data Visualization"><rect fill="none" height="99" rx="2.5" ry="2.5" style="stroke:#181818;stroke-width:1.0;" width="184" x="4404.5" y="204"/><text fill="#000000" font-family="sans-serif" font-size="14" font-weight="bold" lengthAdjust="spacing" textLength="151" x="4421" y="218.9951">Data Visualization</text></g><!--class Validate Credentials--><g id="elem_Validate Credentials"><rect fill="#F1F1F1" height="48" id="Validate Credentials" rx="2.5" ry="2.5" style="stroke:#181818;stroke-width:0.5;" width="177" x="4629" y="239"/><ellipse cx="4644" cy="255" fill="#ADD1B2" rx="11" ry="11" style="stroke:#181818;stroke-width:1.0;"/><path d="M4646.3438,250.6719 C4645.4063,250.2344 4644.8125,250.0938 4643.9375,250.0938 C4641.3125,250.0938 4639.3125,252.1719 4639.3125,254.8906 L4639.3125,256.0156 C4639.3125,258.5938 4641.4219,260.4844 4644.3125,260.4844 C4645.5313,260.4844 4646.6875,260.1875 4647.4375,259.6406 C4648.0156,259.2344 4648.3438,258.7813 4648.3438,258.3906 C4648.3438,257.9375 4647.9531,257.5469 4647.4844,257.5469 C4647.2656,257.5469 4647.0625,257.625 4646.875,257.8125 C4646.4219,258.2969 4646.4219,258.2969 4646.2344,258.3906 C4645.8125,258.6563 4645.125,258.7813 4644.3594,258.7813 C4642.3125,258.7813 4641.0156,257.6875 4641.0156,255.9844 L4641.0156,254.8906 C4641.0156,253.1094 4642.2656,251.7969 4644,251.7969 C4644.5781,251.7969 4645.1875,251.9531 4645.6563,252.2031 C4646.1406,252.4844 4646.3125,252.7031 4646.4063,253.1094 C4646.4688,253.5156 4646.5,253.6406 4646.6406,253.7656 C4646.7813,253.9063 4647.0156,254.0156 4647.2344,254.0156 C4647.5,254.0156 4647.7656,253.875 4647.9375,253.6563 C4648.0469,253.5 4648.0781,253.3125 4648.0781,252.8906 L4648.0781,251.4688 C4648.0781,251.0313 4648.0625,250.9063 4647.9688,250.75 C4647.8125,250.4844 4647.5313,250.3438 4647.2344,250.3438 C4646.9375,250.3438 4646.7344,250.4375 4646.5156,250.75 L4646.3438,250.6719 Z " fill="#000000"/><text fill="#000000" font-family="sans-serif" font-size="14" lengthAdjust="spacing" textLength="145" x="4658" y="259.8467">Validate Credentials</text><line style="stroke:#181818;stroke-width:0.5;" x1="4630" x2="4805" y1="271" y2="271"/><line style="stroke:#181818;stroke-width:0.5;" x1="4630" x2="4805" y1="279" y2="279"/></g><!--class 2FA Implementation--><g id="elem_2FA Implementation"><rect fill="#F1F1F1" height="48" id="2FA Implementation" rx="2.5" ry="2.5" style="stroke:#181818;stroke-width:0.5;" width="179" x="4841" y="239"/><ellipse cx="4856" cy="255" fill="#ADD1B2" rx="11" ry="11" style="stroke:#181818;stroke-width:1.0;"/><path d="M4858.3438,250.6719 C4857.4063,250.2344 4856.8125,250.0938 4855.9375,250.0938 C4853.3125,250.0938 4851.3125,252.1719 4851.3125,254.8906 L4851.3125,256.0156 C4851.3125,258.5938 4853.4219,260.4844 4856.3125,260.4844 C4857.5313,260.4844 4858.6875,260.1875 4859.4375,259.6406 C4860.0156,259.2344 4860.3438,258.7813 4860.3438,258.3906 C4860.3438,257.9375 4859.9531,257.5469 4859.4844,257.5469 C4859.2656,257.5469 4859.0625,257.625 4858.875,257.8125 C4858.4219,258.2969 4858.4219,258.2969 4858.2344,258.3906 C4857.8125,258.6563 4857.125,258.7813 4856.3594,258.7813 C4854.3125,258.7813 4853.0156,257.6875 4853.0156,255.9844 L4853.0156,254.8906 C4853.0156,253.1094 4854.2656,251.7969 4856,251.7969 C4856.5781,251.7969 4857.1875,251.9531 4857.6563,252.2031 C4858.1406,252.4844 4858.3125,252.7031 4858.4063,253.1094 C4858.4688,253.5156 4858.5,253.6406 4858.6406,253.7656 C4858.7813,253.9063 4859.0156,254.0156 4859.2344,254.0156 C4859.5,254.0156 4859.7656,253.875 4859.9375,253.6563 C4860.0469,253.5 4860.0781,253.3125 4860.0781,252.8906 L4860.0781,251.4688 C4860.0781,251.0313 4860.0625,250.9063 4859.9688,250.75 C4859.8125,250.4844 4859.5313,250.3438 4859.2344,250.3438 C4858.9375,250.3438 4858.7344,250.4375 4858.5156,250.75 L4858.3438,250.6719 Z " fill="#000000"/><text fill="#000000" font-family="sans-serif" font-size="14" lengthAdjust="spacing" textLength="147" x="4870" y="259.8467">2FA Implementation</text><line style="stroke:#181818;stroke-width:0.5;" x1="4842" x2="5019" y1="271" y2="271"/><line style="stroke:#181818;stroke-width:0.5;" x1="4842" x2="5019" y1="279" y2="279"/></g><!--class Query Crypto Data--><g id="elem_Query Crypto Data"><rect fill="#F1F1F1" height="48" id="Query Crypto Data" rx="2.5" ry="2.5" style="stroke:#181818;stroke-width:0.5;" width="166" x="1775.5" y="239"/><ellipse cx="1790.5" cy="255" fill="#ADD1B2" rx="11" ry="11" style="stroke:#181818;stroke-width:1.0;"/><path d="M1792.8438,250.6719 C1791.9063,250.2344 1791.3125,250.0938 1790.4375,250.0938 C1787.8125,250.0938 1785.8125,252.1719 1785.8125,254.8906 L1785.8125,256.0156 C1785.8125,258.5938 1787.9219,260.4844 1790.8125,260.4844 C1792.0313,260.4844 1793.1875,260.1875 1793.9375,259.6406 C1794.5156,259.2344 1794.8438,258.7813 1794.8438,258.3906 C1794.8438,257.9375 1794.4531,257.5469 1793.9844,257.5469 C1793.7656,257.5469 1793.5625,257.625 1793.375,257.8125 C1792.9219,258.2969 1792.9219,258.2969 1792.7344,258.3906 C1792.3125,258.6563 1791.625,258.7813 1790.8594,258.7813 C1788.8125,258.7813 1787.5156,257.6875 1787.5156,255.9844 L1787.5156,254.8906 C1787.5156,253.1094 1788.7656,251.7969 1790.5,251.7969 C1791.0781,251.7969 1791.6875,251.9531 1792.1563,252.2031 C1792.6406,252.4844 1792.8125,252.7031 1792.9063,253.1094 C1792.9688,253.5156 1793,253.6406 1793.1406,253.7656 C1793.2813,253.9063 1793.5156,254.0156 1793.7344,254.0156 C1794,254.0156 1794.2656,253.875 1794.4375,253.6563 C1794.5469,253.5 1794.5781,253.3125 1794.5781,252.8906 L1794.5781,251.4688 C1794.5781,251.0313 1794.5625,250.9063 1794.4688,250.75 C1794.3125,250.4844 1794.0313,250.3438 1793.7344,250.3438 C1793.4375,250.3438 1793.2344,250.4375 1793.0156,250.75 L1792.8438,250.6719 Z " fill="#000000"/><text fill="#000000" font-family="sans-serif" font-size="14" lengthAdjust="spacing" textLength="134" x="1804.5" y="259.8467">Query Crypto Data</text><line style="stroke:#181818;stroke-width:0.5;" x1="1776.5" x2="1940.5" y1="271" y2="271"/><line style="stroke:#181818;stroke-width:0.5;" x1="1776.5" x2="1940.5" y1="279" y2="279"/></g><!--class Fetch Data from Exchanges--><g id="elem_Fetch Data from Exchanges"><rect fill="#F1F1F1" height="48" id="Fetch Data from Exchanges" rx="2.5" ry="2.5" style="stroke:#181818;stroke-width:0.5;" width="230" x="1976.5" y="239"/><ellipse cx="1991.5" cy="255" fill="#ADD1B2" rx="11" ry="11" style="stroke:#181818;stroke-width:1.0;"/><path d="M1993.8438,250.6719 C1992.9063,250.2344 1992.3125,250.0938 1991.4375,250.0938 C1988.8125,250.0938 1986.8125,252.1719 1986.8125,254.8906 L1986.8125,256.0156 C1986.8125,258.5938 1988.9219,260.4844 1991.8125,260.4844 C1993.0313,260.4844 1994.1875,260.1875 1994.9375,259.6406 C1995.5156,259.2344 1995.8438,258.7813 1995.8438,258.3906 C1995.8438,257.9375 1995.4531,257.5469 1994.9844,257.5469 C1994.7656,257.5469 1994.5625,257.625 1994.375,257.8125 C1993.9219,258.2969 1993.9219,258.2969 1993.7344,258.3906 C1993.3125,258.6563 1992.625,258.7813 1991.8594,258.7813 C1989.8125,258.7813 1988.5156,257.6875 1988.5156,255.9844 L1988.5156,254.8906 C1988.5156,253.1094 1989.7656,251.7969 1991.5,251.7969 C1992.0781,251.7969 1992.6875,251.9531 1993.1563,252.2031 C1993.6406,252.4844 1993.8125,252.7031 1993.9063,253.1094 C1993.9688,253.5156 1994,253.6406 1994.1406,253.7656 C1994.2813,253.9063 1994.5156,254.0156 1994.7344,254.0156 C1995,254.0156 1995.2656,253.875 1995.4375,253.6563 C1995.5469,253.5 1995.5781,253.3125 1995.5781,252.8906 L1995.5781,251.4688 C1995.5781,251.0313 1995.5625,250.9063 1995.4688,250.75 C1995.3125,250.4844 1995.0313,250.3438 1994.7344,250.3438 C1994.4375,250.3438 1994.2344,250.4375 1994.0156,250.75 L1993.8438,250.6719 Z " fill="#000000"/><text fill="#000000" font-family="sans-serif" font-size="14" lengthAdjust="spacing" textLength="198" x="2005.5" y="259.8467">Fetch Data from Exchanges</text><line style="stroke:#181818;stroke-width:0.5;" x1="1977.5" x2="2205.5" y1="271" y2="271"/><line style="stroke:#181818;stroke-width:0.5;" x1="1977.5" x2="2205.5" y1="279" y2="279"/></g><!--class User Wallet Management--><g id="elem_User Wallet Management"><rect fill="#F1F1F1" height="48" id="User Wallet Management" rx="2.5" ry="2.5" style="stroke:#181818;stroke-width:0.5;" width="211" x="2263" y="239"/><ellipse cx="2278" cy="255" fill="#ADD1B2" rx="11" ry="11" style="stroke:#181818;stroke-width:1.0;"/><path d="M2280.3438,250.6719 C2279.4063,250.2344 2278.8125,250.0938 2277.9375,250.0938 C2275.3125,250.0938 2273.3125,252.1719 2273.3125,254.8906 L2273.3125,256.0156 C2273.3125,258.5938 2275.4219,260.4844 2278.3125,260.4844 C2279.5313,260.4844 2280.6875,260.1875 2281.4375,259.6406 C2282.0156,259.2344 2282.3438,258.7813 2282.3438,258.3906 C2282.3438,257.9375 2281.9531,257.5469 2281.4844,257.5469 C2281.2656,257.5469 2281.0625,257.625 2280.875,257.8125 C2280.4219,258.2969 2280.4219,258.2969 2280.2344,258.3906 C2279.8125,258.6563 2279.125,258.7813 2278.3594,258.7813 C2276.3125,258.7813 2275.0156,257.6875 2275.0156,255.9844 L2275.0156,254.8906 C2275.0156,253.1094 2276.2656,251.7969 2278,251.7969 C2278.5781,251.7969 2279.1875,251.9531 2279.6563,252.2031 C2280.1406,252.4844 2280.3125,252.7031 2280.4063,253.1094 C2280.4688,253.5156 2280.5,253.6406 2280.6406,253.7656 C2280.7813,253.9063 2281.0156,254.0156 2281.2344,254.0156 C2281.5,254.0156 2281.7656,253.875 2281.9375,253.6563 C2282.0469,253.5 2282.0781,253.3125 2282.0781,252.8906 L2282.0781,251.4688 C2282.0781,251.0313 2282.0625,250.9063 2281.9688,250.75 C2281.8125,250.4844 2281.5313,250.3438 2281.2344,250.3438 C2280.9375,250.3438 2280.7344,250.4375 2280.5156,250.75 L2280.3438,250.6719 Z " fill="#000000"/><text fill="#000000" font-family="sans-serif" font-size="14" lengthAdjust="spacing" textLength="179" x="2292" y="259.8467">User Wallet Management</text><line style="stroke:#181818;stroke-width:0.5;" x1="2264" x2="2473" y1="271" y2="271"/><line style="stroke:#181818;stroke-width:0.5;" x1="2264" x2="2473" y1="279" y2="279"/></g><!--class Provide Wallet Details--><g id="elem_Provide Wallet Details"><rect fill="#F1F1F1" height="48" id="Provide Wallet Details" rx="2.5" ry="2.5" style="stroke:#181818;stroke-width:0.5;" width="190" x="2509.5" y="239"/><ellipse cx="2524.5" cy="255" fill="#ADD1B2" rx="11" ry="11" style="stroke:#181818;stroke-width:1.0;"/><path d="M2526.8438,250.6719 C2525.9063,250.2344 2525.3125,250.0938 2524.4375,250.0938 C2521.8125,250.0938 2519.8125,252.1719 2519.8125,254.8906 L2519.8125,256.0156 C2519.8125,258.5938 2521.9219,260.4844 2524.8125,260.4844 C2526.0313,260.4844 2527.1875,260.1875 2527.9375,259.6406 C2528.5156,259.2344 2528.8438,258.7813 2528.8438,258.3906 C2528.8438,257.9375 2528.4531,257.5469 2527.9844,257.5469 C2527.7656,257.5469 2527.5625,257.625 2527.375,257.8125 C2526.9219,258.2969 2526.9219,258.2969 2526.7344,258.3906 C2526.3125,258.6563 2525.625,258.7813 2524.8594,258.7813 C2522.8125,258.7813 2521.5156,257.6875 2521.5156,255.9844 L2521.5156,254.8906 C2521.5156,253.1094 2522.7656,251.7969 2524.5,251.7969 C2525.0781,251.7969 2525.6875,251.9531 2526.1563,252.2031 C2526.6406,252.4844 2526.8125,252.7031 2526.9063,253.1094 C2526.9688,253.5156 2527,253.6406 2527.1406,253.7656 C2527.2813,253.9063 2527.5156,254.0156 2527.7344,254.0156 C2528,254.0156 2528.2656,253.875 2528.4375,253.6563 C2528.5469,253.5 2528.5781,253.3125 2528.5781,252.8906 L2528.5781,251.4688 C2528.5781,251.0313 2528.5625,250.9063 2528.4688,250.75 C2528.3125,250.4844 2528.0313,250.3438 2527.7344,250.3438 C2527.4375,250.3438 2527.2344,250.4375 2527.0156,250.75 L2526.8438,250.6719 Z " fill="#000000"/><text fill="#000000" font-family="sans-serif" font-size="14" lengthAdjust="spacing" textLength="158" x="2538.5" y="259.8467">Provide Wallet Details</text><line style="stroke:#181818;stroke-width:0.5;" x1="2510.5" x2="2698.5" y1="271" y2="271"/><line style="stroke:#181818;stroke-width:0.5;" x1="2510.5" x2="2698.5" y1="279" y2="279"/></g><!--class Generate Wallet Address--><g id="elem_Generate Wallet Address"><rect fill="#F1F1F1" height="48" id="Generate Wallet Address" rx="2.5" ry="2.5" style="stroke:#181818;stroke-width:0.5;" width="211" x="2735" y="239"/><ellipse cx="2750" cy="255" fill="#ADD1B2" rx="11" ry="11" style="stroke:#181818;stroke-width:1.0;"/><path d="M2752.3438,250.6719 C2751.4063,250.2344 2750.8125,250.0938 2749.9375,250.0938 C2747.3125,250.0938 2745.3125,252.1719 2745.3125,254.8906 L2745.3125,256.0156 C2745.3125,258.5938 2747.4219,260.4844 2750.3125,260.4844 C2751.5313,260.4844 2752.6875,260.1875 2753.4375,259.6406 C2754.0156,259.2344 2754.3438,258.7813 2754.3438,258.3906 C2754.3438,257.9375 2753.9531,257.5469 2753.4844,257.5469 C2753.2656,257.5469 2753.0625,257.625 2752.875,257.8125 C2752.4219,258.2969 2752.4219,258.2969 2752.2344,258.3906 C2751.8125,258.6563 2751.125,258.7813 2750.3594,258.7813 C2748.3125,258.7813 2747.0156,257.6875 2747.0156,255.9844 L2747.0156,254.8906 C2747.0156,253.1094 2748.2656,251.7969 2750,251.7969 C2750.5781,251.7969 2751.1875,251.9531 2751.6563,252.2031 C2752.1406,252.4844 2752.3125,252.7031 2752.4063,253.1094 C2752.4688,253.5156 2752.5,253.6406 2752.6406,253.7656 C2752.7813,253.9063 2753.0156,254.0156 2753.2344,254.0156 C2753.5,254.0156 2753.7656,253.875 2753.9375,253.6563 C2754.0469,253.5 2754.0781,253.3125 2754.0781,252.8906 L2754.0781,251.4688 C2754.0781,251.0313 2754.0625,250.9063 2753.9688,250.75 C2753.8125,250.4844 2753.5313,250.3438 2753.2344,250.3438 C2752.9375,250.3438 2752.7344,250.4375 2752.5156,250.75 L2752.3438,250.6719 Z " fill="#000000"/><text fill="#000000" font-family="sans-serif" font-size="14" lengthAdjust="spacing" textLength="179" x="2764" y="259.8467">Generate Wallet Address</text><line style="stroke:#181818;stroke-width:0.5;" x1="2736" x2="2945" y1="271" y2="271"/><line style="stroke:#181818;stroke-width:0.5;" x1="2736" x2="2945" y1="279" y2="279"/></g><!--class Store Private Keys--><g id="elem_Store Private Keys"><rect fill="#F1F1F1" height="48" id="Store Private Keys" rx="2.5" ry="2.5" style="stroke:#181818;stroke-width:0.5;" width="165" x="2981" y="239"/><ellipse cx="2996" cy="255" fill="#ADD1B2" rx="11" ry="11" style="stroke:#181818;stroke-width:1.0;"/><path d="M2998.3438,250.6719 C2997.4063,250.2344 2996.8125,250.0938 2995.9375,250.0938 C2993.3125,250.0938 2991.3125,252.1719 2991.3125,254.8906 L2991.3125,256.0156 C2991.3125,258.5938 2993.4219,260.4844 2996.3125,260.4844 C2997.5313,260.4844 2998.6875,260.1875 2999.4375,259.6406 C3000.0156,259.2344 3000.3438,258.7813 3000.3438,258.3906 C3000.3438,257.9375 2999.9531,257.5469 2999.4844,257.5469 C2999.2656,257.5469 2999.0625,257.625 2998.875,257.8125 C2998.4219,258.2969 2998.4219,258.2969 2998.2344,258.3906 C2997.8125,258.6563 2997.125,258.7813 2996.3594,258.7813 C2994.3125,258.7813 2993.0156,257.6875 2993.0156,255.9844 L2993.0156,254.8906 C2993.0156,253.1094 2994.2656,251.7969 2996,251.7969 C2996.5781,251.7969 2997.1875,251.9531 2997.6563,252.2031 C2998.1406,252.4844 2998.3125,252.7031 2998.4063,253.1094 C2998.4688,253.5156 2998.5,253.6406 2998.6406,253.7656 C2998.7813,253.9063 2999.0156,254.0156 2999.2344,254.0156 C2999.5,254.0156 2999.7656,253.875 2999.9375,253.6563 C3000.0469,253.5 3000.0781,253.3125 3000.0781,252.8906 L3000.0781,251.4688 C3000.0781,251.0313 3000.0625,250.9063 2999.9688,250.75 C2999.8125,250.4844 2999.5313,250.3438 2999.2344,250.3438 C2998.9375,250.3438 2998.7344,250.4375 2998.5156,250.75 L2998.3438,250.6719 Z " fill="#000000"/><text fill="#000000" font-family="sans-serif" font-size="14" lengthAdjust="spacing" textLength="133" x="3010" y="259.8467">Store Private Keys</text><line style="stroke:#181818;stroke-width:0.5;" x1="2982" x2="3145" y1="271" y2="271"/><line style="stroke:#181818;stroke-width:0.5;" x1="2982" x2="3145" y1="279" y2="279"/></g><!--class Select Wallet to Modify--><g id="elem_Select Wallet to Modify"><rect fill="#F1F1F1" height="48" id="Select Wallet to Modify" rx="2.5" ry="2.5" style="stroke:#181818;stroke-width:0.5;" width="200" x="3202.5" y="239"/><ellipse cx="3217.5" cy="255" fill="#ADD1B2" rx="11" ry="11" style="stroke:#181818;stroke-width:1.0;"/><path d="M3219.8438,250.6719 C3218.9063,250.2344 3218.3125,250.0938 3217.4375,250.0938 C3214.8125,250.0938 3212.8125,252.1719 3212.8125,254.8906 L3212.8125,256.0156 C3212.8125,258.5938 3214.9219,260.4844 3217.8125,260.4844 C3219.0313,260.4844 3220.1875,260.1875 3220.9375,259.6406 C3221.5156,259.2344 3221.8438,258.7813 3221.8438,258.3906 C3221.8438,257.9375 3221.4531,257.5469 3220.9844,257.5469 C3220.7656,257.5469 3220.5625,257.625 3220.375,257.8125 C3219.9219,258.2969 3219.9219,258.2969 3219.7344,258.3906 C3219.3125,258.6563 3218.625,258.7813 3217.8594,258.7813 C3215.8125,258.7813 3214.5156,257.6875 3214.5156,255.9844 L3214.5156,254.8906 C3214.5156,253.1094 3215.7656,251.7969 3217.5,251.7969 C3218.0781,251.7969 3218.6875,251.9531 3219.1563,252.2031 C3219.6406,252.4844 3219.8125,252.7031 3219.9063,253.1094 C3219.9688,253.5156 3220,253.6406 3220.1406,253.7656 C3220.2813,253.9063 3220.5156,254.0156 3220.7344,254.0156 C3221,254.0156 3221.2656,253.875 3221.4375,253.6563 C3221.5469,253.5 3221.5781,253.3125 3221.5781,252.8906 L3221.5781,251.4688 C3221.5781,251.0313 3221.5625,250.9063 3221.4688,250.75 C3221.3125,250.4844 3221.0313,250.3438 3220.7344,250.3438 C3220.4375,250.3438 3220.2344,250.4375 3220.0156,250.75 L3219.8438,250.6719 Z " fill="#000000"/><text fill="#000000" font-family="sans-serif" font-size="14" lengthAdjust="spacing" textLength="168" x="3231.5" y="259.8467">Select Wallet to Modify</text><line style="stroke:#181818;stroke-width:0.5;" x1="3203.5" x2="3401.5" y1="271" y2="271"/><line style="stroke:#181818;stroke-width:0.5;" x1="3203.5" x2="3401.5" y1="279" y2="279"/></g><!--class Update Wallet Details--><g id="elem_Update Wallet Details"><rect fill="#F1F1F1" height="48" id="Update Wallet Details" rx="2.5" ry="2.5" style="stroke:#181818;stroke-width:0.5;" width="188" x="3437.5" y="239"/><ellipse cx="3452.5" cy="255" fill="#ADD1B2" rx="11" ry="11" style="stroke:#181818;stroke-width:1.0;"/><path d="M3454.8438,250.6719 C3453.9063,250.2344 3453.3125,250.0938 3452.4375,250.0938 C3449.8125,250.0938 3447.8125,252.1719 3447.8125,254.8906 L3447.8125,256.0156 C3447.8125,258.5938 3449.9219,260.4844 3452.8125,260.4844 C3454.0313,260.4844 3455.1875,260.1875 3455.9375,259.6406 C3456.5156,259.2344 3456.8438,258.7813 3456.8438,258.3906 C3456.8438,257.9375 3456.4531,257.5469 3455.9844,257.5469 C3455.7656,257.5469 3455.5625,257.625 3455.375,257.8125 C3454.9219,258.2969 3454.9219,258.2969 3454.7344,258.3906 C3454.3125,258.6563 3453.625,258.7813 3452.8594,258.7813 C3450.8125,258.7813 3449.5156,257.6875 3449.5156,255.9844 L3449.5156,254.8906 C3449.5156,253.1094 3450.7656,251.7969 3452.5,251.7969 C3453.0781,251.7969 3453.6875,251.9531 3454.1563,252.2031 C3454.6406,252.4844 3454.8125,252.7031 3454.9063,253.1094 C3454.9688,253.5156 3455,253.6406 3455.1406,253.7656 C3455.2813,253.9063 3455.5156,254.0156 3455.7344,254.0156 C3456,254.0156 3456.2656,253.875 3456.4375,253.6563 C3456.5469,253.5 3456.5781,253.3125 3456.5781,252.8906 L3456.5781,251.4688 C3456.5781,251.0313 3456.5625,250.9063 3456.4688,250.75 C3456.3125,250.4844 3456.0313,250.3438 3455.7344,250.3438 C3455.4375,250.3438 3455.2344,250.4375 3455.0156,250.75 L3454.8438,250.6719 Z " fill="#000000"/><text fill="#000000" font-family="sans-serif" font-size="14" lengthAdjust="spacing" textLength="156" x="3466.5" y="259.8467">Update Wallet Details</text><line style="stroke:#181818;stroke-width:0.5;" x1="3438.5" x2="3624.5" y1="271" y2="271"/><line style="stroke:#181818;stroke-width:0.5;" x1="3438.5" x2="3624.5" y1="279" y2="279"/></g><!--class Select Wallet to Delete--><g id="elem_Select Wallet to Delete"><rect fill="#F1F1F1" height="48" id="Select Wallet to Delete" rx="2.5" ry="2.5" style="stroke:#181818;stroke-width:0.5;" width="201" x="3682" y="239"/><ellipse cx="3697" cy="255" fill="#ADD1B2" rx="11" ry="11" style="stroke:#181818;stroke-width:1.0;"/><path d="M3699.3438,250.6719 C3698.4063,250.2344 3697.8125,250.0938 3696.9375,250.0938 C3694.3125,250.0938 3692.3125,252.1719 3692.3125,254.8906 L3692.3125,256.0156 C3692.3125,258.5938 3694.4219,260.4844 3697.3125,260.4844 C3698.5313,260.4844 3699.6875,260.1875 3700.4375,259.6406 C3701.0156,259.2344 3701.3438,258.7813 3701.3438,258.3906 C3701.3438,257.9375 3700.9531,257.5469 3700.4844,257.5469 C3700.2656,257.5469 3700.0625,257.625 3699.875,257.8125 C3699.4219,258.2969 3699.4219,258.2969 3699.2344,258.3906 C3698.8125,258.6563 3698.125,258.7813 3697.3594,258.7813 C3695.3125,258.7813 3694.0156,257.6875 3694.0156,255.9844 L3694.0156,254.8906 C3694.0156,253.1094 3695.2656,251.7969 3697,251.7969 C3697.5781,251.7969 3698.1875,251.9531 3698.6563,252.2031 C3699.1406,252.4844 3699.3125,252.7031 3699.4063,253.1094 C3699.4688,253.5156 3699.5,253.6406 3699.6406,253.7656 C3699.7813,253.9063 3700.0156,254.0156 3700.2344,254.0156 C3700.5,254.0156 3700.7656,253.875 3700.9375,253.6563 C3701.0469,253.5 3701.0781,253.3125 3701.0781,252.8906 L3701.0781,251.4688 C3701.0781,251.0313 3701.0625,250.9063 3700.9688,250.75 C3700.8125,250.4844 3700.5313,250.3438 3700.2344,250.3438 C3699.9375,250.3438 3699.7344,250.4375 3699.5156,250.75 L3699.3438,250.6719 Z " fill="#000000"/><text fill="#000000" font-family="sans-serif" font-size="14" lengthAdjust="spacing" textLength="169" x="3711" y="259.8467">Select Wallet to Delete</text><line style="stroke:#181818;stroke-width:0.5;" x1="3683" x2="3882" y1="271" y2="271"/><line style="stroke:#181818;stroke-width:0.5;" x1="3683" x2="3882" y1="279" y2="279"/></g><!--class Confirm Deletion--><g id="elem_Confirm Deletion"><rect fill="#F1F1F1" height="48" id="Confirm Deletion" rx="2.5" ry="2.5" style="stroke:#181818;stroke-width:0.5;" width="156" x="3918.5" y="239"/><ellipse cx="3933.5" cy="255" fill="#ADD1B2" rx="11" ry="11" style="stroke:#181818;stroke-width:1.0;"/><path d="M3935.8438,250.6719 C3934.9063,250.2344 3934.3125,250.0938 3933.4375,250.0938 C3930.8125,250.0938 3928.8125,252.1719 3928.8125,254.8906 L3928.8125,256.0156 C3928.8125,258.5938 3930.9219,260.4844 3933.8125,260.4844 C3935.0313,260.4844 3936.1875,260.1875 3936.9375,259.6406 C3937.5156,259.2344 3937.8438,258.7813 3937.8438,258.3906 C3937.8438,257.9375 3937.4531,257.5469 3936.9844,257.5469 C3936.7656,257.5469 3936.5625,257.625 3936.375,257.8125 C3935.9219,258.2969 3935.9219,258.2969 3935.7344,258.3906 C3935.3125,258.6563 3934.625,258.7813 3933.8594,258.7813 C3931.8125,258.7813 3930.5156,257.6875 3930.5156,255.9844 L3930.5156,254.8906 C3930.5156,253.1094 3931.7656,251.7969 3933.5,251.7969 C3934.0781,251.7969 3934.6875,251.9531 3935.1563,252.2031 C3935.6406,252.4844 3935.8125,252.7031 3935.9063,253.1094 C3935.9688,253.5156 3936,253.6406 3936.1406,253.7656 C3936.2813,253.9063 3936.5156,254.0156 3936.7344,254.0156 C3937,254.0156 3937.2656,253.875 3937.4375,253.6563 C3937.5469,253.5 3937.5781,253.3125 3937.5781,252.8906 L3937.5781,251.4688 C3937.5781,251.0313 3937.5625,250.9063 3937.4688,250.75 C3937.3125,250.4844 3937.0313,250.3438 3936.7344,250.3438 C3936.4375,250.3438 3936.2344,250.4375 3936.0156,250.75 L3935.8438,250.6719 Z " fill="#000000"/><text fill="#000000" font-family="sans-serif" font-size="14" lengthAdjust="spacing" textLength="124" x="3947.5" y="259.8467">Confirm Deletion</text><line style="stroke:#181818;stroke-width:0.5;" x1="3919.5" x2="4073.5" y1="271" y2="271"/><line style="stroke:#181818;stroke-width:0.5;" x1="3919.5" x2="4073.5" y1="279" y2="279"/></g><!--class View Transaction History--><g id="elem_View Transaction History"><rect fill="#F1F1F1" height="48" id="View Transaction History" rx="2.5" ry="2.5" style="stroke:#181818;stroke-width:0.5;" width="209" x="4155" y="239"/><ellipse cx="4170" cy="255" fill="#ADD1B2" rx="11" ry="11" style="stroke:#181818;stroke-width:1.0;"/><path d="M4172.3438,250.6719 C4171.4063,250.2344 4170.8125,250.0938 4169.9375,250.0938 C4167.3125,250.0938 4165.3125,252.1719 4165.3125,254.8906 L4165.3125,256.0156 C4165.3125,258.5938 4167.4219,260.4844 4170.3125,260.4844 C4171.5313,260.4844 4172.6875,260.1875 4173.4375,259.6406 C4174.0156,259.2344 4174.3438,258.7813 4174.3438,258.3906 C4174.3438,257.9375 4173.9531,257.5469 4173.4844,257.5469 C4173.2656,257.5469 4173.0625,257.625 4172.875,257.8125 C4172.4219,258.2969 4172.4219,258.2969 4172.2344,258.3906 C4171.8125,258.6563 4171.125,258.7813 4170.3594,258.7813 C4168.3125,258.7813 4167.0156,257.6875 4167.0156,255.9844 L4167.0156,254.8906 C4167.0156,253.1094 4168.2656,251.7969 4170,251.7969 C4170.5781,251.7969 4171.1875,251.9531 4171.6563,252.2031 C4172.1406,252.4844 4172.3125,252.7031 4172.4063,253.1094 C4172.4688,253.5156 4172.5,253.6406 4172.6406,253.7656 C4172.7813,253.9063 4173.0156,254.0156 4173.2344,254.0156 C4173.5,254.0156 4173.7656,253.875 4173.9375,253.6563 C4174.0469,253.5 4174.0781,253.3125 4174.0781,252.8906 L4174.0781,251.4688 C4174.0781,251.0313 4174.0625,250.9063 4173.9688,250.75 C4173.8125,250.4844 4173.5313,250.3438 4173.2344,250.3438 C4172.9375,250.3438 4172.7344,250.4375 4172.5156,250.75 L4172.3438,250.6719 Z " fill="#000000"/><text fill="#000000" font-family="sans-serif" font-size="14" lengthAdjust="spacing" textLength="177" x="4184" y="259.8467">View Transaction History</text><line style="stroke:#181818;stroke-width:0.5;" x1="4156" x2="4363" y1="271" y2="271"/><line style="stroke:#181818;stroke-width:0.5;" x1="4156" x2="4363" y1="279" y2="279"/></g><!--class Generate Charts--><g id="elem_Generate Charts"><rect fill="#F1F1F1" height="48" id="Generate Charts" rx="2.5" ry="2.5" style="stroke:#181818;stroke-width:0.5;" width="151" x="4421" y="239"/><ellipse cx="4436" cy="255" fill="#ADD1B2" rx="11" ry="11" style="stroke:#181818;stroke-width:1.0;"/><path d="M4438.3438,250.6719 C4437.4063,250.2344 4436.8125,250.0938 4435.9375,250.0938 C4433.3125,250.0938 4431.3125,252.1719 4431.3125,254.8906 L4431.3125,256.0156 C4431.3125,258.5938 4433.4219,260.4844 4436.3125,260.4844 C4437.5313,260.4844 4438.6875,260.1875 4439.4375,259.6406 C4440.0156,259.2344 4440.3438,258.7813 4440.3438,258.3906 C4440.3438,257.9375 4439.9531,257.5469 4439.4844,257.5469 C4439.2656,257.5469 4439.0625,257.625 4438.875,257.8125 C4438.4219,258.2969 4438.4219,258.2969 4438.2344,258.3906 C4437.8125,258.6563 4437.125,258.7813 4436.3594,258.7813 C4434.3125,258.7813 4433.0156,257.6875 4433.0156,255.9844 L4433.0156,254.8906 C4433.0156,253.1094 4434.2656,251.7969 4436,251.7969 C4436.5781,251.7969 4437.1875,251.9531 4437.6563,252.2031 C4438.1406,252.4844 4438.3125,252.7031 4438.4063,253.1094 C4438.4688,253.5156 4438.5,253.6406 4438.6406,253.7656 C4438.7813,253.9063 4439.0156,254.0156 4439.2344,254.0156 C4439.5,254.0156 4439.7656,253.875 4439.9375,253.6563 C4440.0469,253.5 4440.0781,253.3125 4440.0781,252.8906 L4440.0781,251.4688 C4440.0781,251.0313 4440.0625,250.9063 4439.9688,250.75 C4439.8125,250.4844 4439.5313,250.3438 4439.2344,250.3438 C4438.9375,250.3438 4438.7344,250.4375 4438.5156,250.75 L4438.3438,250.6719 Z " fill="#000000"/><text fill="#000000" font-family="sans-serif" font-size="14" lengthAdjust="spacing" textLength="119" x="4450" y="259.8467">Generate Charts</text><line style="stroke:#181818;stroke-width:0.5;" x1="4422" x2="4571" y1="271" y2="271"/><line style="stroke:#181818;stroke-width:0.5;" x1="4422" x2="4571" y1="279" y2="279"/></g><!--class User--><g id="elem_User"><rect codeLine="5" fill="#F1F1F1" height="48" id="User" rx="2.5" ry="2.5" style="stroke:#181818;stroke-width:0.5;" width="63" x="2198" y="7"/><ellipse cx="2213" cy="23" fill="#ADD1B2" rx="11" ry="11" style="stroke:#181818;stroke-width:1.0;"/><path d="M2211.7969,23.875 L2213.25,23.875 L2213.25,23.9844 C2213.25,24.3906 2213.2813,24.5469 2213.3594,24.7031 C2213.5156,24.9531 2213.7969,25.1094 2214.0938,25.1094 C2214.3438,25.1094 2214.6094,24.9688 2214.7656,24.75 C2214.8906,24.5938 2214.9219,24.4375 2214.9219,23.9844 L2214.9219,22.0625 C2214.9219,21.9063 2214.9219,21.8594 2214.9063,21.7031 C2214.8438,21.2344 2214.5313,20.9219 2214.0781,20.9219 C2213.8281,20.9219 2213.5625,21.0625 2213.3906,21.2813 C2213.2813,21.4531 2213.25,21.6094 2213.25,22.0625 L2213.25,22.1875 L2211.7969,22.1875 L2211.7969,19.7813 L2215.7813,19.7813 L2215.7813,20.6406 C2215.7813,21.0469 2215.8125,21.2188 2215.8906,21.375 C2216.0625,21.625 2216.3438,21.7813 2216.625,21.7813 C2216.8906,21.7813 2217.1563,21.6406 2217.3281,21.4219 C2217.4375,21.25 2217.4688,21.1094 2217.4688,20.6406 L2217.4688,18.0938 L2209.8438,18.0938 C2209.4063,18.0938 2209.2813,18.1094 2209.125,18.2031 C2208.875,18.3594 2208.7188,18.6563 2208.7188,18.9375 C2208.7188,19.2188 2208.8594,19.4688 2209.0781,19.6406 C2209.2344,19.75 2209.4219,19.7813 2209.8438,19.7813 L2210.0938,19.7813 L2210.0938,26.2969 L2209.8438,26.2969 C2209.4375,26.2969 2209.2813,26.3125 2209.125,26.4219 C2208.875,26.5938 2208.7188,26.8594 2208.7188,27.1563 C2208.7188,27.4219 2208.8594,27.6719 2209.0781,27.8281 C2209.2188,27.9531 2209.4531,28 2209.8438,28 L2217.8438,28 L2217.8438,25.4219 C2217.8438,24.9844 2217.8125,24.8438 2217.7344,24.6875 C2217.5625,24.4375 2217.2813,24.2813 2217,24.2813 C2216.7344,24.2813 2216.4688,24.3906 2216.2969,24.6406 C2216.1875,24.7969 2216.1563,24.9375 2216.1563,25.4219 L2216.1563,26.2969 L2211.7969,26.2969 L2211.7969,23.875 Z " fill="#000000"/><text fill="#000000" font-family="sans-serif" font-size="14" lengthAdjust="spacing" textLength="31" x="2227" y="27.8467">User</text><line style="stroke:#181818;stroke-width:0.5;" x1="2199" x2="2260" y1="39" y2="39"/><line style="stroke:#181818;stroke-width:0.5;" x1="2199" x2="2260" y1="47" y2="47"/></g><!--class Admin--><g id="elem_Admin"><rect codeLine="6" fill="#F1F1F1" height="48" id="Admin" rx="2.5" ry="2.5" style="stroke:#181818;stroke-width:0.5;" width="78" x="642.5" y="239"/><ellipse cx="657.5" cy="255" fill="#ADD1B2" rx="11" ry="11" style="stroke:#181818;stroke-width:1.0;"/><path d="M656.2969,255.875 L657.75,255.875 L657.75,255.9844 C657.75,256.3906 657.7813,256.5469 657.8594,256.7031 C658.0156,256.9531 658.2969,257.1094 658.5938,257.1094 C658.8438,257.1094 659.1094,256.9688 659.2656,256.75 C659.3906,256.5938 659.4219,256.4375 659.4219,255.9844 L659.4219,254.0625 C659.4219,253.9063 659.4219,253.8594 659.4063,253.7031 C659.3438,253.2344 659.0313,252.9219 658.5781,252.9219 C658.3281,252.9219 658.0625,253.0625 657.8906,253.2813 C657.7813,253.4531 657.75,253.6094 657.75,254.0625 L657.75,254.1875 L656.2969,254.1875 L656.2969,251.7813 L660.2813,251.7813 L660.2813,252.6406 C660.2813,253.0469 660.3125,253.2188 660.3906,253.375 C660.5625,253.625 660.8438,253.7813 661.125,253.7813 C661.3906,253.7813 661.6563,253.6406 661.8281,253.4219 C661.9375,253.25 661.9688,253.1094 661.9688,252.6406 L661.9688,250.0938 L654.3438,250.0938 C653.9063,250.0938 653.7813,250.1094 653.625,250.2031 C653.375,250.3594 653.2188,250.6563 653.2188,250.9375 C653.2188,251.2188 653.3594,251.4688 653.5781,251.6406 C653.7344,251.75 653.9219,251.7813 654.3438,251.7813 L654.5938,251.7813 L654.5938,258.2969 L654.3438,258.2969 C653.9375,258.2969 653.7813,258.3125 653.625,258.4219 C653.375,258.5938 653.2188,258.8594 653.2188,259.1563 C653.2188,259.4219 653.3594,259.6719 653.5781,259.8281 C653.7188,259.9531 653.9531,260 654.3438,260 L662.3438,260 L662.3438,257.4219 C662.3438,256.9844 662.3125,256.8438 662.2344,256.6875 C662.0625,256.4375 661.7813,256.2813 661.5,256.2813 C661.2344,256.2813 660.9688,256.3906 660.7969,256.6406 C660.6875,256.7969 660.6563,256.9375 660.6563,257.4219 L660.6563,258.2969 L656.2969,258.2969 L656.2969,255.875 Z " fill="#000000"/><text fill="#000000" font-family="sans-serif" font-size="14" lengthAdjust="spacing" textLength="46" x="671.5" y="259.8467">Admin</text><line style="stroke:#181818;stroke-width:0.5;" x1="643.5" x2="719.5" y1="271" y2="271"/><line style="stroke:#181818;stroke-width:0.5;" x1="643.5" x2="719.5" y1="279" y2="279"/></g><!--class Exchanges--><g id="elem_Exchanges"><rect codeLine="7" fill="#F1F1F1" height="48" id="Exchanges" rx="2.5" ry="2.5" style="stroke:#181818;stroke-width:0.5;" width="162" x="225.5" y="414"/><ellipse cx="240.5" cy="430" fill="#ADD1B2" rx="11" ry="11" style="stroke:#181818;stroke-width:1.0;"/><path d="M239.2969,430.875 L240.75,430.875 L240.75,430.9844 C240.75,431.3906 240.7813,431.5469 240.8594,431.7031 C241.0156,431.9531 241.2969,432.1094 241.5938,432.1094 C241.8438,432.1094 242.1094,431.9688 242.2656,431.75 C242.3906,431.5938 242.4219,431.4375 242.4219,430.9844 L242.4219,429.0625 C242.4219,428.9063 242.4219,428.8594 242.4063,428.7031 C242.3438,428.2344 242.0313,427.9219 241.5781,427.9219 C241.3281,427.9219 241.0625,428.0625 240.8906,428.2813 C240.7813,428.4531 240.75,428.6094 240.75,429.0625 L240.75,429.1875 L239.2969,429.1875 L239.2969,426.7813 L243.2813,426.7813 L243.2813,427.6406 C243.2813,428.0469 243.3125,428.2188 243.3906,428.375 C243.5625,428.625 243.8438,428.7813 244.125,428.7813 C244.3906,428.7813 244.6563,428.6406 244.8281,428.4219 C244.9375,428.25 244.9688,428.1094 244.9688,427.6406 L244.9688,425.0938 L237.3438,425.0938 C236.9063,425.0938 236.7813,425.1094 236.625,425.2031 C236.375,425.3594 236.2188,425.6563 236.2188,425.9375 C236.2188,426.2188 236.3594,426.4688 236.5781,426.6406 C236.7344,426.75 236.9219,426.7813 237.3438,426.7813 L237.5938,426.7813 L237.5938,433.2969 L237.3438,433.2969 C236.9375,433.2969 236.7813,433.3125 236.625,433.4219 C236.375,433.5938 236.2188,433.8594 236.2188,434.1563 C236.2188,434.4219 236.3594,434.6719 236.5781,434.8281 C236.7188,434.9531 236.9531,435 237.3438,435 L245.3438,435 L245.3438,432.4219 C245.3438,431.9844 245.3125,431.8438 245.2344,431.6875 C245.0625,431.4375 244.7813,431.2813 244.5,431.2813 C244.2344,431.2813 243.9688,431.3906 243.7969,431.6406 C243.6875,431.7969 243.6563,431.9375 243.6563,432.4219 L243.6563,433.2969 L239.2969,433.2969 L239.2969,430.875 Z " fill="#000000"/><text fill="#000000" font-family="sans-serif" font-size="14" lengthAdjust="spacing" textLength="130" x="254.5" y="434.8467">Crypto Exchanges</text><line style="stroke:#181818;stroke-width:0.5;" x1="226.5" x2="386.5" y1="446" y2="446"/><line style="stroke:#181818;stroke-width:0.5;" x1="226.5" x2="386.5" y1="454" y2="454"/></g><!--class Blockchain--><g id="elem_Blockchain"><rect codeLine="8" fill="#F1F1F1" height="48" id="Blockchain" rx="2.5" ry="2.5" style="stroke:#181818;stroke-width:0.5;" width="175" x="7" y="239"/><ellipse cx="22" cy="255" fill="#ADD1B2" rx="11" ry="11" style="stroke:#181818;stroke-width:1.0;"/><path d="M20.7969,255.875 L22.25,255.875 L22.25,255.9844 C22.25,256.3906 22.2813,256.5469 22.3594,256.7031 C22.5156,256.9531 22.7969,257.1094 23.0938,257.1094 C23.3438,257.1094 23.6094,256.9688 23.7656,256.75 C23.8906,256.5938 23.9219,256.4375 23.9219,255.9844 L23.9219,254.0625 C23.9219,253.9063 23.9219,253.8594 23.9063,253.7031 C23.8438,253.2344 23.5313,252.9219 23.0781,252.9219 C22.8281,252.9219 22.5625,253.0625 22.3906,253.2813 C22.2813,253.4531 22.25,253.6094 22.25,254.0625 L22.25,254.1875 L20.7969,254.1875 L20.7969,251.7813 L24.7813,251.7813 L24.7813,252.6406 C24.7813,253.0469 24.8125,253.2188 24.8906,253.375 C25.0625,253.625 25.3438,253.7813 25.625,253.7813 C25.8906,253.7813 26.1563,253.6406 26.3281,253.4219 C26.4375,253.25 26.4688,253.1094 26.4688,252.6406 L26.4688,250.0938 L18.8438,250.0938 C18.4063,250.0938 18.2813,250.1094 18.125,250.2031 C17.875,250.3594 17.7188,250.6563 17.7188,250.9375 C17.7188,251.2188 17.8594,251.4688 18.0781,251.6406 C18.2344,251.75 18.4219,251.7813 18.8438,251.7813 L19.0938,251.7813 L19.0938,258.2969 L18.8438,258.2969 C18.4375,258.2969 18.2813,258.3125 18.125,258.4219 C17.875,258.5938 17.7188,258.8594 17.7188,259.1563 C17.7188,259.4219 17.8594,259.6719 18.0781,259.8281 C18.2188,259.9531 18.4531,260 18.8438,260 L26.8438,260 L26.8438,257.4219 C26.8438,256.9844 26.8125,256.8438 26.7344,256.6875 C26.5625,256.4375 26.2813,256.2813 26,256.2813 C25.7344,256.2813 25.4688,256.3906 25.2969,256.6406 C25.1875,256.7969 25.1563,256.9375 25.1563,257.4219 L25.1563,258.2969 L20.7969,258.2969 L20.7969,255.875 Z " fill="#000000"/><text fill="#000000" font-family="sans-serif" font-size="14" lengthAdjust="spacing" textLength="143" x="36" y="259.8467">Blockchain Network</text><line style="stroke:#181818;stroke-width:0.5;" x1="8" x2="181" y1="271" y2="271"/><line style="stroke:#181818;stroke-width:0.5;" x1="8" x2="181" y1="279" y2="279"/></g><!--class Wallets--><g id="elem_Wallets"><rect codeLine="9" fill="#F1F1F1" height="48" id="Wallets" rx="2.5" ry="2.5" style="stroke:#181818;stroke-width:0.5;" width="139" x="830" y="414"/><ellipse cx="845" cy="430" fill="#ADD1B2" rx="11" ry="11" style="stroke:#181818;stroke-width:1.0;"/><path d="M843.7969,430.875 L845.25,430.875 L845.25,430.9844 C845.25,431.3906 845.2813,431.5469 845.3594,431.7031 C845.5156,431.9531 845.7969,432.1094 846.0938,432.1094 C846.3438,432.1094 846.6094,431.9688 846.7656,431.75 C846.8906,431.5938 846.9219,431.4375 846.9219,430.9844 L846.9219,429.0625 C846.9219,428.9063 846.9219,428.8594 846.9063,428.7031 C846.8438,428.2344 846.5313,427.9219 846.0781,427.9219 C845.8281,427.9219 845.5625,428.0625 845.3906,428.2813 C845.2813,428.4531 845.25,428.6094 845.25,429.0625 L845.25,429.1875 L843.7969,429.1875 L843.7969,426.7813 L847.7813,426.7813 L847.7813,427.6406 C847.7813,428.0469 847.8125,428.2188 847.8906,428.375 C848.0625,428.625 848.3438,428.7813 848.625,428.7813 C848.8906,428.7813 849.1563,428.6406 849.3281,428.4219 C849.4375,428.25 849.4688,428.1094 849.4688,427.6406 L849.4688,425.0938 L841.8438,425.0938 C841.4063,425.0938 841.2813,425.1094 841.125,425.2031 C840.875,425.3594 840.7188,425.6563 840.7188,425.9375 C840.7188,426.2188 840.8594,426.4688 841.0781,426.6406 C841.2344,426.75 841.4219,426.7813 841.8438,426.7813 L842.0938,426.7813 L842.0938,433.2969 L841.8438,433.2969 C841.4375,433.2969 841.2813,433.3125 841.125,433.4219 C840.875,433.5938 840.7188,433.8594 840.7188,434.1563 C840.7188,434.4219 840.8594,434.6719 841.0781,434.8281 C841.2188,434.9531 841.4531,435 841.8438,435 L849.8438,435 L849.8438,432.4219 C849.8438,431.9844 849.8125,431.8438 849.7344,431.6875 C849.5625,431.4375 849.2813,431.2813 849,431.2813 C848.7344,431.2813 848.4688,431.3906 848.2969,431.6406 C848.1875,431.7969 848.1563,431.9375 848.1563,432.4219 L848.1563,433.2969 L843.7969,433.2969 L843.7969,430.875 Z " fill="#000000"/><text fill="#000000" font-family="sans-serif" font-size="14" lengthAdjust="spacing" textLength="107" x="859" y="434.8467">Crypto Wallets</text><line style="stroke:#181818;stroke-width:0.5;" x1="831" x2="968" y1="446" y2="446"/><line style="stroke:#181818;stroke-width:0.5;" x1="831" x2="968" y1="454" y2="454"/></g><!--class Database--><g id="elem_Database"><rect codeLine="10" fill="#F1F1F1" height="48" id="Database" rx="2.5" ry="2.5" style="stroke:#181818;stroke-width:0.5;" width="100" x="256.5" y="539"/><ellipse cx="271.5" cy="555" fill="#ADD1B2" rx="11" ry="11" style="stroke:#181818;stroke-width:1.0;"/><path d="M270.2969,555.875 L271.75,555.875 L271.75,555.9844 C271.75,556.3906 271.7813,556.5469 271.8594,556.7031 C272.0156,556.9531 272.2969,557.1094 272.5938,557.1094 C272.8438,557.1094 273.1094,556.9688 273.2656,556.75 C273.3906,556.5938 273.4219,556.4375 273.4219,555.9844 L273.4219,554.0625 C273.4219,553.9063 273.4219,553.8594 273.4063,553.7031 C273.3438,553.2344 273.0313,552.9219 272.5781,552.9219 C272.3281,552.9219 272.0625,553.0625 271.8906,553.2813 C271.7813,553.4531 271.75,553.6094 271.75,554.0625 L271.75,554.1875 L270.2969,554.1875 L270.2969,551.7813 L274.2813,551.7813 L274.2813,552.6406 C274.2813,553.0469 274.3125,553.2188 274.3906,553.375 C274.5625,553.625 274.8438,553.7813 275.125,553.7813 C275.3906,553.7813 275.6563,553.6406 275.8281,553.4219 C275.9375,553.25 275.9688,553.1094 275.9688,552.6406 L275.9688,550.0938 L268.3438,550.0938 C267.9063,550.0938 267.7813,550.1094 267.625,550.2031 C267.375,550.3594 267.2188,550.6563 267.2188,550.9375 C267.2188,551.2188 267.3594,551.4688 267.5781,551.6406 C267.7344,551.75 267.9219,551.7813 268.3438,551.7813 L268.5938,551.7813 L268.5938,558.2969 L268.3438,558.2969 C267.9375,558.2969 267.7813,558.3125 267.625,558.4219 C267.375,558.5938 267.2188,558.8594 267.2188,559.1563 C267.2188,559.4219 267.3594,559.6719 267.5781,559.8281 C267.7188,559.9531 267.9531,560 268.3438,560 L276.3438,560 L276.3438,557.4219 C276.3438,556.9844 276.3125,556.8438 276.2344,556.6875 C276.0625,556.4375 275.7813,556.2813 275.5,556.2813 C275.2344,556.2813 274.9688,556.3906 274.7969,556.6406 C274.6875,556.7969 274.6563,556.9375 274.6563,557.4219 L274.6563,558.2969 L270.2969,558.2969 L270.2969,555.875 Z " fill="#000000"/><text fill="#000000" font-family="sans-serif" font-size="14" lengthAdjust="spacing" textLength="68" x="285.5" y="559.8467">Database</text><line style="stroke:#181818;stroke-width:0.5;" x1="257.5" x2="355.5" y1="571" y2="571"/><line style="stroke:#181818;stroke-width:0.5;" x1="257.5" x2="355.5" y1="579" y2="579"/></g><!--link User to Admin--><g id="link_User_Admin"><path codeLine="12" d="M2197.97,32.389 C1969.46,35.277 575.397,54.147 545.5,85 C540.242,90.426 540.47,96.362 545.5,102 C555.924,113.683 602.918,100.682 615.5,110 C657.461,141.077 672.1394,198.5691 677.6874,232.8471 " fill="none" id="User-to-Admin" style="stroke:#181818;stroke-width:1.0;stroke-dasharray:7.0,7.0;"/><polygon fill="#181818" points="678.646,238.77,681.1566,229.2465,677.8471,233.8342,673.2594,230.5247,678.646,238.77" style="stroke:#181818;stroke-width:1.0;"/><text fill="#000000" font-family="sans-serif" font-size="13" lengthAdjust="spacing" textLength="91" x="546.5" y="98.0669">Admin Control</text></g><!--link Admin to User--><g id="link_Admin_User"><path codeLine="17" d="M672.039,238.756 C658.359,200.917 638.775,126.106 678.5,85 C733.236,28.361 1976.45,30.9506 2191.97,31.8256 " fill="none" id="Admin-to-User" style="stroke:#181818;stroke-width:1.0;stroke-dasharray:7.0,7.0;"/><polygon fill="#181818" points="2197.97,31.85,2188.9863,27.8135,2192.97,31.8297,2188.9538,35.8134,2197.97,31.85" style="stroke:#181818;stroke-width:1.0;"/><text fill="#000000" font-family="sans-serif" font-size="13" lengthAdjust="spacing" textLength="86" x="679.5" y="98.0669">Configuration</text></g><!--link User to Exchanges--><g id="link_User_Exchanges"><path codeLine="13" d="M2197.61,31.956 C1950.05,31.774 343.123,33.546 278.5,110 C203.097,199.208 263.8097,349.8267 292.0287,408.4517 " fill="none" id="User-to-Exchanges" style="stroke:#181818;stroke-width:1.0;stroke-dasharray:7.0,7.0;"/><polygon fill="#181818" points="294.631,413.858,294.3317,404.0137,292.4624,409.3528,287.1233,407.4834,294.631,413.858" style="stroke:#181818;stroke-width:1.0;"/><text fill="#000000" font-family="sans-serif" font-size="13" lengthAdjust="spacing" textLength="74" x="279.5" y="267.5669">Query Data</text></g><!--link User to Blockchain--><g id="link_User_Blockchain"><path codeLine="14" d="M2197.77,32.219 C1936.91,34.09 154.659,48.209 114.5,85 C71.86,124.065 79.6268,194.6275 87.5667,232.9945 " fill="none" id="User-to-Blockchain" style="stroke:#181818;stroke-width:1.0;stroke-dasharray:7.0,7.0;"/><polygon fill="#181818" points="88.7826,238.87,90.8757,229.2461,87.7693,233.9737,83.0417,230.8674,88.7826,238.87" style="stroke:#181818;stroke-width:1.0;"/><text fill="#000000" font-family="sans-serif" font-size="13" lengthAdjust="spacing" textLength="110" x="115.5" y="98.0669">Transaction Data</text></g><!--link User to Wallets--><g id="link_User_Wallets"><path codeLine="15" d="M2197.91,31.877 C2018.05,31.459 1127.94,33.298 1036.5,110 C946.461,185.53 998.35,253.047 947.5,359 C938.281,378.209 928.8741,393.676 918.8451,408.825 " fill="none" id="User-to-Wallets" style="stroke:#181818;stroke-width:1.0;stroke-dasharray:7.0,7.0;"/><polygon fill="#181818" points="915.533,413.828,923.8365,408.5316,918.2931,409.6588,917.1658,404.1154,915.533,413.828" style="stroke:#181818;stroke-width:1.0;"/><text fill="#000000" font-family="sans-serif" font-size="13" lengthAdjust="spacing" textLength="128" x="1037.5" y="267.5669">Wallet Management</text></g><!--link User to Wallets--><g id="link_User_Wallets"><path codeLine="42" d="M2197.74,32.212 C2036.03,33.587 1308.85,43.459 1236.5,110 C1152.23,187.501 1250.59,277.193 1170.5,359 C1117.75,412.874 1036.3783,429.6474 975.1403,434.8674 " fill="none" id="User-to-Wallets-1" style="stroke:#181818;stroke-width:1.0;stroke-dasharray:7.0,7.0;"/><polygon fill="#181818" points="969.162,435.377,978.4692,438.5981,974.1439,434.9523,977.7897,430.6271,969.162,435.377" style="stroke:#181818;stroke-width:1.0;"/><text fill="#000000" font-family="sans-serif" font-size="13" lengthAdjust="spacing" textLength="122" x="1237.5" y="267.5669">Create Wallet Data</text></g><!--link User to Wallets--><g id="link_User_Wallets"><path codeLine="47" d="M2197.84,33.461 C2102.62,38.086 1810.69,53.97 1570.5,85 C1507.81,93.098 1477,67.185 1430.5,110 C1346.28,187.553 1449.13,281.891 1364.5,359 C1307.77,410.686 1090.6923,428.1989 975.3703,434.0329 " fill="none" id="User-to-Wallets-2" style="stroke:#181818;stroke-width:1.0;stroke-dasharray:7.0,7.0;"/><polygon fill="#181818" points="969.378,434.336,978.5686,437.8762,974.3716,434.0834,978.1644,429.8864,969.378,434.336" style="stroke:#181818;stroke-width:1.0;"/><text fill="#000000" font-family="sans-serif" font-size="13" lengthAdjust="spacing" textLength="121" x="1431.5" y="267.5669">Modify Wallet Data</text></g><!--link User to Wallets--><g id="link_User_Wallets"><path codeLine="52" d="M2197.66,31.843 C2087.22,31.942 1722.68,37.83 1636.5,110 C1547.49,184.545 1646.63,284.601 1557.5,359 C1490.42,414.991 1449.24,373.476 1362.5,384 C1223.15,400.908 1065.9834,418.5803 975.3084,428.6413 " fill="none" id="User-to-Wallets-3" style="stroke:#181818;stroke-width:1.0;stroke-dasharray:7.0,7.0;"/><polygon fill="#181818" points="969.345,429.303,978.7312,432.2861,974.3145,428.7516,977.849,424.3349,969.345,429.303" style="stroke:#181818;stroke-width:1.0;"/><text fill="#000000" font-family="sans-serif" font-size="13" lengthAdjust="spacing" textLength="121" x="1637.5" y="267.5669">Delete Wallet Data</text></g><!--link User to Wallets--><g id="link_User_Wallets"><path codeLine="54" d="M2197.97,32.034 C1961.55,32.448 474.013,37.917 415.5,110 C345.753,195.922 343.742,274.751 415.5,359 C467.86,420.474 702.5085,433.5356 823.5555,436.2486 " fill="none" id="User-to-Wallets-4" style="stroke:#181818;stroke-width:1.0;stroke-dasharray:7.0,7.0;"/><polygon fill="#181818" points="829.554,436.383,820.6459,432.1823,824.5553,436.271,820.4666,440.1803,829.554,436.383" style="stroke:#181818;stroke-width:1.0;"/><text fill="#000000" font-family="sans-serif" font-size="13" lengthAdjust="spacing" textLength="207" x="416.5" y="267.5669">Wallet Transaction Management</text></g><!--link User to Wallets--><g id="link_User_Wallets"><path codeLine="55" d="M2197.93,32.468 C1991.33,35.681 839.417,55.99 790.5,110 C716.21,192.025 739.904,260.577 790.5,359 C802.788,382.903 820.9896,398.0964 842.9606,410.8864 " fill="none" id="User-to-Wallets-5" style="stroke:#181818;stroke-width:1.0;stroke-dasharray:7.0,7.0;"/><polygon fill="#181818" points="848.146,413.905,842.3803,405.9202,843.8248,411.3895,838.3555,412.8341,848.146,413.905" style="stroke:#181818;stroke-width:1.0;"/><text fill="#000000" font-family="sans-serif" font-size="13" lengthAdjust="spacing" textLength="147" x="791.5" y="267.5669">Watchlist Management</text></g><!--link Admin to Exchanges--><g id="link_Admin_Exchanges"><path codeLine="18" d="M672.375,287.312 C662.184,309.897 643.37,343.008 615.5,359 C595.78,370.316 535.773,362.434 513.5,367 C460.913,377.779 408.8111,395.857 367.7201,411.814 " fill="none" id="Admin-to-Exchanges" style="stroke:#181818;stroke-width:1.0;stroke-dasharray:7.0,7.0;"/><polygon fill="#181818" points="362.127,413.986,371.9646,414.4568,366.7879,412.176,369.0686,406.9993,362.127,413.986" style="stroke:#181818;stroke-width:1.0;"/><text fill="#000000" font-family="sans-serif" font-size="13" lengthAdjust="spacing" textLength="104" x="514.5" y="380.0669">Data Integration</text></g><!--link Admin to Wallets--><g id="link_Admin_Wallets"><path codeLine="19" d="M659.426,287.416 C637.706,313.348 610.953,355.277 634.5,384 C658.78,413.617 753.8776,426.5162 823.9316,432.3362 " fill="none" id="Admin-to-Wallets" style="stroke:#181818;stroke-width:1.0;stroke-dasharray:7.0,7.0;"/><polygon fill="#181818" points="829.911,432.833,821.2731,428.1016,824.9282,432.419,820.6107,436.0741,829.911,432.833" style="stroke:#181818;stroke-width:1.0;"/><text fill="#000000" font-family="sans-serif" font-size="13" lengthAdjust="spacing" textLength="128" x="635.5" y="380.0669">Wallet Management</text></g><!--link Wallets to Database--><g id="link_Wallets_Database"><path codeLine="21" d="M829.732,453.471 C708.645,478.587 468.292,528.441 362.509,550.3826 " fill="none" id="Wallets-to-Database" style="stroke:#181818;stroke-width:1.0;stroke-dasharray:7.0,7.0;"/><polygon fill="#181818" points="356.634,551.6012,366.2588,553.69,361.5298,550.5857,364.634,545.8567,356.634,551.6012" style="stroke:#181818;stroke-width:1.0;"/><text fill="#000000" font-family="sans-serif" font-size="13" lengthAdjust="spacing" textLength="69" x="640.5" y="505.0669">Store Data</text></g><!--link Exchanges to Database--><g id="link_Exchanges_Database"><path codeLine="22" d="M306.5,462.135 C306.5,484.126 306.5,511.0123 306.5,532.9684 " fill="none" id="Exchanges-to-Database" style="stroke:#181818;stroke-width:1.0;stroke-dasharray:7.0,7.0;"/><polygon fill="#181818" points="306.5,538.9684,310.5,529.9684,306.5,533.9684,302.5,529.9684,306.5,538.9684" style="stroke:#181818;stroke-width:1.0;"/><text fill="#000000" font-family="sans-serif" font-size="13" lengthAdjust="spacing" textLength="89" x="307.5" y="505.0669">Retrieve Data</text></g><!--link Blockchain to Database--><g id="link_Blockchain_Database"><path codeLine="23" d="M90.5779,287.118 C85.1738,326.678 79.8666,408.279 116.5,462 C149.052,509.7352 206.0985,534.5765 250.5735,548.1275 " fill="none" id="Blockchain-to-Database" style="stroke:#181818;stroke-width:1.0;stroke-dasharray:7.0,7.0;"/><polygon fill="#181818" points="256.313,549.8763,248.8696,543.4268,251.5301,548.419,246.5379,551.0795,256.313,549.8763" style="stroke:#181818;stroke-width:1.0;"/><text fill="#000000" font-family="sans-serif" font-size="13" lengthAdjust="spacing" textLength="89" x="117.5" y="442.5669">Retrieve Data</text></g><!--link User to Validate Credentials--><g id="link_User_Validate Credentials"><path codeLine="27" d="M2261.04,32.461 C2445.12,35.237 3399.27,50.754 4177.5,85 C4360.33,93.045 4424.84,28.115 4588.5,110 C4645.14,138.341 4683.8477,198.5672 4702.9577,233.6152 " fill="none" id="User-to-Validate Credentials" style="stroke:#181818;stroke-width:1.0;stroke-dasharray:7.0,7.0;"/><polygon fill="#181818" points="4705.83,238.883,4705.0334,229.0664,4703.4364,234.4931,4698.0097,232.8961,4705.83,238.883" style="stroke:#181818;stroke-width:1.0;"/></g><!--link User to 2FA Implementation--><g id="link_User_2FA Implementation"><path codeLine="28" d="M2261.04,32.363 C2456.88,34.704 3526.78,48.722 4398.5,85 C4587.55,92.868 4658.19,17.945 4823.5,110 C4875.1,138.732 4905.3195,198.5083 4919.6695,233.4293 " fill="none" id="User-to-2FA Implementation" style="stroke:#181818;stroke-width:1.0;stroke-dasharray:7.0,7.0;"/><polygon fill="#181818" points="4921.95,238.979,4922.229,229.1341,4920.0496,234.3542,4914.8294,232.1748,4921.95,238.979" style="stroke:#181818;stroke-width:1.0;"/></g><!--link User to Query Crypto Data--><g id="link_User_Query Crypto Data"><path codeLine="32" d="M2197.7,34.144 C2143.82,39.204 2033.27,55.898 1959.5,110 C1913.38,143.82 1884.4695,200.005 1870.0195,233.453 " fill="none" id="User-to-Query Crypto Data" style="stroke:#181818;stroke-width:1.0;stroke-dasharray:7.0,7.0;"/><polygon fill="#181818" points="1867.64,238.961,1874.8813,232.2854,1869.6229,234.371,1867.5373,229.1127,1867.64,238.961" style="stroke:#181818;stroke-width:1.0;"/></g><!--link User to Fetch Data from Exchanges--><g id="link_User_Fetch Data from Exchanges"><path codeLine="33" d="M2215.51,55.319 C2188.99,99.516 2134.7971,189.8361 2108.4071,233.8161 " fill="none" id="User-to-Fetch Data from Exchanges" style="stroke:#181818;stroke-width:1.0;stroke-dasharray:7.0,7.0;"/><polygon fill="#181818" points="2105.32,238.961,2113.3806,233.3018,2107.8926,234.6736,2106.5208,229.1856,2105.32,238.961" style="stroke:#181818;stroke-width:1.0;"/></g><!--link User to User Wallet Management--><g id="link_User_User Wallet Management"><path codeLine="37" d="M2243.59,55.319 C2270.3,99.516 2324.8966,189.846 2351.4766,233.826 " fill="none" id="User-to-User Wallet Management" style="stroke:#181818;stroke-width:1.0;stroke-dasharray:7.0,7.0;"/><polygon fill="#181818" points="2354.58,238.961,2353.3482,229.1895,2351.9938,234.6818,2346.5015,233.3274,2354.58,238.961" style="stroke:#181818;stroke-width:1.0;"/></g><!--link User to Provide Wallet Details--><g id="link_User_Provide Wallet Details"><path codeLine="39" d="M2261.18,33.805 C2315.99,38.371 2429.91,54.365 2505.5,110 C2551.28,143.694 2579.41,199.9015 2593.38,233.3905 " fill="none" id="User-to-Provide Wallet Details" style="stroke:#181818;stroke-width:1.0;stroke-dasharray:7.0,7.0;"/><polygon fill="#181818" points="2595.69,238.928,2595.9167,229.0818,2593.765,234.3134,2588.5334,232.1617,2595.69,238.928" style="stroke:#181818;stroke-width:1.0;"/></g><!--link User to Generate Wallet Address--><g id="link_User_Generate Wallet Address"><path codeLine="40" d="M2261.15,34.108 C2356.44,40.909 2638.87,64.512 2717.5,110 C2770.98,140.939 2807.7503,199.4266 2826.1703,233.7106 " fill="none" id="User-to-Generate Wallet Address" style="stroke:#181818;stroke-width:1.0;stroke-dasharray:7.0,7.0;"/><polygon fill="#181818" points="2829.01,238.996,2828.274,229.1747,2826.6435,234.5915,2821.2268,232.961,2829.01,238.996" style="stroke:#181818;stroke-width:1.0;"/></g><!--link User to Store Private Keys--><g id="link_User_Store Private Keys"><path codeLine="41" d="M2261.39,31.841 C2386.53,31.75 2843,36.552 2963.5,110 C3012.59,139.921 3040.2893,198.5151 3053.4393,233.1321 " fill="none" id="User-to-Store Private Keys" style="stroke:#181818;stroke-width:1.0;stroke-dasharray:7.0,7.0;"/><polygon fill="#181818" points="3055.57,238.741,3056.1133,228.9071,3053.7944,234.0669,3048.6347,231.748,3055.57,238.741" style="stroke:#181818;stroke-width:1.0;"/></g><!--link User to Select Wallet to Modify--><g id="link_User_Select Wallet to Modify"><path codeLine="45" d="M2261.06,33.22 C2414.72,39.351 3080.63,68.159 3162.5,110 C3220.8,139.797 3263.9337,199.2813 3285.7237,233.8973 " fill="none" id="User-to-Select Wallet to Modify" style="stroke:#181818;stroke-width:1.0;stroke-dasharray:7.0,7.0;"/><polygon fill="#181818" points="3288.92,238.975,3287.5107,229.2275,3286.2564,234.7435,3280.7403,233.4893,3288.92,238.975" style="stroke:#181818;stroke-width:1.0;"/></g><!--link User to Update Wallet Details--><g id="link_User_Update Wallet Details"><path codeLine="46" d="M2261.23,32.455 C2439.94,35.229 3316.71,51.747 3420.5,110 C3472.5,139.188 3504.3441,198.5213 3519.7341,233.3363 " fill="none" id="User-to-Update Wallet Details" style="stroke:#181818;stroke-width:1.0;stroke-dasharray:7.0,7.0;"/><polygon fill="#181818" points="3522.16,238.824,3522.1797,228.9752,3520.1385,234.2509,3514.8627,232.2096,3522.16,238.824" style="stroke:#181818;stroke-width:1.0;"/></g><!--link User to Select Wallet to Delete--><g id="link_User_Select Wallet to Delete"><path codeLine="50" d="M2261.04,32.264 C2457.91,34.105 3513.85,46.884 3641.5,110 C3700.38,139.116 3743.7768,198.8883 3765.6768,233.7263 " fill="none" id="User-to-Select Wallet to Delete" style="stroke:#181818;stroke-width:1.0;stroke-dasharray:7.0,7.0;"/><polygon fill="#181818" points="3768.87,238.806,3767.4666,229.0576,3766.209,234.5729,3760.6937,233.3153,3768.87,238.806" style="stroke:#181818;stroke-width:1.0;"/></g><!--link User to Confirm Deletion--><g id="link_User_Confirm Deletion"><path codeLine="51" d="M2261.09,32.665 C2411.49,35.946 3069.87,51.61 3608.5,85 C3738.5,93.059 3789.22,42.314 3900.5,110 C3949.17,139.6 3975.252,198.5804 3987.362,233.2614 " fill="none" id="User-to-Confirm Deletion" style="stroke:#181818;stroke-width:1.0;stroke-dasharray:7.0,7.0;"/><polygon fill="#181818" points="3989.34,238.926,3990.1494,229.1105,3987.6917,234.2055,3982.5966,231.7478,3989.34,238.926" style="stroke:#181818;stroke-width:1.0;"/></g><!--link User to View Transaction History--><g id="link_User_View Transaction History"><path codeLine="59" d="M2261.25,32.578 C2422.22,35.615 3164.13,50.902 3770.5,85 C3912.93,93.009 3959.4,53.761 4090.5,110 C4156.87,138.469 4210.996,199.1967 4238.586,234.2027 " fill="none" id="User-to-View Transaction History" style="stroke:#181818;stroke-width:1.0;stroke-dasharray:7.0,7.0;"/><polygon fill="#181818" points="4242.3,238.915,4239.8705,229.3705,4239.205,234.9881,4233.5874,234.3225,4242.3,238.915" style="stroke:#181818;stroke-width:1.0;"/></g><!--link User to Generate Charts--><g id="link_User_Generate Charts"><path codeLine="63" d="M2261.08,32.665 C2432.07,36.33 3264.49,55.002 3944.5,85 C4138.41,93.554 4209.07,18.979 4380.5,110 C4434.15,138.488 4467.8482,198.4793 4484.1382,233.4793 " fill="none" id="User-to-Generate Charts" style="stroke:#181818;stroke-width:1.0;stroke-dasharray:7.0,7.0;"/><polygon fill="#181818" points="4486.67,238.919,4486.4988,229.0716,4484.5602,234.3859,4479.2459,232.4473,4486.67,238.919" style="stroke:#181818;stroke-width:1.0;"/></g><!--SRC=[ZPHDSzem48Rl_XKRttFfaKDdA92MQPDGJ9BfT7fGxGKqs18ZoQHkX_zUVVX3nWWu8TRFxhwxMkrTXclA46PFg_dg1o1JL5NHNMrTB9ydioG1WQaYR9DZ-sMyN3w_mVtFZCWjPh_kFqPH7I9-aIXY81BCeRMEiu8oQxQdrZuHrLvncFr9jpe3Iekq_rhiKyxJdJPI1a-ethdOMR0pdmPy8tcEoeMhpoqo9Ohy9XBjn-PF51czVabEAOpgtmbdIl1yYBLgDVgzH57Pc4FEgs44Aq6O9AcYd0NmMhLctGaU2ICRBFGTHP6JvEFMVsHKhkcc5CH4FeFvOarUc3E5co1-KKJpqNTesgaz4iK5kkAwh05sYKfGFDIurwcR-AWTq9Fxz-H2Kac5HGp_8cW7smuhZ4krDPEVsYuu0c1m8V4hoMb65C94O6OSI2xZ0FlXOGppOf_Rt2wk9e-HdxoMEcThBWhBm3VET-K-BC7DL-reQW_bVq2LRjqDhmKll0Ssa35eLJYzjGnvItjbeMcImvfOvw8j13_Gh25XYehGfgFd-C_8K7IXzRlC1CeB3cu25u8UZDTNhC9iD-Wz-Mw-ZCUnN-GZp-Ywkg7817Czd4quVMlECopwPP_v-QyqfTFTKnJKFTLoRhgSWMxd6TPjDuye75VF-nN9FJ6dagylH7-7UdlfghD-6JcLgkzZalglmW-kp-cEiis5rK3nlQVdYqx0HJLyRVP9lb9PwcNozyh2QGT-iYL2rK_t-1y0]--></g></svg>