<?xml version="1.0" encoding="us-ascii" standalone="no"?><svg xmlns="http://www.w3.org/2000/svg" xmlns:xlink="http://www.w3.org/1999/xlink" contentStyleType="text/css" height="644px" preserveAspectRatio="none" style="width:4004px;height:644px;background:#FFFFFF;" version="1.1" viewBox="0 0 4004 644" width="4004px" zoomAndPan="magnify"><defs/><g><!--cluster Crypto Wallet Management System--><g id="cluster_Crypto Wallet Management System"><rect fill="none" height="411" rx="2.5" ry="2.5" style="stroke:#181818;stroke-width:1.0;" width="3991" x="7" y="227"/><text fill="#000000" font-family="sans-serif" font-size="14" font-weight="bold" lengthAdjust="spacing" textLength="286" x="1859.5" y="241.9951">Crypto Wallet Management System</text></g><!--cluster User Authentication--><g id="cluster_User Authentication"><rect fill="none" height="99" rx="2.5" ry="2.5" style="stroke:#181818;stroke-width:1.0;" width="424" x="31" y="356"/><text fill="#000000" font-family="sans-serif" font-size="14" font-weight="bold" lengthAdjust="spacing" textLength="164" x="161" y="370.9951">User Authentication</text></g><!--cluster Crypto Information Lookup--><g id="cluster_Crypto Information Lookup"><rect fill="none" height="258" rx="2.5" ry="2.5" style="stroke:#181818;stroke-width:1.0;" width="262" x="479" y="356"/><text fill="#000000" font-family="sans-serif" font-size="14" font-weight="bold" lengthAdjust="spacing" textLength="219" x="500.5" y="370.9951">Crypto Information Lookup</text></g><!--cluster Wallet Management--><g id="cluster_Wallet Management"><rect fill="none" height="233" rx="2.5" ry="2.5" style="stroke:#181818;stroke-width:1.0;" width="2735" x="765" y="270"/><text fill="#000000" font-family="sans-serif" font-size="14" font-weight="bold" lengthAdjust="spacing" textLength="162" x="2051.5" y="284.9951">Wallet Management</text></g><!--cluster User Wallet Management--><g id="cluster_User Wallet Management"><rect fill="none" height="166" rx="2.5" ry="2.5" style="stroke:#181818;stroke-width:1.0;" width="1645" x="789" y="313"/><text fill="#000000" font-family="sans-serif" font-size="14" font-weight="bold" lengthAdjust="spacing" textLength="203" x="1510" y="327.9951">User Wallet Management</text></g><!--cluster Create Wallet--><g id="cluster_Create Wallet"><rect fill="none" height="99" rx="2.5" ry="2.5" style="stroke:#181818;stroke-width:1.0;" width="669" x="813" y="356"/><text fill="#000000" font-family="sans-serif" font-size="14" font-weight="bold" lengthAdjust="spacing" textLength="110" x="1092.5" y="370.9951">Create Wallet</text></g><!--cluster Modify Wallet--><g id="cluster_Modify Wallet"><rect fill="none" height="99" rx="2.5" ry="2.5" style="stroke:#181818;stroke-width:1.0;" width="455" x="1506" y="356"/><text fill="#000000" font-family="sans-serif" font-size="14" font-weight="bold" lengthAdjust="spacing" textLength="112" x="1677.5" y="370.9951">Modify Wallet</text></g><!--cluster Delete Wallet--><g id="cluster_Delete Wallet"><rect fill="none" height="99" rx="2.5" ry="2.5" style="stroke:#181818;stroke-width:1.0;" width="425" x="1985" y="356"/><text fill="#000000" font-family="sans-serif" font-size="14" font-weight="bold" lengthAdjust="spacing" textLength="108" x="2143.5" y="370.9951">Delete Wallet</text></g><!--cluster Wallet Transaction Management--><g id="cluster_Wallet Transaction Management"><rect fill="none" height="99" rx="2.5" ry="2.5" style="stroke:#181818;stroke-width:1.0;" width="282" x="2458" y="356"/><text fill="#000000" font-family="sans-serif" font-size="14" font-weight="bold" lengthAdjust="spacing" textLength="266" x="2466" y="370.9951">Wallet Transaction Management</text></g><!--cluster Watchlist Management--><g id="cluster_Watchlist Management"><rect fill="none" height="99" rx="2.5" ry="2.5" style="stroke:#181818;stroke-width:1.0;" width="712" x="2764" y="356"/><text fill="#000000" font-family="sans-serif" font-size="14" font-weight="bold" lengthAdjust="spacing" textLength="189" x="3025.5" y="370.9951">Watchlist Management</text></g><!--cluster Transaction Tracking--><g id="cluster_Transaction Tracking"><rect fill="none" height="99" rx="2.5" ry="2.5" style="stroke:#181818;stroke-width:1.0;" width="242" x="3524" y="356"/><text fill="#000000" font-family="sans-serif" font-size="14" font-weight="bold" lengthAdjust="spacing" textLength="175" x="3557.5" y="370.9951">Transaction Tracking</text></g><!--cluster Data Visualization--><g id="cluster_Data Visualization"><rect fill="none" height="99" rx="2.5" ry="2.5" style="stroke:#181818;stroke-width:1.0;" width="184" x="3790" y="356"/><text fill="#000000" font-family="sans-serif" font-size="14" font-weight="bold" lengthAdjust="spacing" textLength="151" x="3806.5" y="370.9951">Data Visualization</text></g><!--class Validate Credentials--><g id="elem_Validate Credentials"><rect fill="#F1F1F1" height="48" id="Validate Credentials" rx="2.5" ry="2.5" style="stroke:#181818;stroke-width:0.5;" width="177" x="47.5" y="391"/><ellipse cx="62.5" cy="407" fill="#ADD1B2" rx="11" ry="11" style="stroke:#181818;stroke-width:1.0;"/><path d="M64.8438,402.6719 C63.9063,402.2344 63.3125,402.0938 62.4375,402.0938 C59.8125,402.0938 57.8125,404.1719 57.8125,406.8906 L57.8125,408.0156 C57.8125,410.5938 59.9219,412.4844 62.8125,412.4844 C64.0313,412.4844 65.1875,412.1875 65.9375,411.6406 C66.5156,411.2344 66.8438,410.7813 66.8438,410.3906 C66.8438,409.9375 66.4531,409.5469 65.9844,409.5469 C65.7656,409.5469 65.5625,409.625 65.375,409.8125 C64.9219,410.2969 64.9219,410.2969 64.7344,410.3906 C64.3125,410.6563 63.625,410.7813 62.8594,410.7813 C60.8125,410.7813 59.5156,409.6875 59.5156,407.9844 L59.5156,406.8906 C59.5156,405.1094 60.7656,403.7969 62.5,403.7969 C63.0781,403.7969 63.6875,403.9531 64.1563,404.2031 C64.6406,404.4844 64.8125,404.7031 64.9063,405.1094 C64.9688,405.5156 65,405.6406 65.1406,405.7656 C65.2813,405.9063 65.5156,406.0156 65.7344,406.0156 C66,406.0156 66.2656,405.875 66.4375,405.6563 C66.5469,405.5 66.5781,405.3125 66.5781,404.8906 L66.5781,403.4688 C66.5781,403.0313 66.5625,402.9063 66.4688,402.75 C66.3125,402.4844 66.0313,402.3438 65.7344,402.3438 C65.4375,402.3438 65.2344,402.4375 65.0156,402.75 L64.8438,402.6719 Z " fill="#000000"/><text fill="#000000" font-family="sans-serif" font-size="14" lengthAdjust="spacing" textLength="145" x="76.5" y="411.8467">Validate Credentials</text><line style="stroke:#181818;stroke-width:0.5;" x1="48.5" x2="223.5" y1="423" y2="423"/><line style="stroke:#181818;stroke-width:0.5;" x1="48.5" x2="223.5" y1="431" y2="431"/></g><!--class 2FA Implementation--><g id="elem_2FA Implementation"><rect fill="#F1F1F1" height="48" id="2FA Implementation" rx="2.5" ry="2.5" style="stroke:#181818;stroke-width:0.5;" width="179" x="259.5" y="391"/><ellipse cx="274.5" cy="407" fill="#ADD1B2" rx="11" ry="11" style="stroke:#181818;stroke-width:1.0;"/><path d="M276.8438,402.6719 C275.9063,402.2344 275.3125,402.0938 274.4375,402.0938 C271.8125,402.0938 269.8125,404.1719 269.8125,406.8906 L269.8125,408.0156 C269.8125,410.5938 271.9219,412.4844 274.8125,412.4844 C276.0313,412.4844 277.1875,412.1875 277.9375,411.6406 C278.5156,411.2344 278.8438,410.7813 278.8438,410.3906 C278.8438,409.9375 278.4531,409.5469 277.9844,409.5469 C277.7656,409.5469 277.5625,409.625 277.375,409.8125 C276.9219,410.2969 276.9219,410.2969 276.7344,410.3906 C276.3125,410.6563 275.625,410.7813 274.8594,410.7813 C272.8125,410.7813 271.5156,409.6875 271.5156,407.9844 L271.5156,406.8906 C271.5156,405.1094 272.7656,403.7969 274.5,403.7969 C275.0781,403.7969 275.6875,403.9531 276.1563,404.2031 C276.6406,404.4844 276.8125,404.7031 276.9063,405.1094 C276.9688,405.5156 277,405.6406 277.1406,405.7656 C277.2813,405.9063 277.5156,406.0156 277.7344,406.0156 C278,406.0156 278.2656,405.875 278.4375,405.6563 C278.5469,405.5 278.5781,405.3125 278.5781,404.8906 L278.5781,403.4688 C278.5781,403.0313 278.5625,402.9063 278.4688,402.75 C278.3125,402.4844 278.0313,402.3438 277.7344,402.3438 C277.4375,402.3438 277.2344,402.4375 277.0156,402.75 L276.8438,402.6719 Z " fill="#000000"/><text fill="#000000" font-family="sans-serif" font-size="14" lengthAdjust="spacing" textLength="147" x="288.5" y="411.8467">2FA Implementation</text><line style="stroke:#181818;stroke-width:0.5;" x1="260.5" x2="437.5" y1="423" y2="423"/><line style="stroke:#181818;stroke-width:0.5;" x1="260.5" x2="437.5" y1="431" y2="431"/></g><!--class Query Crypto Data--><g id="elem_Query Crypto Data"><rect fill="#F1F1F1" height="48" id="Query Crypto Data" rx="2.5" ry="2.5" style="stroke:#181818;stroke-width:0.5;" width="166" x="543" y="391"/><ellipse cx="558" cy="407" fill="#ADD1B2" rx="11" ry="11" style="stroke:#181818;stroke-width:1.0;"/><path d="M560.3438,402.6719 C559.4063,402.2344 558.8125,402.0938 557.9375,402.0938 C555.3125,402.0938 553.3125,404.1719 553.3125,406.8906 L553.3125,408.0156 C553.3125,410.5938 555.4219,412.4844 558.3125,412.4844 C559.5313,412.4844 560.6875,412.1875 561.4375,411.6406 C562.0156,411.2344 562.3438,410.7813 562.3438,410.3906 C562.3438,409.9375 561.9531,409.5469 561.4844,409.5469 C561.2656,409.5469 561.0625,409.625 560.875,409.8125 C560.4219,410.2969 560.4219,410.2969 560.2344,410.3906 C559.8125,410.6563 559.125,410.7813 558.3594,410.7813 C556.3125,410.7813 555.0156,409.6875 555.0156,407.9844 L555.0156,406.8906 C555.0156,405.1094 556.2656,403.7969 558,403.7969 C558.5781,403.7969 559.1875,403.9531 559.6563,404.2031 C560.1406,404.4844 560.3125,404.7031 560.4063,405.1094 C560.4688,405.5156 560.5,405.6406 560.6406,405.7656 C560.7813,405.9063 561.0156,406.0156 561.2344,406.0156 C561.5,406.0156 561.7656,405.875 561.9375,405.6563 C562.0469,405.5 562.0781,405.3125 562.0781,404.8906 L562.0781,403.4688 C562.0781,403.0313 562.0625,402.9063 561.9688,402.75 C561.8125,402.4844 561.5313,402.3438 561.2344,402.3438 C560.9375,402.3438 560.7344,402.4375 560.5156,402.75 L560.3438,402.6719 Z " fill="#000000"/><text fill="#000000" font-family="sans-serif" font-size="14" lengthAdjust="spacing" textLength="134" x="572" y="411.8467">Query Crypto Data</text><line style="stroke:#181818;stroke-width:0.5;" x1="544" x2="708" y1="423" y2="423"/><line style="stroke:#181818;stroke-width:0.5;" x1="544" x2="708" y1="431" y2="431"/></g><!--class Fetch Data from Exchanges--><g id="elem_Fetch Data from Exchanges"><rect fill="#F1F1F1" height="48" id="Fetch Data from Exchanges" rx="2.5" ry="2.5" style="stroke:#181818;stroke-width:0.5;" width="230" x="495" y="550"/><ellipse cx="510" cy="566" fill="#ADD1B2" rx="11" ry="11" style="stroke:#181818;stroke-width:1.0;"/><path d="M512.3438,561.6719 C511.4063,561.2344 510.8125,561.0938 509.9375,561.0938 C507.3125,561.0938 505.3125,563.1719 505.3125,565.8906 L505.3125,567.0156 C505.3125,569.5938 507.4219,571.4844 510.3125,571.4844 C511.5313,571.4844 512.6875,571.1875 513.4375,570.6406 C514.0156,570.2344 514.3438,569.7813 514.3438,569.3906 C514.3438,568.9375 513.9531,568.5469 513.4844,568.5469 C513.2656,568.5469 513.0625,568.625 512.875,568.8125 C512.4219,569.2969 512.4219,569.2969 512.2344,569.3906 C511.8125,569.6563 511.125,569.7813 510.3594,569.7813 C508.3125,569.7813 507.0156,568.6875 507.0156,566.9844 L507.0156,565.8906 C507.0156,564.1094 508.2656,562.7969 510,562.7969 C510.5781,562.7969 511.1875,562.9531 511.6563,563.2031 C512.1406,563.4844 512.3125,563.7031 512.4063,564.1094 C512.4688,564.5156 512.5,564.6406 512.6406,564.7656 C512.7813,564.9063 513.0156,565.0156 513.2344,565.0156 C513.5,565.0156 513.7656,564.875 513.9375,564.6563 C514.0469,564.5 514.0781,564.3125 514.0781,563.8906 L514.0781,562.4688 C514.0781,562.0313 514.0625,561.9063 513.9688,561.75 C513.8125,561.4844 513.5313,561.3438 513.2344,561.3438 C512.9375,561.3438 512.7344,561.4375 512.5156,561.75 L512.3438,561.6719 Z " fill="#000000"/><text fill="#000000" font-family="sans-serif" font-size="14" lengthAdjust="spacing" textLength="198" x="524" y="570.8467">Fetch Data from Exchanges</text><line style="stroke:#181818;stroke-width:0.5;" x1="496" x2="724" y1="582" y2="582"/><line style="stroke:#181818;stroke-width:0.5;" x1="496" x2="724" y1="590" y2="590"/></g><!--class Provide Wallet Details--><g id="elem_Provide Wallet Details"><rect fill="#F1F1F1" height="48" id="Provide Wallet Details" rx="2.5" ry="2.5" style="stroke:#181818;stroke-width:0.5;" width="190" x="829" y="391"/><ellipse cx="844" cy="407" fill="#ADD1B2" rx="11" ry="11" style="stroke:#181818;stroke-width:1.0;"/><path d="M846.3438,402.6719 C845.4063,402.2344 844.8125,402.0938 843.9375,402.0938 C841.3125,402.0938 839.3125,404.1719 839.3125,406.8906 L839.3125,408.0156 C839.3125,410.5938 841.4219,412.4844 844.3125,412.4844 C845.5313,412.4844 846.6875,412.1875 847.4375,411.6406 C848.0156,411.2344 848.3438,410.7813 848.3438,410.3906 C848.3438,409.9375 847.9531,409.5469 847.4844,409.5469 C847.2656,409.5469 847.0625,409.625 846.875,409.8125 C846.4219,410.2969 846.4219,410.2969 846.2344,410.3906 C845.8125,410.6563 845.125,410.7813 844.3594,410.7813 C842.3125,410.7813 841.0156,409.6875 841.0156,407.9844 L841.0156,406.8906 C841.0156,405.1094 842.2656,403.7969 844,403.7969 C844.5781,403.7969 845.1875,403.9531 845.6563,404.2031 C846.1406,404.4844 846.3125,404.7031 846.4063,405.1094 C846.4688,405.5156 846.5,405.6406 846.6406,405.7656 C846.7813,405.9063 847.0156,406.0156 847.2344,406.0156 C847.5,406.0156 847.7656,405.875 847.9375,405.6563 C848.0469,405.5 848.0781,405.3125 848.0781,404.8906 L848.0781,403.4688 C848.0781,403.0313 848.0625,402.9063 847.9688,402.75 C847.8125,402.4844 847.5313,402.3438 847.2344,402.3438 C846.9375,402.3438 846.7344,402.4375 846.5156,402.75 L846.3438,402.6719 Z " fill="#000000"/><text fill="#000000" font-family="sans-serif" font-size="14" lengthAdjust="spacing" textLength="158" x="858" y="411.8467">Provide Wallet Details</text><line style="stroke:#181818;stroke-width:0.5;" x1="830" x2="1018" y1="423" y2="423"/><line style="stroke:#181818;stroke-width:0.5;" x1="830" x2="1018" y1="431" y2="431"/></g><!--class Generate Wallet Address--><g id="elem_Generate Wallet Address"><rect fill="#F1F1F1" height="48" id="Generate Wallet Address" rx="2.5" ry="2.5" style="stroke:#181818;stroke-width:0.5;" width="211" x="1054.5" y="391"/><ellipse cx="1069.5" cy="407" fill="#ADD1B2" rx="11" ry="11" style="stroke:#181818;stroke-width:1.0;"/><path d="M1071.8438,402.6719 C1070.9063,402.2344 1070.3125,402.0938 1069.4375,402.0938 C1066.8125,402.0938 1064.8125,404.1719 1064.8125,406.8906 L1064.8125,408.0156 C1064.8125,410.5938 1066.9219,412.4844 1069.8125,412.4844 C1071.0313,412.4844 1072.1875,412.1875 1072.9375,411.6406 C1073.5156,411.2344 1073.8438,410.7813 1073.8438,410.3906 C1073.8438,409.9375 1073.4531,409.5469 1072.9844,409.5469 C1072.7656,409.5469 1072.5625,409.625 1072.375,409.8125 C1071.9219,410.2969 1071.9219,410.2969 1071.7344,410.3906 C1071.3125,410.6563 1070.625,410.7813 1069.8594,410.7813 C1067.8125,410.7813 1066.5156,409.6875 1066.5156,407.9844 L1066.5156,406.8906 C1066.5156,405.1094 1067.7656,403.7969 1069.5,403.7969 C1070.0781,403.7969 1070.6875,403.9531 1071.1563,404.2031 C1071.6406,404.4844 1071.8125,404.7031 1071.9063,405.1094 C1071.9688,405.5156 1072,405.6406 1072.1406,405.7656 C1072.2813,405.9063 1072.5156,406.0156 1072.7344,406.0156 C1073,406.0156 1073.2656,405.875 1073.4375,405.6563 C1073.5469,405.5 1073.5781,405.3125 1073.5781,404.8906 L1073.5781,403.4688 C1073.5781,403.0313 1073.5625,402.9063 1073.4688,402.75 C1073.3125,402.4844 1073.0313,402.3438 1072.7344,402.3438 C1072.4375,402.3438 1072.2344,402.4375 1072.0156,402.75 L1071.8438,402.6719 Z " fill="#000000"/><text fill="#000000" font-family="sans-serif" font-size="14" lengthAdjust="spacing" textLength="179" x="1083.5" y="411.8467">Generate Wallet Address</text><line style="stroke:#181818;stroke-width:0.5;" x1="1055.5" x2="1264.5" y1="423" y2="423"/><line style="stroke:#181818;stroke-width:0.5;" x1="1055.5" x2="1264.5" y1="431" y2="431"/></g><!--class Store Private Keys--><g id="elem_Store Private Keys"><rect fill="#F1F1F1" height="48" id="Store Private Keys" rx="2.5" ry="2.5" style="stroke:#181818;stroke-width:0.5;" width="165" x="1300.5" y="391"/><ellipse cx="1315.5" cy="407" fill="#ADD1B2" rx="11" ry="11" style="stroke:#181818;stroke-width:1.0;"/><path d="M1317.8438,402.6719 C1316.9063,402.2344 1316.3125,402.0938 1315.4375,402.0938 C1312.8125,402.0938 1310.8125,404.1719 1310.8125,406.8906 L1310.8125,408.0156 C1310.8125,410.5938 1312.9219,412.4844 1315.8125,412.4844 C1317.0313,412.4844 1318.1875,412.1875 1318.9375,411.6406 C1319.5156,411.2344 1319.8438,410.7813 1319.8438,410.3906 C1319.8438,409.9375 1319.4531,409.5469 1318.9844,409.5469 C1318.7656,409.5469 1318.5625,409.625 1318.375,409.8125 C1317.9219,410.2969 1317.9219,410.2969 1317.7344,410.3906 C1317.3125,410.6563 1316.625,410.7813 1315.8594,410.7813 C1313.8125,410.7813 1312.5156,409.6875 1312.5156,407.9844 L1312.5156,406.8906 C1312.5156,405.1094 1313.7656,403.7969 1315.5,403.7969 C1316.0781,403.7969 1316.6875,403.9531 1317.1563,404.2031 C1317.6406,404.4844 1317.8125,404.7031 1317.9063,405.1094 C1317.9688,405.5156 1318,405.6406 1318.1406,405.7656 C1318.2813,405.9063 1318.5156,406.0156 1318.7344,406.0156 C1319,406.0156 1319.2656,405.875 1319.4375,405.6563 C1319.5469,405.5 1319.5781,405.3125 1319.5781,404.8906 L1319.5781,403.4688 C1319.5781,403.0313 1319.5625,402.9063 1319.4688,402.75 C1319.3125,402.4844 1319.0313,402.3438 1318.7344,402.3438 C1318.4375,402.3438 1318.2344,402.4375 1318.0156,402.75 L1317.8438,402.6719 Z " fill="#000000"/><text fill="#000000" font-family="sans-serif" font-size="14" lengthAdjust="spacing" textLength="133" x="1329.5" y="411.8467">Store Private Keys</text><line style="stroke:#181818;stroke-width:0.5;" x1="1301.5" x2="1464.5" y1="423" y2="423"/><line style="stroke:#181818;stroke-width:0.5;" x1="1301.5" x2="1464.5" y1="431" y2="431"/></g><!--class Select Wallet to Modify--><g id="elem_Select Wallet to Modify"><rect fill="#F1F1F1" height="48" id="Select Wallet to Modify" rx="2.5" ry="2.5" style="stroke:#181818;stroke-width:0.5;" width="200" x="1522" y="391"/><ellipse cx="1537" cy="407" fill="#ADD1B2" rx="11" ry="11" style="stroke:#181818;stroke-width:1.0;"/><path d="M1539.3438,402.6719 C1538.4063,402.2344 1537.8125,402.0938 1536.9375,402.0938 C1534.3125,402.0938 1532.3125,404.1719 1532.3125,406.8906 L1532.3125,408.0156 C1532.3125,410.5938 1534.4219,412.4844 1537.3125,412.4844 C1538.5313,412.4844 1539.6875,412.1875 1540.4375,411.6406 C1541.0156,411.2344 1541.3438,410.7813 1541.3438,410.3906 C1541.3438,409.9375 1540.9531,409.5469 1540.4844,409.5469 C1540.2656,409.5469 1540.0625,409.625 1539.875,409.8125 C1539.4219,410.2969 1539.4219,410.2969 1539.2344,410.3906 C1538.8125,410.6563 1538.125,410.7813 1537.3594,410.7813 C1535.3125,410.7813 1534.0156,409.6875 1534.0156,407.9844 L1534.0156,406.8906 C1534.0156,405.1094 1535.2656,403.7969 1537,403.7969 C1537.5781,403.7969 1538.1875,403.9531 1538.6563,404.2031 C1539.1406,404.4844 1539.3125,404.7031 1539.4063,405.1094 C1539.4688,405.5156 1539.5,405.6406 1539.6406,405.7656 C1539.7813,405.9063 1540.0156,406.0156 1540.2344,406.0156 C1540.5,406.0156 1540.7656,405.875 1540.9375,405.6563 C1541.0469,405.5 1541.0781,405.3125 1541.0781,404.8906 L1541.0781,403.4688 C1541.0781,403.0313 1541.0625,402.9063 1540.9688,402.75 C1540.8125,402.4844 1540.5313,402.3438 1540.2344,402.3438 C1539.9375,402.3438 1539.7344,402.4375 1539.5156,402.75 L1539.3438,402.6719 Z " fill="#000000"/><text fill="#000000" font-family="sans-serif" font-size="14" lengthAdjust="spacing" textLength="168" x="1551" y="411.8467">Select Wallet to Modify</text><line style="stroke:#181818;stroke-width:0.5;" x1="1523" x2="1721" y1="423" y2="423"/><line style="stroke:#181818;stroke-width:0.5;" x1="1523" x2="1721" y1="431" y2="431"/></g><!--class Update Wallet Details--><g id="elem_Update Wallet Details"><rect fill="#F1F1F1" height="48" id="Update Wallet Details" rx="2.5" ry="2.5" style="stroke:#181818;stroke-width:0.5;" width="188" x="1757" y="391"/><ellipse cx="1772" cy="407" fill="#ADD1B2" rx="11" ry="11" style="stroke:#181818;stroke-width:1.0;"/><path d="M1774.3438,402.6719 C1773.4063,402.2344 1772.8125,402.0938 1771.9375,402.0938 C1769.3125,402.0938 1767.3125,404.1719 1767.3125,406.8906 L1767.3125,408.0156 C1767.3125,410.5938 1769.4219,412.4844 1772.3125,412.4844 C1773.5313,412.4844 1774.6875,412.1875 1775.4375,411.6406 C1776.0156,411.2344 1776.3438,410.7813 1776.3438,410.3906 C1776.3438,409.9375 1775.9531,409.5469 1775.4844,409.5469 C1775.2656,409.5469 1775.0625,409.625 1774.875,409.8125 C1774.4219,410.2969 1774.4219,410.2969 1774.2344,410.3906 C1773.8125,410.6563 1773.125,410.7813 1772.3594,410.7813 C1770.3125,410.7813 1769.0156,409.6875 1769.0156,407.9844 L1769.0156,406.8906 C1769.0156,405.1094 1770.2656,403.7969 1772,403.7969 C1772.5781,403.7969 1773.1875,403.9531 1773.6563,404.2031 C1774.1406,404.4844 1774.3125,404.7031 1774.4063,405.1094 C1774.4688,405.5156 1774.5,405.6406 1774.6406,405.7656 C1774.7813,405.9063 1775.0156,406.0156 1775.2344,406.0156 C1775.5,406.0156 1775.7656,405.875 1775.9375,405.6563 C1776.0469,405.5 1776.0781,405.3125 1776.0781,404.8906 L1776.0781,403.4688 C1776.0781,403.0313 1776.0625,402.9063 1775.9688,402.75 C1775.8125,402.4844 1775.5313,402.3438 1775.2344,402.3438 C1774.9375,402.3438 1774.7344,402.4375 1774.5156,402.75 L1774.3438,402.6719 Z " fill="#000000"/><text fill="#000000" font-family="sans-serif" font-size="14" lengthAdjust="spacing" textLength="156" x="1786" y="411.8467">Update Wallet Details</text><line style="stroke:#181818;stroke-width:0.5;" x1="1758" x2="1944" y1="423" y2="423"/><line style="stroke:#181818;stroke-width:0.5;" x1="1758" x2="1944" y1="431" y2="431"/></g><!--class Select Wallet to Delete--><g id="elem_Select Wallet to Delete"><rect fill="#F1F1F1" height="48" id="Select Wallet to Delete" rx="2.5" ry="2.5" style="stroke:#181818;stroke-width:0.5;" width="201" x="2001.5" y="391"/><ellipse cx="2016.5" cy="407" fill="#ADD1B2" rx="11" ry="11" style="stroke:#181818;stroke-width:1.0;"/><path d="M2018.8438,402.6719 C2017.9063,402.2344 2017.3125,402.0938 2016.4375,402.0938 C2013.8125,402.0938 2011.8125,404.1719 2011.8125,406.8906 L2011.8125,408.0156 C2011.8125,410.5938 2013.9219,412.4844 2016.8125,412.4844 C2018.0313,412.4844 2019.1875,412.1875 2019.9375,411.6406 C2020.5156,411.2344 2020.8438,410.7813 2020.8438,410.3906 C2020.8438,409.9375 2020.4531,409.5469 2019.9844,409.5469 C2019.7656,409.5469 2019.5625,409.625 2019.375,409.8125 C2018.9219,410.2969 2018.9219,410.2969 2018.7344,410.3906 C2018.3125,410.6563 2017.625,410.7813 2016.8594,410.7813 C2014.8125,410.7813 2013.5156,409.6875 2013.5156,407.9844 L2013.5156,406.8906 C2013.5156,405.1094 2014.7656,403.7969 2016.5,403.7969 C2017.0781,403.7969 2017.6875,403.9531 2018.1563,404.2031 C2018.6406,404.4844 2018.8125,404.7031 2018.9063,405.1094 C2018.9688,405.5156 2019,405.6406 2019.1406,405.7656 C2019.2813,405.9063 2019.5156,406.0156 2019.7344,406.0156 C2020,406.0156 2020.2656,405.875 2020.4375,405.6563 C2020.5469,405.5 2020.5781,405.3125 2020.5781,404.8906 L2020.5781,403.4688 C2020.5781,403.0313 2020.5625,402.9063 2020.4688,402.75 C2020.3125,402.4844 2020.0313,402.3438 2019.7344,402.3438 C2019.4375,402.3438 2019.2344,402.4375 2019.0156,402.75 L2018.8438,402.6719 Z " fill="#000000"/><text fill="#000000" font-family="sans-serif" font-size="14" lengthAdjust="spacing" textLength="169" x="2030.5" y="411.8467">Select Wallet to Delete</text><line style="stroke:#181818;stroke-width:0.5;" x1="2002.5" x2="2201.5" y1="423" y2="423"/><line style="stroke:#181818;stroke-width:0.5;" x1="2002.5" x2="2201.5" y1="431" y2="431"/></g><!--class Confirm Deletion--><g id="elem_Confirm Deletion"><rect fill="#F1F1F1" height="48" id="Confirm Deletion" rx="2.5" ry="2.5" style="stroke:#181818;stroke-width:0.5;" width="156" x="2238" y="391"/><ellipse cx="2253" cy="407" fill="#ADD1B2" rx="11" ry="11" style="stroke:#181818;stroke-width:1.0;"/><path d="M2255.3438,402.6719 C2254.4063,402.2344 2253.8125,402.0938 2252.9375,402.0938 C2250.3125,402.0938 2248.3125,404.1719 2248.3125,406.8906 L2248.3125,408.0156 C2248.3125,410.5938 2250.4219,412.4844 2253.3125,412.4844 C2254.5313,412.4844 2255.6875,412.1875 2256.4375,411.6406 C2257.0156,411.2344 2257.3438,410.7813 2257.3438,410.3906 C2257.3438,409.9375 2256.9531,409.5469 2256.4844,409.5469 C2256.2656,409.5469 2256.0625,409.625 2255.875,409.8125 C2255.4219,410.2969 2255.4219,410.2969 2255.2344,410.3906 C2254.8125,410.6563 2254.125,410.7813 2253.3594,410.7813 C2251.3125,410.7813 2250.0156,409.6875 2250.0156,407.9844 L2250.0156,406.8906 C2250.0156,405.1094 2251.2656,403.7969 2253,403.7969 C2253.5781,403.7969 2254.1875,403.9531 2254.6563,404.2031 C2255.1406,404.4844 2255.3125,404.7031 2255.4063,405.1094 C2255.4688,405.5156 2255.5,405.6406 2255.6406,405.7656 C2255.7813,405.9063 2256.0156,406.0156 2256.2344,406.0156 C2256.5,406.0156 2256.7656,405.875 2256.9375,405.6563 C2257.0469,405.5 2257.0781,405.3125 2257.0781,404.8906 L2257.0781,403.4688 C2257.0781,403.0313 2257.0625,402.9063 2256.9688,402.75 C2256.8125,402.4844 2256.5313,402.3438 2256.2344,402.3438 C2255.9375,402.3438 2255.7344,402.4375 2255.5156,402.75 L2255.3438,402.6719 Z " fill="#000000"/><text fill="#000000" font-family="sans-serif" font-size="14" lengthAdjust="spacing" textLength="124" x="2267" y="411.8467">Confirm Deletion</text><line style="stroke:#181818;stroke-width:0.5;" x1="2239" x2="2393" y1="423" y2="423"/><line style="stroke:#181818;stroke-width:0.5;" x1="2239" x2="2393" y1="431" y2="431"/></g><!--class Initiate Transactions--><g id="elem_Initiate Transactions"><rect fill="#F1F1F1" height="48" id="Initiate Transactions" rx="2.5" ry="2.5" style="stroke:#181818;stroke-width:0.5;" width="179" x="2474.5" y="391"/><ellipse cx="2489.5" cy="407" fill="#ADD1B2" rx="11" ry="11" style="stroke:#181818;stroke-width:1.0;"/><path d="M2491.8438,402.6719 C2490.9063,402.2344 2490.3125,402.0938 2489.4375,402.0938 C2486.8125,402.0938 2484.8125,404.1719 2484.8125,406.8906 L2484.8125,408.0156 C2484.8125,410.5938 2486.9219,412.4844 2489.8125,412.4844 C2491.0313,412.4844 2492.1875,412.1875 2492.9375,411.6406 C2493.5156,411.2344 2493.8438,410.7813 2493.8438,410.3906 C2493.8438,409.9375 2493.4531,409.5469 2492.9844,409.5469 C2492.7656,409.5469 2492.5625,409.625 2492.375,409.8125 C2491.9219,410.2969 2491.9219,410.2969 2491.7344,410.3906 C2491.3125,410.6563 2490.625,410.7813 2489.8594,410.7813 C2487.8125,410.7813 2486.5156,409.6875 2486.5156,407.9844 L2486.5156,406.8906 C2486.5156,405.1094 2487.7656,403.7969 2489.5,403.7969 C2490.0781,403.7969 2490.6875,403.9531 2491.1563,404.2031 C2491.6406,404.4844 2491.8125,404.7031 2491.9063,405.1094 C2491.9688,405.5156 2492,405.6406 2492.1406,405.7656 C2492.2813,405.9063 2492.5156,406.0156 2492.7344,406.0156 C2493,406.0156 2493.2656,405.875 2493.4375,405.6563 C2493.5469,405.5 2493.5781,405.3125 2493.5781,404.8906 L2493.5781,403.4688 C2493.5781,403.0313 2493.5625,402.9063 2493.4688,402.75 C2493.3125,402.4844 2493.0313,402.3438 2492.7344,402.3438 C2492.4375,402.3438 2492.2344,402.4375 2492.0156,402.75 L2491.8438,402.6719 Z " fill="#000000"/><text fill="#000000" font-family="sans-serif" font-size="14" lengthAdjust="spacing" textLength="147" x="2503.5" y="411.8467">Initiate Transactions</text><line style="stroke:#181818;stroke-width:0.5;" x1="2475.5" x2="2652.5" y1="423" y2="423"/><line style="stroke:#181818;stroke-width:0.5;" x1="2475.5" x2="2652.5" y1="431" y2="431"/></g><!--class Add Cryptos to Watchlist--><g id="elem_Add Cryptos to Watchlist"><rect fill="#F1F1F1" height="48" id="Add Cryptos to Watchlist" rx="2.5" ry="2.5" style="stroke:#181818;stroke-width:0.5;" width="213" x="2780.5" y="391"/><ellipse cx="2795.5" cy="407" fill="#ADD1B2" rx="11" ry="11" style="stroke:#181818;stroke-width:1.0;"/><path d="M2797.8438,402.6719 C2796.9063,402.2344 2796.3125,402.0938 2795.4375,402.0938 C2792.8125,402.0938 2790.8125,404.1719 2790.8125,406.8906 L2790.8125,408.0156 C2790.8125,410.5938 2792.9219,412.4844 2795.8125,412.4844 C2797.0313,412.4844 2798.1875,412.1875 2798.9375,411.6406 C2799.5156,411.2344 2799.8438,410.7813 2799.8438,410.3906 C2799.8438,409.9375 2799.4531,409.5469 2798.9844,409.5469 C2798.7656,409.5469 2798.5625,409.625 2798.375,409.8125 C2797.9219,410.2969 2797.9219,410.2969 2797.7344,410.3906 C2797.3125,410.6563 2796.625,410.7813 2795.8594,410.7813 C2793.8125,410.7813 2792.5156,409.6875 2792.5156,407.9844 L2792.5156,406.8906 C2792.5156,405.1094 2793.7656,403.7969 2795.5,403.7969 C2796.0781,403.7969 2796.6875,403.9531 2797.1563,404.2031 C2797.6406,404.4844 2797.8125,404.7031 2797.9063,405.1094 C2797.9688,405.5156 2798,405.6406 2798.1406,405.7656 C2798.2813,405.9063 2798.5156,406.0156 2798.7344,406.0156 C2799,406.0156 2799.2656,405.875 2799.4375,405.6563 C2799.5469,405.5 2799.5781,405.3125 2799.5781,404.8906 L2799.5781,403.4688 C2799.5781,403.0313 2799.5625,402.9063 2799.4688,402.75 C2799.3125,402.4844 2799.0313,402.3438 2798.7344,402.3438 C2798.4375,402.3438 2798.2344,402.4375 2798.0156,402.75 L2797.8438,402.6719 Z " fill="#000000"/><text fill="#000000" font-family="sans-serif" font-size="14" lengthAdjust="spacing" textLength="181" x="2809.5" y="411.8467">Add Cryptos to Watchlist</text><line style="stroke:#181818;stroke-width:0.5;" x1="2781.5" x2="2992.5" y1="423" y2="423"/><line style="stroke:#181818;stroke-width:0.5;" x1="2781.5" x2="2992.5" y1="431" y2="431"/></g><!--class Edit Watchlist--><g id="elem_Edit Watchlist"><rect fill="#F1F1F1" height="48" id="Edit Watchlist" rx="2.5" ry="2.5" style="stroke:#181818;stroke-width:0.5;" width="133" x="3028.5" y="391"/><ellipse cx="3043.5" cy="407" fill="#ADD1B2" rx="11" ry="11" style="stroke:#181818;stroke-width:1.0;"/><path d="M3045.8438,402.6719 C3044.9063,402.2344 3044.3125,402.0938 3043.4375,402.0938 C3040.8125,402.0938 3038.8125,404.1719 3038.8125,406.8906 L3038.8125,408.0156 C3038.8125,410.5938 3040.9219,412.4844 3043.8125,412.4844 C3045.0313,412.4844 3046.1875,412.1875 3046.9375,411.6406 C3047.5156,411.2344 3047.8438,410.7813 3047.8438,410.3906 C3047.8438,409.9375 3047.4531,409.5469 3046.9844,409.5469 C3046.7656,409.5469 3046.5625,409.625 3046.375,409.8125 C3045.9219,410.2969 3045.9219,410.2969 3045.7344,410.3906 C3045.3125,410.6563 3044.625,410.7813 3043.8594,410.7813 C3041.8125,410.7813 3040.5156,409.6875 3040.5156,407.9844 L3040.5156,406.8906 C3040.5156,405.1094 3041.7656,403.7969 3043.5,403.7969 C3044.0781,403.7969 3044.6875,403.9531 3045.1563,404.2031 C3045.6406,404.4844 3045.8125,404.7031 3045.9063,405.1094 C3045.9688,405.5156 3046,405.6406 3046.1406,405.7656 C3046.2813,405.9063 3046.5156,406.0156 3046.7344,406.0156 C3047,406.0156 3047.2656,405.875 3047.4375,405.6563 C3047.5469,405.5 3047.5781,405.3125 3047.5781,404.8906 L3047.5781,403.4688 C3047.5781,403.0313 3047.5625,402.9063 3047.4688,402.75 C3047.3125,402.4844 3047.0313,402.3438 3046.7344,402.3438 C3046.4375,402.3438 3046.2344,402.4375 3046.0156,402.75 L3045.8438,402.6719 Z " fill="#000000"/><text fill="#000000" font-family="sans-serif" font-size="14" lengthAdjust="spacing" textLength="101" x="3057.5" y="411.8467">Edit Watchlist</text><line style="stroke:#181818;stroke-width:0.5;" x1="3029.5" x2="3160.5" y1="423" y2="423"/><line style="stroke:#181818;stroke-width:0.5;" x1="3029.5" x2="3160.5" y1="431" y2="431"/></g><!--class Remove Cryptos from Watchlist--><g id="elem_Remove Cryptos from Watchlist"><rect fill="#F1F1F1" height="48" id="Remove Cryptos from Watchlist" rx="2.5" ry="2.5" style="stroke:#181818;stroke-width:0.5;" width="263" x="3196.5" y="391"/><ellipse cx="3211.5" cy="407" fill="#ADD1B2" rx="11" ry="11" style="stroke:#181818;stroke-width:1.0;"/><path d="M3213.8438,402.6719 C3212.9063,402.2344 3212.3125,402.0938 3211.4375,402.0938 C3208.8125,402.0938 3206.8125,404.1719 3206.8125,406.8906 L3206.8125,408.0156 C3206.8125,410.5938 3208.9219,412.4844 3211.8125,412.4844 C3213.0313,412.4844 3214.1875,412.1875 3214.9375,411.6406 C3215.5156,411.2344 3215.8438,410.7813 3215.8438,410.3906 C3215.8438,409.9375 3215.4531,409.5469 3214.9844,409.5469 C3214.7656,409.5469 3214.5625,409.625 3214.375,409.8125 C3213.9219,410.2969 3213.9219,410.2969 3213.7344,410.3906 C3213.3125,410.6563 3212.625,410.7813 3211.8594,410.7813 C3209.8125,410.7813 3208.5156,409.6875 3208.5156,407.9844 L3208.5156,406.8906 C3208.5156,405.1094 3209.7656,403.7969 3211.5,403.7969 C3212.0781,403.7969 3212.6875,403.9531 3213.1563,404.2031 C3213.6406,404.4844 3213.8125,404.7031 3213.9063,405.1094 C3213.9688,405.5156 3214,405.6406 3214.1406,405.7656 C3214.2813,405.9063 3214.5156,406.0156 3214.7344,406.0156 C3215,406.0156 3215.2656,405.875 3215.4375,405.6563 C3215.5469,405.5 3215.5781,405.3125 3215.5781,404.8906 L3215.5781,403.4688 C3215.5781,403.0313 3215.5625,402.9063 3215.4688,402.75 C3215.3125,402.4844 3215.0313,402.3438 3214.7344,402.3438 C3214.4375,402.3438 3214.2344,402.4375 3214.0156,402.75 L3213.8438,402.6719 Z " fill="#000000"/><text fill="#000000" font-family="sans-serif" font-size="14" lengthAdjust="spacing" textLength="231" x="3225.5" y="411.8467">Remove Cryptos from Watchlist</text><line style="stroke:#181818;stroke-width:0.5;" x1="3197.5" x2="3458.5" y1="423" y2="423"/><line style="stroke:#181818;stroke-width:0.5;" x1="3197.5" x2="3458.5" y1="431" y2="431"/></g><!--class View Transaction History--><g id="elem_View Transaction History"><rect fill="#F1F1F1" height="48" id="View Transaction History" rx="2.5" ry="2.5" style="stroke:#181818;stroke-width:0.5;" width="209" x="3540.5" y="391"/><ellipse cx="3555.5" cy="407" fill="#ADD1B2" rx="11" ry="11" style="stroke:#181818;stroke-width:1.0;"/><path d="M3557.8438,402.6719 C3556.9063,402.2344 3556.3125,402.0938 3555.4375,402.0938 C3552.8125,402.0938 3550.8125,404.1719 3550.8125,406.8906 L3550.8125,408.0156 C3550.8125,410.5938 3552.9219,412.4844 3555.8125,412.4844 C3557.0313,412.4844 3558.1875,412.1875 3558.9375,411.6406 C3559.5156,411.2344 3559.8438,410.7813 3559.8438,410.3906 C3559.8438,409.9375 3559.4531,409.5469 3558.9844,409.5469 C3558.7656,409.5469 3558.5625,409.625 3558.375,409.8125 C3557.9219,410.2969 3557.9219,410.2969 3557.7344,410.3906 C3557.3125,410.6563 3556.625,410.7813 3555.8594,410.7813 C3553.8125,410.7813 3552.5156,409.6875 3552.5156,407.9844 L3552.5156,406.8906 C3552.5156,405.1094 3553.7656,403.7969 3555.5,403.7969 C3556.0781,403.7969 3556.6875,403.9531 3557.1563,404.2031 C3557.6406,404.4844 3557.8125,404.7031 3557.9063,405.1094 C3557.9688,405.5156 3558,405.6406 3558.1406,405.7656 C3558.2813,405.9063 3558.5156,406.0156 3558.7344,406.0156 C3559,406.0156 3559.2656,405.875 3559.4375,405.6563 C3559.5469,405.5 3559.5781,405.3125 3559.5781,404.8906 L3559.5781,403.4688 C3559.5781,403.0313 3559.5625,402.9063 3559.4688,402.75 C3559.3125,402.4844 3559.0313,402.3438 3558.7344,402.3438 C3558.4375,402.3438 3558.2344,402.4375 3558.0156,402.75 L3557.8438,402.6719 Z " fill="#000000"/><text fill="#000000" font-family="sans-serif" font-size="14" lengthAdjust="spacing" textLength="177" x="3569.5" y="411.8467">View Transaction History</text><line style="stroke:#181818;stroke-width:0.5;" x1="3541.5" x2="3748.5" y1="423" y2="423"/><line style="stroke:#181818;stroke-width:0.5;" x1="3541.5" x2="3748.5" y1="431" y2="431"/></g><!--class Generate Charts--><g id="elem_Generate Charts"><rect fill="#F1F1F1" height="48" id="Generate Charts" rx="2.5" ry="2.5" style="stroke:#181818;stroke-width:0.5;" width="151" x="3806.5" y="391"/><ellipse cx="3821.5" cy="407" fill="#ADD1B2" rx="11" ry="11" style="stroke:#181818;stroke-width:1.0;"/><path d="M3823.8438,402.6719 C3822.9063,402.2344 3822.3125,402.0938 3821.4375,402.0938 C3818.8125,402.0938 3816.8125,404.1719 3816.8125,406.8906 L3816.8125,408.0156 C3816.8125,410.5938 3818.9219,412.4844 3821.8125,412.4844 C3823.0313,412.4844 3824.1875,412.1875 3824.9375,411.6406 C3825.5156,411.2344 3825.8438,410.7813 3825.8438,410.3906 C3825.8438,409.9375 3825.4531,409.5469 3824.9844,409.5469 C3824.7656,409.5469 3824.5625,409.625 3824.375,409.8125 C3823.9219,410.2969 3823.9219,410.2969 3823.7344,410.3906 C3823.3125,410.6563 3822.625,410.7813 3821.8594,410.7813 C3819.8125,410.7813 3818.5156,409.6875 3818.5156,407.9844 L3818.5156,406.8906 C3818.5156,405.1094 3819.7656,403.7969 3821.5,403.7969 C3822.0781,403.7969 3822.6875,403.9531 3823.1563,404.2031 C3823.6406,404.4844 3823.8125,404.7031 3823.9063,405.1094 C3823.9688,405.5156 3824,405.6406 3824.1406,405.7656 C3824.2813,405.9063 3824.5156,406.0156 3824.7344,406.0156 C3825,406.0156 3825.2656,405.875 3825.4375,405.6563 C3825.5469,405.5 3825.5781,405.3125 3825.5781,404.8906 L3825.5781,403.4688 C3825.5781,403.0313 3825.5625,402.9063 3825.4688,402.75 C3825.3125,402.4844 3825.0313,402.3438 3824.7344,402.3438 C3824.4375,402.3438 3824.2344,402.4375 3824.0156,402.75 L3823.8438,402.6719 Z " fill="#000000"/><text fill="#000000" font-family="sans-serif" font-size="14" lengthAdjust="spacing" textLength="119" x="3835.5" y="411.8467">Generate Charts</text><line style="stroke:#181818;stroke-width:0.5;" x1="3807.5" x2="3956.5" y1="423" y2="423"/><line style="stroke:#181818;stroke-width:0.5;" x1="3807.5" x2="3956.5" y1="431" y2="431"/></g><!--class User--><g id="elem_User"><rect codeLine="6" fill="#F1F1F1" height="48" id="User" rx="2.5" ry="2.5" style="stroke:#181818;stroke-width:0.5;" width="63" x="1944.5" y="132"/><ellipse cx="1959.5" cy="148" fill="#ADD1B2" rx="11" ry="11" style="stroke:#181818;stroke-width:1.0;"/><path d="M1961.8438,143.6719 C1960.9063,143.2344 1960.3125,143.0938 1959.4375,143.0938 C1956.8125,143.0938 1954.8125,145.1719 1954.8125,147.8906 L1954.8125,149.0156 C1954.8125,151.5938 1956.9219,153.4844 1959.8125,153.4844 C1961.0313,153.4844 1962.1875,153.1875 1962.9375,152.6406 C1963.5156,152.2344 1963.8438,151.7813 1963.8438,151.3906 C1963.8438,150.9375 1963.4531,150.5469 1962.9844,150.5469 C1962.7656,150.5469 1962.5625,150.625 1962.375,150.8125 C1961.9219,151.2969 1961.9219,151.2969 1961.7344,151.3906 C1961.3125,151.6563 1960.625,151.7813 1959.8594,151.7813 C1957.8125,151.7813 1956.5156,150.6875 1956.5156,148.9844 L1956.5156,147.8906 C1956.5156,146.1094 1957.7656,144.7969 1959.5,144.7969 C1960.0781,144.7969 1960.6875,144.9531 1961.1563,145.2031 C1961.6406,145.4844 1961.8125,145.7031 1961.9063,146.1094 C1961.9688,146.5156 1962,146.6406 1962.1406,146.7656 C1962.2813,146.9063 1962.5156,147.0156 1962.7344,147.0156 C1963,147.0156 1963.2656,146.875 1963.4375,146.6563 C1963.5469,146.5 1963.5781,146.3125 1963.5781,145.8906 L1963.5781,144.4688 C1963.5781,144.0313 1963.5625,143.9063 1963.4688,143.75 C1963.3125,143.4844 1963.0313,143.3438 1962.7344,143.3438 C1962.4375,143.3438 1962.2344,143.4375 1962.0156,143.75 L1961.8438,143.6719 Z " fill="#000000"/><text fill="#000000" font-family="sans-serif" font-size="14" lengthAdjust="spacing" textLength="31" x="1973.5" y="152.8467">User</text><line style="stroke:#181818;stroke-width:0.5;" x1="1945.5" x2="2006.5" y1="164" y2="164"/><line style="stroke:#181818;stroke-width:0.5;" x1="1945.5" x2="2006.5" y1="172" y2="172"/></g><!--class Admin--><g id="elem_Admin"><rect codeLine="7" fill="#F1F1F1" height="48" id="Admin" rx="2.5" ry="2.5" style="stroke:#181818;stroke-width:0.5;" width="78" x="1937" y="7"/><ellipse cx="1952" cy="23" fill="#ADD1B2" rx="11" ry="11" style="stroke:#181818;stroke-width:1.0;"/><path d="M1954.3438,18.6719 C1953.4063,18.2344 1952.8125,18.0938 1951.9375,18.0938 C1949.3125,18.0938 1947.3125,20.1719 1947.3125,22.8906 L1947.3125,24.0156 C1947.3125,26.5938 1949.4219,28.4844 1952.3125,28.4844 C1953.5313,28.4844 1954.6875,28.1875 1955.4375,27.6406 C1956.0156,27.2344 1956.3438,26.7813 1956.3438,26.3906 C1956.3438,25.9375 1955.9531,25.5469 1955.4844,25.5469 C1955.2656,25.5469 1955.0625,25.625 1954.875,25.8125 C1954.4219,26.2969 1954.4219,26.2969 1954.2344,26.3906 C1953.8125,26.6563 1953.125,26.7813 1952.3594,26.7813 C1950.3125,26.7813 1949.0156,25.6875 1949.0156,23.9844 L1949.0156,22.8906 C1949.0156,21.1094 1950.2656,19.7969 1952,19.7969 C1952.5781,19.7969 1953.1875,19.9531 1953.6563,20.2031 C1954.1406,20.4844 1954.3125,20.7031 1954.4063,21.1094 C1954.4688,21.5156 1954.5,21.6406 1954.6406,21.7656 C1954.7813,21.9063 1955.0156,22.0156 1955.2344,22.0156 C1955.5,22.0156 1955.7656,21.875 1955.9375,21.6563 C1956.0469,21.5 1956.0781,21.3125 1956.0781,20.8906 L1956.0781,19.4688 C1956.0781,19.0313 1956.0625,18.9063 1955.9688,18.75 C1955.8125,18.4844 1955.5313,18.3438 1955.2344,18.3438 C1954.9375,18.3438 1954.7344,18.4375 1954.5156,18.75 L1954.3438,18.6719 Z " fill="#000000"/><text fill="#000000" font-family="sans-serif" font-size="14" lengthAdjust="spacing" textLength="46" x="1966" y="27.8467">Admin</text><line style="stroke:#181818;stroke-width:0.5;" x1="1938" x2="2014" y1="39" y2="39"/><line style="stroke:#181818;stroke-width:0.5;" x1="1938" x2="2014" y1="47" y2="47"/></g><!--link Admin to User--><g id="link_Admin_User"><path codeLine="9" d="M1976,55.135 C1976,77.126 1976,104.012 1976,125.968 " fill="none" id="Admin-to-User" style="stroke:#181818;stroke-width:1.0;stroke-dasharray:7.0,7.0;"/><polygon fill="#181818" points="1976,131.968,1980,122.968,1976,126.968,1972,122.968,1976,131.968" style="stroke:#181818;stroke-width:1.0;"/><text fill="#000000" font-family="sans-serif" font-size="13" lengthAdjust="spacing" textLength="91" x="1977" y="98.0669">Admin Control</text></g><!--link User to Validate Credentials--><g id="link_User_Validate Credentials"><path codeLine="13" d="M1944.43,157.243 C1715.53,159.113 317.238,172.424 242,219 C179.095,257.942 152.312,342.321 142.157,384.996 " fill="none" id="User-to-Validate Credentials" style="stroke:#181818;stroke-width:1.0;stroke-dasharray:7.0,7.0;"/><polygon fill="#181818" points="140.768,390.833,146.7428,383.0035,141.9255,385.9688,138.9601,381.1515,140.768,390.833" style="stroke:#181818;stroke-width:1.0;"/></g><!--link User to 2FA Implementation--><g id="link_User_2FA Implementation"><path codeLine="14" d="M1944.2,157.501 C1733.5,160.925 545.112,181.838 479,219 C410.901,257.279 373.839,342.1751 358.558,385.0571 " fill="none" id="User-to-2FA Implementation" style="stroke:#181818;stroke-width:1.0;stroke-dasharray:7.0,7.0;"/><polygon fill="#181818" points="356.544,390.709,363.333,383.5739,358.2224,385.9991,355.7972,380.8885,356.544,390.709" style="stroke:#181818;stroke-width:1.0;"/></g><!--link User to Query Crypto Data--><g id="link_User_Query Crypto Data"><path codeLine="18" d="M1944.22,158.802 C1820.64,165.791 1360.24,191.68 981,211 C962.336,211.951 830.01,211.261 813,219 C730.813,256.391 669.6674,342.7181 642.8144,385.7691 " fill="none" id="User-to-Query Crypto Data" style="stroke:#181818;stroke-width:1.0;stroke-dasharray:7.0,7.0;"/><polygon fill="#181818" points="639.639,390.86,647.796,385.3407,642.2852,386.6176,641.0082,381.1068,639.639,390.86" style="stroke:#181818;stroke-width:1.0;"/></g><!--link Query Crypto Data to Fetch Data from Exchanges--><g id="link_Query Crypto Data_Fetch Data from Exchanges"><path codeLine="19" d="M623.639,439.166 C620.605,468.935 615.9783,514.3349 612.9523,544.0259 " fill="none" id="Query Crypto Data-to-Fetch Data from Exchanges" style="stroke:#181818;stroke-width:1.0;stroke-dasharray:7.0,7.0;"/><polygon fill="#181818" points="612.344,549.995,617.2359,541.4469,612.851,545.0208,609.2771,540.6358,612.344,549.995" style="stroke:#181818;stroke-width:1.0;"/></g><!--link User to Provide Wallet Details--><g id="link_User_Provide Wallet Details"><path codeLine="25" d="M1944.34,160.615 C1855.4,170.609 1595.63,198.683 1379,211 C1360.03,212.079 1053.35,209.319 1037,219 C972.353,257.269 942.678,342.0294 931.099,384.9144 " fill="none" id="User-to-Provide Wallet Details" style="stroke:#181818;stroke-width:1.0;stroke-dasharray:7.0,7.0;"/><polygon fill="#181818" points="929.535,390.707,935.7427,383.0608,930.8383,385.8799,928.0193,380.9755,929.535,390.707" style="stroke:#181818;stroke-width:1.0;"/></g><!--link User to Generate Wallet Address--><g id="link_User_Generate Wallet Address"><path codeLine="26" d="M1944.28,162.808 C1879.49,174.39 1727.15,200.172 1598,211 C1580.56,212.463 1298.22,210.352 1283,219 C1216.01,257.066 1182.0403,342.4268 1168.4003,385.2678 " fill="none" id="User-to-Generate Wallet Address" style="stroke:#181818;stroke-width:1.0;stroke-dasharray:7.0,7.0;"/><polygon fill="#181818" points="1166.58,390.985,1173.1219,383.6227,1168.0969,386.2207,1165.4989,381.1957,1166.58,390.985" style="stroke:#181818;stroke-width:1.0;"/></g><!--link User to Store Private Keys--><g id="link_User_Store Private Keys"><path codeLine="27" d="M1944.21,165.833 C1897.33,178.422 1806.7,201.095 1728,211 C1703.51,214.082 1527.4,206.692 1506,219 C1439.39,257.321 1405.3461,342.1359 1391.5661,385.0049 " fill="none" id="User-to-Store Private Keys" style="stroke:#181818;stroke-width:1.0;stroke-dasharray:7.0,7.0;"/><polygon fill="#181818" points="1389.73,390.717,1396.2923,383.3729,1391.2601,385.9569,1388.6761,380.9247,1389.73,390.717" style="stroke:#181818;stroke-width:1.0;"/></g><!--link User to Select Wallet to Modify--><g id="link_User_Select Wallet to Modify"><path codeLine="30" d="M1944.29,169.822 C1912.04,182.326 1860.34,200.893 1814,211 C1797.84,214.524 1753.95,210.114 1740,219 C1676.09,259.71 1643.554,342.9055 1630.324,385.1285 " fill="none" id="User-to-Select Wallet to Modify" style="stroke:#181818;stroke-width:1.0;stroke-dasharray:7.0,7.0;"/><polygon fill="#181818" points="1628.53,390.854,1635.038,383.4617,1630.025,386.0827,1627.404,381.0697,1628.53,390.854" style="stroke:#181818;stroke-width:1.0;"/></g><!--link User to Update Wallet Details--><g id="link_User_Update Wallet Details"><path codeLine="31" d="M1964.69,180.26 C1940.89,229.19 1888.5137,336.8601 1864.8237,385.5811 " fill="none" id="User-to-Update Wallet Details" style="stroke:#181818;stroke-width:1.0;stroke-dasharray:7.0,7.0;"/><polygon fill="#181818" points="1862.2,390.977,1869.7329,384.6322,1864.3864,386.4804,1862.5383,381.134,1862.2,390.977" style="stroke:#181818;stroke-width:1.0;"/></g><!--link User to Select Wallet to Delete--><g id="link_User_Select Wallet to Delete"><path codeLine="34" d="M1987.4,180.26 C2011.39,229.19 2064.1893,336.8684 2088.0693,385.5894 " fill="none" id="User-to-Select Wallet to Delete" style="stroke:#181818;stroke-width:1.0;stroke-dasharray:7.0,7.0;"/><polygon fill="#181818" points="2090.71,390.977,2090.3407,381.1351,2088.5094,386.4873,2083.1572,384.656,2090.71,390.977" style="stroke:#181818;stroke-width:1.0;"/></g><!--link User to Confirm Deletion--><g id="link_User_Confirm Deletion"><path codeLine="35" d="M2007.81,156.926 C2058.27,158.435 2157.35,168.227 2220,219 C2275.7,264.142 2300.2289,343.8488 2309.8789,384.9598 " fill="none" id="User-to-Confirm Deletion" style="stroke:#181818;stroke-width:1.0;stroke-dasharray:7.0,7.0;"/><polygon fill="#181818" points="2311.25,390.801,2313.0875,381.1251,2310.1074,385.9333,2305.2992,382.9532,2311.25,390.801" style="stroke:#181818;stroke-width:1.0;"/></g><!--link User to Initiate Transactions--><g id="link_User_Initiate Transactions"><path codeLine="39" d="M2007.54,158.491 C2095.42,163.111 2341.06,179.333 2410,219 C2481.6,260.199 2529.5834,343.5071 2550.5534,385.5781 " fill="none" id="User-to-Initiate Transactions" style="stroke:#181818;stroke-width:1.0;stroke-dasharray:7.0,7.0;"/><polygon fill="#181818" points="2553.23,390.948,2552.795,381.1088,2550.9995,386.4731,2545.6352,384.6775,2553.23,390.948" style="stroke:#181818;stroke-width:1.0;"/></g><!--link User to Add Cryptos to Watchlist--><g id="link_User_Add Cryptos to Watchlist"><path codeLine="42" d="M2007.69,157.198 C2127.01,158.344 2548.55,166.131 2670,219 C2759.17,257.815 2832.9706,343.3556 2866.1306,386.0696 " fill="none" id="User-to-Add Cryptos to Watchlist" style="stroke:#181818;stroke-width:1.0;stroke-dasharray:7.0,7.0;"/><polygon fill="#181818" points="2869.81,390.809,2867.4506,381.2469,2866.7439,386.8595,2861.1313,386.1527,2869.81,390.809" style="stroke:#181818;stroke-width:1.0;"/></g><!--link User to Edit Watchlist--><g id="link_User_Edit Watchlist"><path codeLine="43" d="M2007.69,156.947 C2172.48,156.931 2927.06,160.09 3011,219 C3068.78,259.551 3086.3362,342.6024 3091.9062,384.8754 " fill="none" id="User-to-Edit Watchlist" style="stroke:#181818;stroke-width:1.0;stroke-dasharray:7.0,7.0;"/><polygon fill="#181818" points="3092.69,390.824,3095.48,381.3786,3092.0368,385.8668,3087.5486,382.4237,3092.69,390.824" style="stroke:#181818;stroke-width:1.0;"/></g><!--link User to Remove Cryptos from Watchlist--><g id="link_User_Remove Cryptos from Watchlist"><path codeLine="44" d="M2007.71,157.047 C2187.33,157.523 3072.8,162.728 3179,219 C3251.28,257.301 3296.485,342.3677 3315.805,385.2427 " fill="none" id="User-to-Remove Cryptos from Watchlist" style="stroke:#181818;stroke-width:1.0;stroke-dasharray:7.0,7.0;"/><polygon fill="#181818" points="3318.27,390.713,3318.2194,380.8643,3316.2159,386.1544,3310.9257,384.1509,3318.27,390.713" style="stroke:#181818;stroke-width:1.0;"/></g><!--link User to View Transaction History--><g id="link_User_View Transaction History"><path codeLine="49" d="M2007.82,156.811 C2212.48,155.79 3339.45,153.204 3476,219 C3553.69,256.434 3607.253,342.5485 3630.453,385.5865 " fill="none" id="User-to-View Transaction History" style="stroke:#181818;stroke-width:1.0;stroke-dasharray:7.0,7.0;"/><polygon fill="#181818" points="3633.3,390.868,3632.5504,381.0477,3630.9275,386.4667,3625.5084,384.8438,3633.3,390.868" style="stroke:#181818;stroke-width:1.0;"/></g><!--link User to Generate Charts--><g id="link_User_Generate Charts"><path codeLine="53" d="M2007.82,157.238 C2241.66,159.094 3687.31,172.429 3766,219 C3831.09,257.52 3862.1342,342.181 3874.4242,384.987 " fill="none" id="User-to-Generate Charts" style="stroke:#181818;stroke-width:1.0;stroke-dasharray:7.0,7.0;"/><polygon fill="#181818" points="3876.08,390.754,3877.441,380.9996,3874.7002,385.9482,3869.7517,383.2073,3876.08,390.754" style="stroke:#181818;stroke-width:1.0;"/></g><!--SRC=[ZLJ1Zfim4Btp5RFSzz9Z3vKGORTHkyqMs5rLrQfoyH2iDNPaEsbfnR_NCOP0IDASi9ZtPjuyp_Y6Oia4Gl8bN-RVeE14w-36_tnCLt6IPQ2mC4IiEGwHHPH7Fx9ybKRt2L1Yo4-Y3z4eJLSlSFkT4bqXVRtz40G-_vD6rPyZMZCH1Eup1ZiGlE_Y44jXbEH1C8Y0C5RDnaXu8PoZWGSYo1fh50QoHXkiG_WRm20-TEcYhQaiWXN4C2aw17ILngN3PyAPxGSXLaZt1C9rU0RxxYw2PRtXhdQNroBRO5pSIrsAKghQOU2pb6_RpNa9NxUe6l34XVMsgt_Y_vHtXwQeN01A9Mj8VXULDGpre6fauSoxNi_KjhEmIOkuDwo37kAdMdjKSiTeZuK56i9wVqypxb6WEgItGq4LwekKp4XbPrUntPxt2Pi1tHvBVv2KbSrLqZFarhrUXhs1Zdj9oDE6ZfGVDJlJih05hhHnfgNZNj9YrwXagkwGVb8FCjhfrVl4kI92ay8DxQa9c5TP2cOtndOnelgEPoNii7AcpPMPxRtxqTVWLj_JmxECX39p3Ix5MkvmIEvMvuZMpjPwR8qz5szCh2yyAWn_JTpyQ5DBrSoV2xUzpqnlxJFqvpzFrR0QSKMKyLlU_WC0]--></g></svg>