<?xml version="1.0" encoding="us-ascii" standalone="no"?><svg xmlns="http://www.w3.org/2000/svg" xmlns:xlink="http://www.w3.org/1999/xlink" contentStyleType="text/css" height="510px" preserveAspectRatio="none" style="width:2037px;height:510px;background:#FFFFFF;" version="1.1" viewBox="0 0 2037 510" width="2037px" zoomAndPan="magnify"><defs/><g><!--cluster Crypto Wallet Management System--><g id="cluster_Crypto Wallet Management System"><rect fill="none" height="277" rx="2.5" ry="2.5" style="stroke:#181818;stroke-width:1.0;" width="2024" x="7" y="227"/><text fill="#000000" font-family="sans-serif" font-size="14" font-weight="bold" lengthAdjust="spacing" textLength="286" x="876" y="241.9951">Crypto Wallet Management System</text></g><!--cluster User Authentication--><g id="cluster_User Authentication"><rect fill="none" height="99" rx="2.5" ry="2.5" style="stroke:#181818;stroke-width:1.0;" width="424" x="31" y="270"/><text fill="#000000" font-family="sans-serif" font-size="14" font-weight="bold" lengthAdjust="spacing" textLength="164" x="161" y="284.9951">User Authentication</text></g><!--cluster Crypto Information Lookup--><g id="cluster_Crypto Information Lookup"><rect fill="none" height="210" rx="2.5" ry="2.5" style="stroke:#181818;stroke-width:1.0;" width="254" x="479" y="270"/><text fill="#000000" font-family="sans-serif" font-size="14" font-weight="bold" lengthAdjust="spacing" textLength="219" x="496.5" y="284.9951">Crypto Information Lookup</text></g><!--cluster Wallet Management--><g id="cluster_Wallet Management"><rect fill="none" height="99" rx="2.5" ry="2.5" style="stroke:#181818;stroke-width:1.0;" width="776" x="757" y="270"/><text fill="#000000" font-family="sans-serif" font-size="14" font-weight="bold" lengthAdjust="spacing" textLength="162" x="1064" y="284.9951">Wallet Management</text></g><!--cluster Transaction Tracking--><g id="cluster_Transaction Tracking"><rect fill="none" height="99" rx="2.5" ry="2.5" style="stroke:#181818;stroke-width:1.0;" width="242" x="1557" y="270"/><text fill="#000000" font-family="sans-serif" font-size="14" font-weight="bold" lengthAdjust="spacing" textLength="175" x="1590.5" y="284.9951">Transaction Tracking</text></g><!--cluster Data Visualization--><g id="cluster_Data Visualization"><rect fill="none" height="99" rx="2.5" ry="2.5" style="stroke:#181818;stroke-width:1.0;" width="184" x="1823" y="270"/><text fill="#000000" font-family="sans-serif" font-size="14" font-weight="bold" lengthAdjust="spacing" textLength="151" x="1839.5" y="284.9951">Data Visualization</text></g><!--class Validate Credentials--><g id="elem_Validate Credentials"><rect fill="#F1F1F1" height="48" id="Validate Credentials" rx="2.5" ry="2.5" style="stroke:#181818;stroke-width:0.5;" width="177" x="47.5" y="305"/><ellipse cx="62.5" cy="321" fill="#ADD1B2" rx="11" ry="11" style="stroke:#181818;stroke-width:1.0;"/><path d="M64.8438,316.6719 C63.9063,316.2344 63.3125,316.0938 62.4375,316.0938 C59.8125,316.0938 57.8125,318.1719 57.8125,320.8906 L57.8125,322.0156 C57.8125,324.5938 59.9219,326.4844 62.8125,326.4844 C64.0313,326.4844 65.1875,326.1875 65.9375,325.6406 C66.5156,325.2344 66.8438,324.7813 66.8438,324.3906 C66.8438,323.9375 66.4531,323.5469 65.9844,323.5469 C65.7656,323.5469 65.5625,323.625 65.375,323.8125 C64.9219,324.2969 64.9219,324.2969 64.7344,324.3906 C64.3125,324.6563 63.625,324.7813 62.8594,324.7813 C60.8125,324.7813 59.5156,323.6875 59.5156,321.9844 L59.5156,320.8906 C59.5156,319.1094 60.7656,317.7969 62.5,317.7969 C63.0781,317.7969 63.6875,317.9531 64.1563,318.2031 C64.6406,318.4844 64.8125,318.7031 64.9063,319.1094 C64.9688,319.5156 65,319.6406 65.1406,319.7656 C65.2813,319.9063 65.5156,320.0156 65.7344,320.0156 C66,320.0156 66.2656,319.875 66.4375,319.6563 C66.5469,319.5 66.5781,319.3125 66.5781,318.8906 L66.5781,317.4688 C66.5781,317.0313 66.5625,316.9063 66.4688,316.75 C66.3125,316.4844 66.0313,316.3438 65.7344,316.3438 C65.4375,316.3438 65.2344,316.4375 65.0156,316.75 L64.8438,316.6719 Z " fill="#000000"/><text fill="#000000" font-family="sans-serif" font-size="14" lengthAdjust="spacing" textLength="145" x="76.5" y="325.8467">Validate Credentials</text><line style="stroke:#181818;stroke-width:0.5;" x1="48.5" x2="223.5" y1="337" y2="337"/><line style="stroke:#181818;stroke-width:0.5;" x1="48.5" x2="223.5" y1="345" y2="345"/></g><!--class 2FA Implementation--><g id="elem_2FA Implementation"><rect fill="#F1F1F1" height="48" id="2FA Implementation" rx="2.5" ry="2.5" style="stroke:#181818;stroke-width:0.5;" width="179" x="259.5" y="305"/><ellipse cx="274.5" cy="321" fill="#ADD1B2" rx="11" ry="11" style="stroke:#181818;stroke-width:1.0;"/><path d="M276.8438,316.6719 C275.9063,316.2344 275.3125,316.0938 274.4375,316.0938 C271.8125,316.0938 269.8125,318.1719 269.8125,320.8906 L269.8125,322.0156 C269.8125,324.5938 271.9219,326.4844 274.8125,326.4844 C276.0313,326.4844 277.1875,326.1875 277.9375,325.6406 C278.5156,325.2344 278.8438,324.7813 278.8438,324.3906 C278.8438,323.9375 278.4531,323.5469 277.9844,323.5469 C277.7656,323.5469 277.5625,323.625 277.375,323.8125 C276.9219,324.2969 276.9219,324.2969 276.7344,324.3906 C276.3125,324.6563 275.625,324.7813 274.8594,324.7813 C272.8125,324.7813 271.5156,323.6875 271.5156,321.9844 L271.5156,320.8906 C271.5156,319.1094 272.7656,317.7969 274.5,317.7969 C275.0781,317.7969 275.6875,317.9531 276.1563,318.2031 C276.6406,318.4844 276.8125,318.7031 276.9063,319.1094 C276.9688,319.5156 277,319.6406 277.1406,319.7656 C277.2813,319.9063 277.5156,320.0156 277.7344,320.0156 C278,320.0156 278.2656,319.875 278.4375,319.6563 C278.5469,319.5 278.5781,319.3125 278.5781,318.8906 L278.5781,317.4688 C278.5781,317.0313 278.5625,316.9063 278.4688,316.75 C278.3125,316.4844 278.0313,316.3438 277.7344,316.3438 C277.4375,316.3438 277.2344,316.4375 277.0156,316.75 L276.8438,316.6719 Z " fill="#000000"/><text fill="#000000" font-family="sans-serif" font-size="14" lengthAdjust="spacing" textLength="147" x="288.5" y="325.8467">2FA Implementation</text><line style="stroke:#181818;stroke-width:0.5;" x1="260.5" x2="437.5" y1="337" y2="337"/><line style="stroke:#181818;stroke-width:0.5;" x1="260.5" x2="437.5" y1="345" y2="345"/></g><!--class Query Crypto Data--><g id="elem_Query Crypto Data"><rect fill="#F1F1F1" height="48" id="Query Crypto Data" rx="2.5" ry="2.5" style="stroke:#181818;stroke-width:0.5;" width="166" x="537" y="305"/><ellipse cx="552" cy="321" fill="#ADD1B2" rx="11" ry="11" style="stroke:#181818;stroke-width:1.0;"/><path d="M554.3438,316.6719 C553.4063,316.2344 552.8125,316.0938 551.9375,316.0938 C549.3125,316.0938 547.3125,318.1719 547.3125,320.8906 L547.3125,322.0156 C547.3125,324.5938 549.4219,326.4844 552.3125,326.4844 C553.5313,326.4844 554.6875,326.1875 555.4375,325.6406 C556.0156,325.2344 556.3438,324.7813 556.3438,324.3906 C556.3438,323.9375 555.9531,323.5469 555.4844,323.5469 C555.2656,323.5469 555.0625,323.625 554.875,323.8125 C554.4219,324.2969 554.4219,324.2969 554.2344,324.3906 C553.8125,324.6563 553.125,324.7813 552.3594,324.7813 C550.3125,324.7813 549.0156,323.6875 549.0156,321.9844 L549.0156,320.8906 C549.0156,319.1094 550.2656,317.7969 552,317.7969 C552.5781,317.7969 553.1875,317.9531 553.6563,318.2031 C554.1406,318.4844 554.3125,318.7031 554.4063,319.1094 C554.4688,319.5156 554.5,319.6406 554.6406,319.7656 C554.7813,319.9063 555.0156,320.0156 555.2344,320.0156 C555.5,320.0156 555.7656,319.875 555.9375,319.6563 C556.0469,319.5 556.0781,319.3125 556.0781,318.8906 L556.0781,317.4688 C556.0781,317.0313 556.0625,316.9063 555.9688,316.75 C555.8125,316.4844 555.5313,316.3438 555.2344,316.3438 C554.9375,316.3438 554.7344,316.4375 554.5156,316.75 L554.3438,316.6719 Z " fill="#000000"/><text fill="#000000" font-family="sans-serif" font-size="14" lengthAdjust="spacing" textLength="134" x="566" y="325.8467">Query Crypto Data</text><line style="stroke:#181818;stroke-width:0.5;" x1="538" x2="702" y1="337" y2="337"/><line style="stroke:#181818;stroke-width:0.5;" x1="538" x2="702" y1="345" y2="345"/></g><!--class Fetch Data from Database--><g id="elem_Fetch Data from Database"><rect fill="#F1F1F1" height="48" id="Fetch Data from Database" rx="2.5" ry="2.5" style="stroke:#181818;stroke-width:0.5;" width="222" x="495" y="416"/><ellipse cx="510" cy="432" fill="#ADD1B2" rx="11" ry="11" style="stroke:#181818;stroke-width:1.0;"/><path d="M512.3438,427.6719 C511.4063,427.2344 510.8125,427.0938 509.9375,427.0938 C507.3125,427.0938 505.3125,429.1719 505.3125,431.8906 L505.3125,433.0156 C505.3125,435.5938 507.4219,437.4844 510.3125,437.4844 C511.5313,437.4844 512.6875,437.1875 513.4375,436.6406 C514.0156,436.2344 514.3438,435.7813 514.3438,435.3906 C514.3438,434.9375 513.9531,434.5469 513.4844,434.5469 C513.2656,434.5469 513.0625,434.625 512.875,434.8125 C512.4219,435.2969 512.4219,435.2969 512.2344,435.3906 C511.8125,435.6563 511.125,435.7813 510.3594,435.7813 C508.3125,435.7813 507.0156,434.6875 507.0156,432.9844 L507.0156,431.8906 C507.0156,430.1094 508.2656,428.7969 510,428.7969 C510.5781,428.7969 511.1875,428.9531 511.6563,429.2031 C512.1406,429.4844 512.3125,429.7031 512.4063,430.1094 C512.4688,430.5156 512.5,430.6406 512.6406,430.7656 C512.7813,430.9063 513.0156,431.0156 513.2344,431.0156 C513.5,431.0156 513.7656,430.875 513.9375,430.6563 C514.0469,430.5 514.0781,430.3125 514.0781,429.8906 L514.0781,428.4688 C514.0781,428.0313 514.0625,427.9063 513.9688,427.75 C513.8125,427.4844 513.5313,427.3438 513.2344,427.3438 C512.9375,427.3438 512.7344,427.4375 512.5156,427.75 L512.3438,427.6719 Z " fill="#000000"/><text fill="#000000" font-family="sans-serif" font-size="14" lengthAdjust="spacing" textLength="190" x="524" y="436.8467">Fetch Data from Database</text><line style="stroke:#181818;stroke-width:0.5;" x1="496" x2="716" y1="448" y2="448"/><line style="stroke:#181818;stroke-width:0.5;" x1="496" x2="716" y1="456" y2="456"/></g><!--class User Wallet Management--><g id="elem_User Wallet Management"><rect fill="#F1F1F1" height="48" id="User Wallet Management" rx="2.5" ry="2.5" style="stroke:#181818;stroke-width:0.5;" width="211" x="773.5" y="305"/><ellipse cx="788.5" cy="321" fill="#ADD1B2" rx="11" ry="11" style="stroke:#181818;stroke-width:1.0;"/><path d="M790.8438,316.6719 C789.9063,316.2344 789.3125,316.0938 788.4375,316.0938 C785.8125,316.0938 783.8125,318.1719 783.8125,320.8906 L783.8125,322.0156 C783.8125,324.5938 785.9219,326.4844 788.8125,326.4844 C790.0313,326.4844 791.1875,326.1875 791.9375,325.6406 C792.5156,325.2344 792.8438,324.7813 792.8438,324.3906 C792.8438,323.9375 792.4531,323.5469 791.9844,323.5469 C791.7656,323.5469 791.5625,323.625 791.375,323.8125 C790.9219,324.2969 790.9219,324.2969 790.7344,324.3906 C790.3125,324.6563 789.625,324.7813 788.8594,324.7813 C786.8125,324.7813 785.5156,323.6875 785.5156,321.9844 L785.5156,320.8906 C785.5156,319.1094 786.7656,317.7969 788.5,317.7969 C789.0781,317.7969 789.6875,317.9531 790.1563,318.2031 C790.6406,318.4844 790.8125,318.7031 790.9063,319.1094 C790.9688,319.5156 791,319.6406 791.1406,319.7656 C791.2813,319.9063 791.5156,320.0156 791.7344,320.0156 C792,320.0156 792.2656,319.875 792.4375,319.6563 C792.5469,319.5 792.5781,319.3125 792.5781,318.8906 L792.5781,317.4688 C792.5781,317.0313 792.5625,316.9063 792.4688,316.75 C792.3125,316.4844 792.0313,316.3438 791.7344,316.3438 C791.4375,316.3438 791.2344,316.4375 791.0156,316.75 L790.8438,316.6719 Z " fill="#000000"/><text fill="#000000" font-family="sans-serif" font-size="14" lengthAdjust="spacing" textLength="179" x="802.5" y="325.8467">User Wallet Management</text><line style="stroke:#181818;stroke-width:0.5;" x1="774.5" x2="983.5" y1="337" y2="337"/><line style="stroke:#181818;stroke-width:0.5;" x1="774.5" x2="983.5" y1="345" y2="345"/></g><!--class Wallet Transaction Management--><g id="elem_Wallet Transaction Management"><rect fill="#F1F1F1" height="48" id="Wallet Transaction Management" rx="2.5" ry="2.5" style="stroke:#181818;stroke-width:0.5;" width="264" x="1020" y="305"/><ellipse cx="1035" cy="321" fill="#ADD1B2" rx="11" ry="11" style="stroke:#181818;stroke-width:1.0;"/><path d="M1037.3438,316.6719 C1036.4063,316.2344 1035.8125,316.0938 1034.9375,316.0938 C1032.3125,316.0938 1030.3125,318.1719 1030.3125,320.8906 L1030.3125,322.0156 C1030.3125,324.5938 1032.4219,326.4844 1035.3125,326.4844 C1036.5313,326.4844 1037.6875,326.1875 1038.4375,325.6406 C1039.0156,325.2344 1039.3438,324.7813 1039.3438,324.3906 C1039.3438,323.9375 1038.9531,323.5469 1038.4844,323.5469 C1038.2656,323.5469 1038.0625,323.625 1037.875,323.8125 C1037.4219,324.2969 1037.4219,324.2969 1037.2344,324.3906 C1036.8125,324.6563 1036.125,324.7813 1035.3594,324.7813 C1033.3125,324.7813 1032.0156,323.6875 1032.0156,321.9844 L1032.0156,320.8906 C1032.0156,319.1094 1033.2656,317.7969 1035,317.7969 C1035.5781,317.7969 1036.1875,317.9531 1036.6563,318.2031 C1037.1406,318.4844 1037.3125,318.7031 1037.4063,319.1094 C1037.4688,319.5156 1037.5,319.6406 1037.6406,319.7656 C1037.7813,319.9063 1038.0156,320.0156 1038.2344,320.0156 C1038.5,320.0156 1038.7656,319.875 1038.9375,319.6563 C1039.0469,319.5 1039.0781,319.3125 1039.0781,318.8906 L1039.0781,317.4688 C1039.0781,317.0313 1039.0625,316.9063 1038.9688,316.75 C1038.8125,316.4844 1038.5313,316.3438 1038.2344,316.3438 C1037.9375,316.3438 1037.7344,316.4375 1037.5156,316.75 L1037.3438,316.6719 Z " fill="#000000"/><text fill="#000000" font-family="sans-serif" font-size="14" lengthAdjust="spacing" textLength="232" x="1049" y="325.8467">Wallet Transaction Management</text><line style="stroke:#181818;stroke-width:0.5;" x1="1021" x2="1283" y1="337" y2="337"/><line style="stroke:#181818;stroke-width:0.5;" x1="1021" x2="1283" y1="345" y2="345"/></g><!--class Watchlist Management--><g id="elem_Watchlist Management"><rect fill="#F1F1F1" height="48" id="Watchlist Management" rx="2.5" ry="2.5" style="stroke:#181818;stroke-width:0.5;" width="198" x="1319" y="305"/><ellipse cx="1334" cy="321" fill="#ADD1B2" rx="11" ry="11" style="stroke:#181818;stroke-width:1.0;"/><path d="M1336.3438,316.6719 C1335.4063,316.2344 1334.8125,316.0938 1333.9375,316.0938 C1331.3125,316.0938 1329.3125,318.1719 1329.3125,320.8906 L1329.3125,322.0156 C1329.3125,324.5938 1331.4219,326.4844 1334.3125,326.4844 C1335.5313,326.4844 1336.6875,326.1875 1337.4375,325.6406 C1338.0156,325.2344 1338.3438,324.7813 1338.3438,324.3906 C1338.3438,323.9375 1337.9531,323.5469 1337.4844,323.5469 C1337.2656,323.5469 1337.0625,323.625 1336.875,323.8125 C1336.4219,324.2969 1336.4219,324.2969 1336.2344,324.3906 C1335.8125,324.6563 1335.125,324.7813 1334.3594,324.7813 C1332.3125,324.7813 1331.0156,323.6875 1331.0156,321.9844 L1331.0156,320.8906 C1331.0156,319.1094 1332.2656,317.7969 1334,317.7969 C1334.5781,317.7969 1335.1875,317.9531 1335.6563,318.2031 C1336.1406,318.4844 1336.3125,318.7031 1336.4063,319.1094 C1336.4688,319.5156 1336.5,319.6406 1336.6406,319.7656 C1336.7813,319.9063 1337.0156,320.0156 1337.2344,320.0156 C1337.5,320.0156 1337.7656,319.875 1337.9375,319.6563 C1338.0469,319.5 1338.0781,319.3125 1338.0781,318.8906 L1338.0781,317.4688 C1338.0781,317.0313 1338.0625,316.9063 1337.9688,316.75 C1337.8125,316.4844 1337.5313,316.3438 1337.2344,316.3438 C1336.9375,316.3438 1336.7344,316.4375 1336.5156,316.75 L1336.3438,316.6719 Z " fill="#000000"/><text fill="#000000" font-family="sans-serif" font-size="14" lengthAdjust="spacing" textLength="166" x="1348" y="325.8467">Watchlist Management</text><line style="stroke:#181818;stroke-width:0.5;" x1="1320" x2="1516" y1="337" y2="337"/><line style="stroke:#181818;stroke-width:0.5;" x1="1320" x2="1516" y1="345" y2="345"/></g><!--class View Transaction History--><g id="elem_View Transaction History"><rect fill="#F1F1F1" height="48" id="View Transaction History" rx="2.5" ry="2.5" style="stroke:#181818;stroke-width:0.5;" width="209" x="1573.5" y="305"/><ellipse cx="1588.5" cy="321" fill="#ADD1B2" rx="11" ry="11" style="stroke:#181818;stroke-width:1.0;"/><path d="M1590.8438,316.6719 C1589.9063,316.2344 1589.3125,316.0938 1588.4375,316.0938 C1585.8125,316.0938 1583.8125,318.1719 1583.8125,320.8906 L1583.8125,322.0156 C1583.8125,324.5938 1585.9219,326.4844 1588.8125,326.4844 C1590.0313,326.4844 1591.1875,326.1875 1591.9375,325.6406 C1592.5156,325.2344 1592.8438,324.7813 1592.8438,324.3906 C1592.8438,323.9375 1592.4531,323.5469 1591.9844,323.5469 C1591.7656,323.5469 1591.5625,323.625 1591.375,323.8125 C1590.9219,324.2969 1590.9219,324.2969 1590.7344,324.3906 C1590.3125,324.6563 1589.625,324.7813 1588.8594,324.7813 C1586.8125,324.7813 1585.5156,323.6875 1585.5156,321.9844 L1585.5156,320.8906 C1585.5156,319.1094 1586.7656,317.7969 1588.5,317.7969 C1589.0781,317.7969 1589.6875,317.9531 1590.1563,318.2031 C1590.6406,318.4844 1590.8125,318.7031 1590.9063,319.1094 C1590.9688,319.5156 1591,319.6406 1591.1406,319.7656 C1591.2813,319.9063 1591.5156,320.0156 1591.7344,320.0156 C1592,320.0156 1592.2656,319.875 1592.4375,319.6563 C1592.5469,319.5 1592.5781,319.3125 1592.5781,318.8906 L1592.5781,317.4688 C1592.5781,317.0313 1592.5625,316.9063 1592.4688,316.75 C1592.3125,316.4844 1592.0313,316.3438 1591.7344,316.3438 C1591.4375,316.3438 1591.2344,316.4375 1591.0156,316.75 L1590.8438,316.6719 Z " fill="#000000"/><text fill="#000000" font-family="sans-serif" font-size="14" lengthAdjust="spacing" textLength="177" x="1602.5" y="325.8467">View Transaction History</text><line style="stroke:#181818;stroke-width:0.5;" x1="1574.5" x2="1781.5" y1="337" y2="337"/><line style="stroke:#181818;stroke-width:0.5;" x1="1574.5" x2="1781.5" y1="345" y2="345"/></g><!--class Generate Charts--><g id="elem_Generate Charts"><rect fill="#F1F1F1" height="48" id="Generate Charts" rx="2.5" ry="2.5" style="stroke:#181818;stroke-width:0.5;" width="151" x="1839.5" y="305"/><ellipse cx="1854.5" cy="321" fill="#ADD1B2" rx="11" ry="11" style="stroke:#181818;stroke-width:1.0;"/><path d="M1856.8438,316.6719 C1855.9063,316.2344 1855.3125,316.0938 1854.4375,316.0938 C1851.8125,316.0938 1849.8125,318.1719 1849.8125,320.8906 L1849.8125,322.0156 C1849.8125,324.5938 1851.9219,326.4844 1854.8125,326.4844 C1856.0313,326.4844 1857.1875,326.1875 1857.9375,325.6406 C1858.5156,325.2344 1858.8438,324.7813 1858.8438,324.3906 C1858.8438,323.9375 1858.4531,323.5469 1857.9844,323.5469 C1857.7656,323.5469 1857.5625,323.625 1857.375,323.8125 C1856.9219,324.2969 1856.9219,324.2969 1856.7344,324.3906 C1856.3125,324.6563 1855.625,324.7813 1854.8594,324.7813 C1852.8125,324.7813 1851.5156,323.6875 1851.5156,321.9844 L1851.5156,320.8906 C1851.5156,319.1094 1852.7656,317.7969 1854.5,317.7969 C1855.0781,317.7969 1855.6875,317.9531 1856.1563,318.2031 C1856.6406,318.4844 1856.8125,318.7031 1856.9063,319.1094 C1856.9688,319.5156 1857,319.6406 1857.1406,319.7656 C1857.2813,319.9063 1857.5156,320.0156 1857.7344,320.0156 C1858,320.0156 1858.2656,319.875 1858.4375,319.6563 C1858.5469,319.5 1858.5781,319.3125 1858.5781,318.8906 L1858.5781,317.4688 C1858.5781,317.0313 1858.5625,316.9063 1858.4688,316.75 C1858.3125,316.4844 1858.0313,316.3438 1857.7344,316.3438 C1857.4375,316.3438 1857.2344,316.4375 1857.0156,316.75 L1856.8438,316.6719 Z " fill="#000000"/><text fill="#000000" font-family="sans-serif" font-size="14" lengthAdjust="spacing" textLength="119" x="1868.5" y="325.8467">Generate Charts</text><line style="stroke:#181818;stroke-width:0.5;" x1="1840.5" x2="1989.5" y1="337" y2="337"/><line style="stroke:#181818;stroke-width:0.5;" x1="1840.5" x2="1989.5" y1="345" y2="345"/></g><!--class User--><g id="elem_User"><rect codeLine="6" fill="#F1F1F1" height="48" id="User" rx="2.5" ry="2.5" style="stroke:#181818;stroke-width:0.5;" width="63" x="983.5" y="132"/><ellipse cx="998.5" cy="148" fill="#ADD1B2" rx="11" ry="11" style="stroke:#181818;stroke-width:1.0;"/><path d="M1000.8438,143.6719 C999.9063,143.2344 999.3125,143.0938 998.4375,143.0938 C995.8125,143.0938 993.8125,145.1719 993.8125,147.8906 L993.8125,149.0156 C993.8125,151.5938 995.9219,153.4844 998.8125,153.4844 C1000.0313,153.4844 1001.1875,153.1875 1001.9375,152.6406 C1002.5156,152.2344 1002.8438,151.7813 1002.8438,151.3906 C1002.8438,150.9375 1002.4531,150.5469 1001.9844,150.5469 C1001.7656,150.5469 1001.5625,150.625 1001.375,150.8125 C1000.9219,151.2969 1000.9219,151.2969 1000.7344,151.3906 C1000.3125,151.6563 999.625,151.7813 998.8594,151.7813 C996.8125,151.7813 995.5156,150.6875 995.5156,148.9844 L995.5156,147.8906 C995.5156,146.1094 996.7656,144.7969 998.5,144.7969 C999.0781,144.7969 999.6875,144.9531 1000.1563,145.2031 C1000.6406,145.4844 1000.8125,145.7031 1000.9063,146.1094 C1000.9688,146.5156 1001,146.6406 1001.1406,146.7656 C1001.2813,146.9063 1001.5156,147.0156 1001.7344,147.0156 C1002,147.0156 1002.2656,146.875 1002.4375,146.6563 C1002.5469,146.5 1002.5781,146.3125 1002.5781,145.8906 L1002.5781,144.4688 C1002.5781,144.0313 1002.5625,143.9063 1002.4688,143.75 C1002.3125,143.4844 1002.0313,143.3438 1001.7344,143.3438 C1001.4375,143.3438 1001.2344,143.4375 1001.0156,143.75 L1000.8438,143.6719 Z " fill="#000000"/><text fill="#000000" font-family="sans-serif" font-size="14" lengthAdjust="spacing" textLength="31" x="1012.5" y="152.8467">User</text><line style="stroke:#181818;stroke-width:0.5;" x1="984.5" x2="1045.5" y1="164" y2="164"/><line style="stroke:#181818;stroke-width:0.5;" x1="984.5" x2="1045.5" y1="172" y2="172"/></g><!--class Admin--><g id="elem_Admin"><rect codeLine="7" fill="#F1F1F1" height="48" id="Admin" rx="2.5" ry="2.5" style="stroke:#181818;stroke-width:0.5;" width="78" x="976" y="7"/><ellipse cx="991" cy="23" fill="#ADD1B2" rx="11" ry="11" style="stroke:#181818;stroke-width:1.0;"/><path d="M993.3438,18.6719 C992.4063,18.2344 991.8125,18.0938 990.9375,18.0938 C988.3125,18.0938 986.3125,20.1719 986.3125,22.8906 L986.3125,24.0156 C986.3125,26.5938 988.4219,28.4844 991.3125,28.4844 C992.5313,28.4844 993.6875,28.1875 994.4375,27.6406 C995.0156,27.2344 995.3438,26.7813 995.3438,26.3906 C995.3438,25.9375 994.9531,25.5469 994.4844,25.5469 C994.2656,25.5469 994.0625,25.625 993.875,25.8125 C993.4219,26.2969 993.4219,26.2969 993.2344,26.3906 C992.8125,26.6563 992.125,26.7813 991.3594,26.7813 C989.3125,26.7813 988.0156,25.6875 988.0156,23.9844 L988.0156,22.8906 C988.0156,21.1094 989.2656,19.7969 991,19.7969 C991.5781,19.7969 992.1875,19.9531 992.6563,20.2031 C993.1406,20.4844 993.3125,20.7031 993.4063,21.1094 C993.4688,21.5156 993.5,21.6406 993.6406,21.7656 C993.7813,21.9063 994.0156,22.0156 994.2344,22.0156 C994.5,22.0156 994.7656,21.875 994.9375,21.6563 C995.0469,21.5 995.0781,21.3125 995.0781,20.8906 L995.0781,19.4688 C995.0781,19.0313 995.0625,18.9063 994.9688,18.75 C994.8125,18.4844 994.5313,18.3438 994.2344,18.3438 C993.9375,18.3438 993.7344,18.4375 993.5156,18.75 L993.3438,18.6719 Z " fill="#000000"/><text fill="#000000" font-family="sans-serif" font-size="14" lengthAdjust="spacing" textLength="46" x="1005" y="27.8467">Admin</text><line style="stroke:#181818;stroke-width:0.5;" x1="977" x2="1053" y1="39" y2="39"/><line style="stroke:#181818;stroke-width:0.5;" x1="977" x2="1053" y1="47" y2="47"/></g><!--link Admin to User--><g id="link_Admin_User"><path codeLine="9" d="M1015,55.135 C1015,77.126 1015,104.012 1015,125.968 " fill="none" id="Admin-to-User" style="stroke:#181818;stroke-width:1.0;stroke-dasharray:7.0,7.0;"/><polygon fill="#181818" points="1015,131.968,1019,122.968,1015,126.968,1011,122.968,1015,131.968" style="stroke:#181818;stroke-width:1.0;"/><text fill="#000000" font-family="sans-serif" font-size="13" lengthAdjust="spacing" textLength="91" x="1016" y="98.0669">Admin Control</text></g><!--link User to Validate Credentials--><g id="link_User_Validate Credentials"><path codeLine="14" d="M983.153,156.609 C854.891,155.479 376.618,155.675 242,219 C201.872,237.876 172.1812,273.9896 154.1592,299.9766 " fill="none" id="User-to-Validate Credentials" style="stroke:#181818;stroke-width:1.0;stroke-dasharray:7.0,7.0;"/><polygon fill="#181818" points="150.74,304.907,159.1558,299.7909,153.5894,300.7983,152.5819,295.2319,150.74,304.907" style="stroke:#181818;stroke-width:1.0;"/></g><!--link User to 2FA Implementation--><g id="link_User_2FA Implementation"><path codeLine="15" d="M983.181,158.29 C882.302,162.75 570.852,179.464 479,219 C433.821,238.446 396.3006,274.467 372.8666,300.249 " fill="none" id="User-to-2FA Implementation" style="stroke:#181818;stroke-width:1.0;stroke-dasharray:7.0,7.0;"/><polygon fill="#181818" points="368.831,304.689,377.8445,300.7194,372.194,300.989,371.9245,295.3386,368.831,304.689" style="stroke:#181818;stroke-width:1.0;"/></g><!--link User to Query Crypto Data--><g id="link_User_Query Crypto Data"><path codeLine="19" d="M983.332,160.134 C933.134,166.062 833.178,181.83 757,219 C711.929,240.992 672.3377,275.725 646.8347,300.618 " fill="none" id="User-to-Query Crypto Data" style="stroke:#181818;stroke-width:1.0;stroke-dasharray:7.0,7.0;"/><polygon fill="#181818" points="642.541,304.809,651.7755,301.385,646.1191,301.3165,646.1875,295.6601,642.541,304.809" style="stroke:#181818;stroke-width:1.0;"/></g><!--link Query Crypto Data to Fetch Data from Database--><g id="link_Query Crypto Data_Fetch Data from Database"><path codeLine="20" d="M617.031,353.116 C614.655,371.614 612.1031,391.4769 609.7291,409.9659 " fill="none" id="Query Crypto Data-to-Fetch Data from Database" style="stroke:#181818;stroke-width:1.0;stroke-dasharray:7.0,7.0;"/><polygon fill="#181818" points="608.965,415.917,614.0786,407.4997,609.6018,410.9577,606.1438,406.4809,608.965,415.917" style="stroke:#181818;stroke-width:1.0;"/></g><!--link User to User Wallet Management--><g id="link_User_User Wallet Management"><path codeLine="24" d="M996.66,180.062 C970.702,212.698 927.2548,267.3272 901.2198,300.0612 " fill="none" id="User-to-User Wallet Management" style="stroke:#181818;stroke-width:1.0;stroke-dasharray:7.0,7.0;"/><polygon fill="#181818" points="897.485,304.757,906.2178,300.2031,900.5974,300.8438,899.9567,295.2233,897.485,304.757" style="stroke:#181818;stroke-width:1.0;"/></g><!--link User to Wallet Transaction Management--><g id="link_User_Wallet Transaction Management"><path codeLine="25" d="M1033.48,180.062 C1059.62,212.698 1103.3981,267.3408 1129.6281,300.0748 " fill="none" id="User-to-Wallet Transaction Management" style="stroke:#181818;stroke-width:1.0;stroke-dasharray:7.0,7.0;"/><polygon fill="#181818" points="1133.38,304.757,1130.8736,295.2324,1130.2534,300.8551,1124.6307,300.2349,1133.38,304.757" style="stroke:#181818;stroke-width:1.0;"/></g><!--link User to Watchlist Management--><g id="link_User_Watchlist Management"><path codeLine="26" d="M1046.59,158.341 C1101.53,161.827 1216.93,174.328 1302,219 C1342.61,240.327 1375.5049,275.2044 1396.3049,300.3414 " fill="none" id="User-to-Watchlist Management" style="stroke:#181818;stroke-width:1.0;stroke-dasharray:7.0,7.0;"/><polygon fill="#181818" points="1400.13,304.964,1397.4741,295.48,1396.9424,301.1118,1391.3106,300.5801,1400.13,304.964" style="stroke:#181818;stroke-width:1.0;"/></g><!--link User to View Transaction History--><g id="link_User_View Transaction History"><path codeLine="30" d="M1046.7,158.637 C1145.03,164.048 1443.59,183.096 1533,219 C1581.81,238.599 1624.322,274.8471 1650.992,300.5781 " fill="none" id="User-to-View Transaction History" style="stroke:#181818;stroke-width:1.0;stroke-dasharray:7.0,7.0;"/><polygon fill="#181818" points="1655.31,304.744,1651.6103,295.6164,1651.7117,301.2724,1646.0557,301.3737,1655.31,304.744" style="stroke:#181818;stroke-width:1.0;"/></g><!--link User to Generate Charts--><g id="link_User_Generate Charts"><path codeLine="34" d="M1046.78,156.738 C1175.9,156.096 1660.88,157.879 1799,219 C1841.46,237.787 1874.4704,274.1188 1894.6704,300.1358 " fill="none" id="User-to-Generate Charts" style="stroke:#181818;stroke-width:1.0;stroke-dasharray:7.0,7.0;"/><polygon fill="#181818" points="1898.35,304.875,1895.9901,295.3131,1895.2837,300.9256,1889.6711,300.2192,1898.35,304.875" style="stroke:#181818;stroke-width:1.0;"/></g><!--SRC=[ZL9DJyCm3BtdLtYzxyAH0rBLVJ096BHb4q88cTPRewN9bAH21Us_awLbT9G1frZsytlFTWOvhRWa6D-ai_G1Ce76i46Rl8tdqJX9G5DcKQu57IgZC0sVatGUXzCnv6Zn1SrNDOpZ-HA6ZpcQWlAduGLZBV-z8VqPXtd99MF-wO8z2CwREaHAMgq4O-pW0e98rrkhO8b2a8LhbBYcagI5f3QMoW3U6HpS1vulh6pX43n3ovLi4D18TRM31Ghk1YA8DENx1XGcE84zcuGmAxV2QpUy3hbZNV7Mwaokb2uz1gwKsbJRqnRkAj8rj8qZjzn6_uVyST-4R5Ru0goqAdsqlqlVL6znfytuJ1z_0jq2KutIOEQd_K-Jyosu-IvmxBdBwU9im-NwbpDoUZsoSUdubQxxl7vV2sugT_YtFpx7b2Hf_paArDOqPBiF]--></g></svg>