<?xml version="1.0" encoding="us-ascii" standalone="no"?><svg xmlns="http://www.w3.org/2000/svg" xmlns:xlink="http://www.w3.org/1999/xlink" contentStyleType="text/css" height="551px" preserveAspectRatio="none" style="width:4611px;height:551px;background:#FFFFFF;" version="1.1" viewBox="0 0 4611 551" width="4611px" zoomAndPan="magnify"><defs/><g><!--cluster Crypto Wallet Management System--><g id="cluster_Crypto Wallet Management System"><rect fill="none" height="427" rx="2.5" ry="2.5" style="stroke:#181818;stroke-width:1.0;" width="3990.995" x="614.0758" y="118"/><text fill="#000000" font-family="sans-serif" font-size="14" font-weight="bold" lengthAdjust="spacing" textLength="286" x="2466.5733" y="132.9951">Crypto Wallet Management System</text></g><!--cluster User Authentication--><g id="cluster_User Authentication"><rect fill="none" height="99" rx="2.5" ry="2.5" style="stroke:#181818;stroke-width:1.0;" width="423.995" x="638.0758" y="247"/><text fill="#000000" font-family="sans-serif" font-size="14" font-weight="bold" lengthAdjust="spacing" textLength="164" x="768.0733" y="261.9951">User Authentication</text></g><!--cluster Crypto Information Lookup--><g id="cluster_Crypto Information Lookup"><rect fill="none" height="274" rx="2.5" ry="2.5" style="stroke:#181818;stroke-width:1.0;" width="262" x="1086.0708" y="247"/><text fill="#000000" font-family="sans-serif" font-size="14" font-weight="bold" lengthAdjust="spacing" textLength="219" x="1107.5708" y="261.9951">Crypto Information Lookup</text></g><!--cluster Wallet Management--><g id="cluster_Wallet Management"><rect fill="none" height="233" rx="2.5" ry="2.5" style="stroke:#181818;stroke-width:1.0;" width="2735" x="1372.0708" y="161"/><text fill="#000000" font-family="sans-serif" font-size="14" font-weight="bold" lengthAdjust="spacing" textLength="162" x="2658.5708" y="175.9951">Wallet Management</text></g><!--cluster User Wallet Management--><g id="cluster_User Wallet Management"><rect fill="none" height="166" rx="2.5" ry="2.5" style="stroke:#181818;stroke-width:1.0;" width="1645" x="1396.0708" y="204"/><text fill="#000000" font-family="sans-serif" font-size="14" font-weight="bold" lengthAdjust="spacing" textLength="203" x="2117.0708" y="218.9951">User Wallet Management</text></g><!--cluster Create Wallet--><g id="cluster_Create Wallet"><rect fill="none" height="99" rx="2.5" ry="2.5" style="stroke:#181818;stroke-width:1.0;" width="669" x="1420.0708" y="247"/><text fill="#000000" font-family="sans-serif" font-size="14" font-weight="bold" lengthAdjust="spacing" textLength="110" x="1699.5708" y="261.9951">Create Wallet</text></g><!--cluster Modify Wallet--><g id="cluster_Modify Wallet"><rect fill="none" height="99" rx="2.5" ry="2.5" style="stroke:#181818;stroke-width:1.0;" width="455" x="2113.0708" y="247"/><text fill="#000000" font-family="sans-serif" font-size="14" font-weight="bold" lengthAdjust="spacing" textLength="112" x="2284.5708" y="261.9951">Modify Wallet</text></g><!--cluster Delete Wallet--><g id="cluster_Delete Wallet"><rect fill="none" height="99" rx="2.5" ry="2.5" style="stroke:#181818;stroke-width:1.0;" width="425" x="2592.0708" y="247"/><text fill="#000000" font-family="sans-serif" font-size="14" font-weight="bold" lengthAdjust="spacing" textLength="108" x="2750.5708" y="261.9951">Delete Wallet</text></g><!--cluster Wallet Transaction Management--><g id="cluster_Wallet Transaction Management"><rect fill="none" height="99" rx="2.5" ry="2.5" style="stroke:#181818;stroke-width:1.0;" width="282" x="3065.0708" y="247"/><text fill="#000000" font-family="sans-serif" font-size="14" font-weight="bold" lengthAdjust="spacing" textLength="266" x="3073.0708" y="261.9951">Wallet Transaction Management</text></g><!--cluster Watchlist Management--><g id="cluster_Watchlist Management"><rect fill="none" height="99" rx="2.5" ry="2.5" style="stroke:#181818;stroke-width:1.0;" width="712" x="3371.0708" y="247"/><text fill="#000000" font-family="sans-serif" font-size="14" font-weight="bold" lengthAdjust="spacing" textLength="189" x="3632.5708" y="261.9951">Watchlist Management</text></g><!--cluster Transaction Tracking--><g id="cluster_Transaction Tracking"><rect fill="none" height="99" rx="2.5" ry="2.5" style="stroke:#181818;stroke-width:1.0;" width="242" x="4131.0708" y="247"/><text fill="#000000" font-family="sans-serif" font-size="14" font-weight="bold" lengthAdjust="spacing" textLength="175" x="4164.5708" y="261.9951">Transaction Tracking</text></g><!--cluster Data Visualization--><g id="cluster_Data Visualization"><rect fill="none" height="99" rx="2.5" ry="2.5" style="stroke:#181818;stroke-width:1.0;" width="184" x="4397.0708" y="247"/><text fill="#000000" font-family="sans-serif" font-size="14" font-weight="bold" lengthAdjust="spacing" textLength="151" x="4413.5708" y="261.9951">Data Visualization</text></g><!--class Validate Credentials--><g id="elem_Validate Credentials"><rect fill="#F1F1F1" height="48" id="Validate Credentials" rx="2.5" ry="2.5" style="stroke:#181818;stroke-width:0.5;" width="177" x="654.5758" y="282"/><ellipse cx="669.5758" cy="298" fill="#ADD1B2" rx="11" ry="11" style="stroke:#181818;stroke-width:1.0;"/><path d="M671.9196,293.6719 C670.9821,293.2344 670.3883,293.0938 669.5133,293.0938 C666.8883,293.0938 664.8883,295.1719 664.8883,297.8906 L664.8883,299.0156 C664.8883,301.5938 666.9977,303.4844 669.8883,303.4844 C671.1071,303.4844 672.2633,303.1875 673.0133,302.6406 C673.5914,302.2344 673.9196,301.7813 673.9196,301.3906 C673.9196,300.9375 673.5289,300.5469 673.0602,300.5469 C672.8414,300.5469 672.6383,300.625 672.4508,300.8125 C671.9977,301.2969 671.9977,301.2969 671.8102,301.3906 C671.3883,301.6563 670.7008,301.7813 669.9352,301.7813 C667.8883,301.7813 666.5914,300.6875 666.5914,298.9844 L666.5914,297.8906 C666.5914,296.1094 667.8414,294.7969 669.5758,294.7969 C670.1539,294.7969 670.7633,294.9531 671.2321,295.2031 C671.7164,295.4844 671.8883,295.7031 671.9821,296.1094 C672.0446,296.5156 672.0758,296.6406 672.2164,296.7656 C672.3571,296.9063 672.5914,297.0156 672.8102,297.0156 C673.0758,297.0156 673.3414,296.875 673.5133,296.6563 C673.6227,296.5 673.6539,296.3125 673.6539,295.8906 L673.6539,294.4688 C673.6539,294.0313 673.6383,293.9063 673.5446,293.75 C673.3883,293.4844 673.1071,293.3438 672.8102,293.3438 C672.5133,293.3438 672.3102,293.4375 672.0914,293.75 L671.9196,293.6719 Z " fill="#000000"/><text fill="#000000" font-family="sans-serif" font-size="14" lengthAdjust="spacing" textLength="145" x="683.5758" y="302.8467">Validate Credentials</text><line style="stroke:#181818;stroke-width:0.5;" x1="655.5758" x2="830.5758" y1="314" y2="314"/><line style="stroke:#181818;stroke-width:0.5;" x1="655.5758" x2="830.5758" y1="322" y2="322"/></g><!--class 2FA Implementation--><g id="elem_2FA Implementation"><rect fill="#F1F1F1" height="48" id="2FA Implementation" rx="2.5" ry="2.5" style="stroke:#181818;stroke-width:0.5;" width="179" x="866.5758" y="282"/><ellipse cx="881.5758" cy="298" fill="#ADD1B2" rx="11" ry="11" style="stroke:#181818;stroke-width:1.0;"/><path d="M883.9196,293.6719 C882.9821,293.2344 882.3883,293.0938 881.5133,293.0938 C878.8883,293.0938 876.8883,295.1719 876.8883,297.8906 L876.8883,299.0156 C876.8883,301.5938 878.9977,303.4844 881.8883,303.4844 C883.1071,303.4844 884.2633,303.1875 885.0133,302.6406 C885.5914,302.2344 885.9196,301.7813 885.9196,301.3906 C885.9196,300.9375 885.5289,300.5469 885.0602,300.5469 C884.8414,300.5469 884.6383,300.625 884.4508,300.8125 C883.9977,301.2969 883.9977,301.2969 883.8102,301.3906 C883.3883,301.6563 882.7008,301.7813 881.9352,301.7813 C879.8883,301.7813 878.5914,300.6875 878.5914,298.9844 L878.5914,297.8906 C878.5914,296.1094 879.8414,294.7969 881.5758,294.7969 C882.1539,294.7969 882.7633,294.9531 883.2321,295.2031 C883.7164,295.4844 883.8883,295.7031 883.9821,296.1094 C884.0446,296.5156 884.0758,296.6406 884.2164,296.7656 C884.3571,296.9063 884.5914,297.0156 884.8102,297.0156 C885.0758,297.0156 885.3414,296.875 885.5133,296.6563 C885.6227,296.5 885.6539,296.3125 885.6539,295.8906 L885.6539,294.4688 C885.6539,294.0313 885.6383,293.9063 885.5446,293.75 C885.3883,293.4844 885.1071,293.3438 884.8102,293.3438 C884.5133,293.3438 884.3102,293.4375 884.0914,293.75 L883.9196,293.6719 Z " fill="#000000"/><text fill="#000000" font-family="sans-serif" font-size="14" lengthAdjust="spacing" textLength="147" x="895.5758" y="302.8467">2FA Implementation</text><line style="stroke:#181818;stroke-width:0.5;" x1="867.5758" x2="1044.5758" y1="314" y2="314"/><line style="stroke:#181818;stroke-width:0.5;" x1="867.5758" x2="1044.5758" y1="322" y2="322"/></g><!--class Query Crypto Data--><g id="elem_Query Crypto Data"><rect fill="#F1F1F1" height="48" id="Query Crypto Data" rx="2.5" ry="2.5" style="stroke:#181818;stroke-width:0.5;" width="166" x="1150.0708" y="282"/><ellipse cx="1165.0708" cy="298" fill="#ADD1B2" rx="11" ry="11" style="stroke:#181818;stroke-width:1.0;"/><path d="M1167.4146,293.6719 C1166.4771,293.2344 1165.8833,293.0938 1165.0083,293.0938 C1162.3833,293.0938 1160.3833,295.1719 1160.3833,297.8906 L1160.3833,299.0156 C1160.3833,301.5938 1162.4927,303.4844 1165.3833,303.4844 C1166.6021,303.4844 1167.7583,303.1875 1168.5083,302.6406 C1169.0864,302.2344 1169.4146,301.7813 1169.4146,301.3906 C1169.4146,300.9375 1169.0239,300.5469 1168.5552,300.5469 C1168.3364,300.5469 1168.1333,300.625 1167.9458,300.8125 C1167.4927,301.2969 1167.4927,301.2969 1167.3052,301.3906 C1166.8833,301.6563 1166.1958,301.7813 1165.4302,301.7813 C1163.3833,301.7813 1162.0864,300.6875 1162.0864,298.9844 L1162.0864,297.8906 C1162.0864,296.1094 1163.3364,294.7969 1165.0708,294.7969 C1165.6489,294.7969 1166.2583,294.9531 1166.7271,295.2031 C1167.2114,295.4844 1167.3833,295.7031 1167.4771,296.1094 C1167.5396,296.5156 1167.5708,296.6406 1167.7114,296.7656 C1167.8521,296.9063 1168.0864,297.0156 1168.3052,297.0156 C1168.5708,297.0156 1168.8364,296.875 1169.0083,296.6563 C1169.1177,296.5 1169.1489,296.3125 1169.1489,295.8906 L1169.1489,294.4688 C1169.1489,294.0313 1169.1333,293.9063 1169.0396,293.75 C1168.8833,293.4844 1168.6021,293.3438 1168.3052,293.3438 C1168.0083,293.3438 1167.8052,293.4375 1167.5864,293.75 L1167.4146,293.6719 Z " fill="#000000"/><text fill="#000000" font-family="sans-serif" font-size="14" lengthAdjust="spacing" textLength="134" x="1179.0708" y="302.8467">Query Crypto Data</text><line style="stroke:#181818;stroke-width:0.5;" x1="1151.0708" x2="1315.0708" y1="314" y2="314"/><line style="stroke:#181818;stroke-width:0.5;" x1="1151.0708" x2="1315.0708" y1="322" y2="322"/></g><!--class Fetch Data from Exchanges--><g id="elem_Fetch Data from Exchanges"><rect fill="#F1F1F1" height="48" id="Fetch Data from Exchanges" rx="2.5" ry="2.5" style="stroke:#181818;stroke-width:0.5;" width="230" x="1102.0708" y="457"/><ellipse cx="1117.0708" cy="473" fill="#ADD1B2" rx="11" ry="11" style="stroke:#181818;stroke-width:1.0;"/><path d="M1119.4146,468.6719 C1118.4771,468.2344 1117.8833,468.0938 1117.0083,468.0938 C1114.3833,468.0938 1112.3833,470.1719 1112.3833,472.8906 L1112.3833,474.0156 C1112.3833,476.5938 1114.4927,478.4844 1117.3833,478.4844 C1118.6021,478.4844 1119.7583,478.1875 1120.5083,477.6406 C1121.0864,477.2344 1121.4146,476.7813 1121.4146,476.3906 C1121.4146,475.9375 1121.0239,475.5469 1120.5552,475.5469 C1120.3364,475.5469 1120.1333,475.625 1119.9458,475.8125 C1119.4927,476.2969 1119.4927,476.2969 1119.3052,476.3906 C1118.8833,476.6563 1118.1958,476.7813 1117.4302,476.7813 C1115.3833,476.7813 1114.0864,475.6875 1114.0864,473.9844 L1114.0864,472.8906 C1114.0864,471.1094 1115.3364,469.7969 1117.0708,469.7969 C1117.6489,469.7969 1118.2583,469.9531 1118.7271,470.2031 C1119.2114,470.4844 1119.3833,470.7031 1119.4771,471.1094 C1119.5396,471.5156 1119.5708,471.6406 1119.7114,471.7656 C1119.8521,471.9063 1120.0864,472.0156 1120.3052,472.0156 C1120.5708,472.0156 1120.8364,471.875 1121.0083,471.6563 C1121.1177,471.5 1121.1489,471.3125 1121.1489,470.8906 L1121.1489,469.4688 C1121.1489,469.0313 1121.1333,468.9063 1121.0396,468.75 C1120.8833,468.4844 1120.6021,468.3438 1120.3052,468.3438 C1120.0083,468.3438 1119.8052,468.4375 1119.5864,468.75 L1119.4146,468.6719 Z " fill="#000000"/><text fill="#000000" font-family="sans-serif" font-size="14" lengthAdjust="spacing" textLength="198" x="1131.0708" y="477.8467">Fetch Data from Exchanges</text><line style="stroke:#181818;stroke-width:0.5;" x1="1103.0708" x2="1331.0708" y1="489" y2="489"/><line style="stroke:#181818;stroke-width:0.5;" x1="1103.0708" x2="1331.0708" y1="497" y2="497"/></g><!--class Provide Wallet Details--><g id="elem_Provide Wallet Details"><rect fill="#F1F1F1" height="48" id="Provide Wallet Details" rx="2.5" ry="2.5" style="stroke:#181818;stroke-width:0.5;" width="190" x="1436.0708" y="282"/><ellipse cx="1451.0708" cy="298" fill="#ADD1B2" rx="11" ry="11" style="stroke:#181818;stroke-width:1.0;"/><path d="M1453.4146,293.6719 C1452.4771,293.2344 1451.8833,293.0938 1451.0083,293.0938 C1448.3833,293.0938 1446.3833,295.1719 1446.3833,297.8906 L1446.3833,299.0156 C1446.3833,301.5938 1448.4927,303.4844 1451.3833,303.4844 C1452.6021,303.4844 1453.7583,303.1875 1454.5083,302.6406 C1455.0864,302.2344 1455.4146,301.7813 1455.4146,301.3906 C1455.4146,300.9375 1455.0239,300.5469 1454.5552,300.5469 C1454.3364,300.5469 1454.1333,300.625 1453.9458,300.8125 C1453.4927,301.2969 1453.4927,301.2969 1453.3052,301.3906 C1452.8833,301.6563 1452.1958,301.7813 1451.4302,301.7813 C1449.3833,301.7813 1448.0864,300.6875 1448.0864,298.9844 L1448.0864,297.8906 C1448.0864,296.1094 1449.3364,294.7969 1451.0708,294.7969 C1451.6489,294.7969 1452.2583,294.9531 1452.7271,295.2031 C1453.2114,295.4844 1453.3833,295.7031 1453.4771,296.1094 C1453.5396,296.5156 1453.5708,296.6406 1453.7114,296.7656 C1453.8521,296.9063 1454.0864,297.0156 1454.3052,297.0156 C1454.5708,297.0156 1454.8364,296.875 1455.0083,296.6563 C1455.1177,296.5 1455.1489,296.3125 1455.1489,295.8906 L1455.1489,294.4688 C1455.1489,294.0313 1455.1333,293.9063 1455.0396,293.75 C1454.8833,293.4844 1454.6021,293.3438 1454.3052,293.3438 C1454.0083,293.3438 1453.8052,293.4375 1453.5864,293.75 L1453.4146,293.6719 Z " fill="#000000"/><text fill="#000000" font-family="sans-serif" font-size="14" lengthAdjust="spacing" textLength="158" x="1465.0708" y="302.8467">Provide Wallet Details</text><line style="stroke:#181818;stroke-width:0.5;" x1="1437.0708" x2="1625.0708" y1="314" y2="314"/><line style="stroke:#181818;stroke-width:0.5;" x1="1437.0708" x2="1625.0708" y1="322" y2="322"/></g><!--class Generate Wallet Address--><g id="elem_Generate Wallet Address"><rect fill="#F1F1F1" height="48" id="Generate Wallet Address" rx="2.5" ry="2.5" style="stroke:#181818;stroke-width:0.5;" width="211" x="1661.5708" y="282"/><ellipse cx="1676.5708" cy="298" fill="#ADD1B2" rx="11" ry="11" style="stroke:#181818;stroke-width:1.0;"/><path d="M1678.9146,293.6719 C1677.9771,293.2344 1677.3833,293.0938 1676.5083,293.0938 C1673.8833,293.0938 1671.8833,295.1719 1671.8833,297.8906 L1671.8833,299.0156 C1671.8833,301.5938 1673.9927,303.4844 1676.8833,303.4844 C1678.1021,303.4844 1679.2583,303.1875 1680.0083,302.6406 C1680.5864,302.2344 1680.9146,301.7813 1680.9146,301.3906 C1680.9146,300.9375 1680.5239,300.5469 1680.0552,300.5469 C1679.8364,300.5469 1679.6333,300.625 1679.4458,300.8125 C1678.9927,301.2969 1678.9927,301.2969 1678.8052,301.3906 C1678.3833,301.6563 1677.6958,301.7813 1676.9302,301.7813 C1674.8833,301.7813 1673.5864,300.6875 1673.5864,298.9844 L1673.5864,297.8906 C1673.5864,296.1094 1674.8364,294.7969 1676.5708,294.7969 C1677.1489,294.7969 1677.7583,294.9531 1678.2271,295.2031 C1678.7114,295.4844 1678.8833,295.7031 1678.9771,296.1094 C1679.0396,296.5156 1679.0708,296.6406 1679.2114,296.7656 C1679.3521,296.9063 1679.5864,297.0156 1679.8052,297.0156 C1680.0708,297.0156 1680.3364,296.875 1680.5083,296.6563 C1680.6177,296.5 1680.6489,296.3125 1680.6489,295.8906 L1680.6489,294.4688 C1680.6489,294.0313 1680.6333,293.9063 1680.5396,293.75 C1680.3833,293.4844 1680.1021,293.3438 1679.8052,293.3438 C1679.5083,293.3438 1679.3052,293.4375 1679.0864,293.75 L1678.9146,293.6719 Z " fill="#000000"/><text fill="#000000" font-family="sans-serif" font-size="14" lengthAdjust="spacing" textLength="179" x="1690.5708" y="302.8467">Generate Wallet Address</text><line style="stroke:#181818;stroke-width:0.5;" x1="1662.5708" x2="1871.5708" y1="314" y2="314"/><line style="stroke:#181818;stroke-width:0.5;" x1="1662.5708" x2="1871.5708" y1="322" y2="322"/></g><!--class Store Private Keys--><g id="elem_Store Private Keys"><rect fill="#F1F1F1" height="48" id="Store Private Keys" rx="2.5" ry="2.5" style="stroke:#181818;stroke-width:0.5;" width="165" x="1907.5708" y="282"/><ellipse cx="1922.5708" cy="298" fill="#ADD1B2" rx="11" ry="11" style="stroke:#181818;stroke-width:1.0;"/><path d="M1924.9146,293.6719 C1923.9771,293.2344 1923.3833,293.0938 1922.5083,293.0938 C1919.8833,293.0938 1917.8833,295.1719 1917.8833,297.8906 L1917.8833,299.0156 C1917.8833,301.5938 1919.9927,303.4844 1922.8833,303.4844 C1924.1021,303.4844 1925.2583,303.1875 1926.0083,302.6406 C1926.5864,302.2344 1926.9146,301.7813 1926.9146,301.3906 C1926.9146,300.9375 1926.5239,300.5469 1926.0552,300.5469 C1925.8364,300.5469 1925.6333,300.625 1925.4458,300.8125 C1924.9927,301.2969 1924.9927,301.2969 1924.8052,301.3906 C1924.3833,301.6563 1923.6958,301.7813 1922.9302,301.7813 C1920.8833,301.7813 1919.5864,300.6875 1919.5864,298.9844 L1919.5864,297.8906 C1919.5864,296.1094 1920.8364,294.7969 1922.5708,294.7969 C1923.1489,294.7969 1923.7583,294.9531 1924.2271,295.2031 C1924.7114,295.4844 1924.8833,295.7031 1924.9771,296.1094 C1925.0396,296.5156 1925.0708,296.6406 1925.2114,296.7656 C1925.3521,296.9063 1925.5864,297.0156 1925.8052,297.0156 C1926.0708,297.0156 1926.3364,296.875 1926.5083,296.6563 C1926.6177,296.5 1926.6489,296.3125 1926.6489,295.8906 L1926.6489,294.4688 C1926.6489,294.0313 1926.6333,293.9063 1926.5396,293.75 C1926.3833,293.4844 1926.1021,293.3438 1925.8052,293.3438 C1925.5083,293.3438 1925.3052,293.4375 1925.0864,293.75 L1924.9146,293.6719 Z " fill="#000000"/><text fill="#000000" font-family="sans-serif" font-size="14" lengthAdjust="spacing" textLength="133" x="1936.5708" y="302.8467">Store Private Keys</text><line style="stroke:#181818;stroke-width:0.5;" x1="1908.5708" x2="2071.5708" y1="314" y2="314"/><line style="stroke:#181818;stroke-width:0.5;" x1="1908.5708" x2="2071.5708" y1="322" y2="322"/></g><!--class Select Wallet to Modify--><g id="elem_Select Wallet to Modify"><rect fill="#F1F1F1" height="48" id="Select Wallet to Modify" rx="2.5" ry="2.5" style="stroke:#181818;stroke-width:0.5;" width="200" x="2129.0708" y="282"/><ellipse cx="2144.0708" cy="298" fill="#ADD1B2" rx="11" ry="11" style="stroke:#181818;stroke-width:1.0;"/><path d="M2146.4146,293.6719 C2145.4771,293.2344 2144.8833,293.0938 2144.0083,293.0938 C2141.3833,293.0938 2139.3833,295.1719 2139.3833,297.8906 L2139.3833,299.0156 C2139.3833,301.5938 2141.4927,303.4844 2144.3833,303.4844 C2145.6021,303.4844 2146.7583,303.1875 2147.5083,302.6406 C2148.0864,302.2344 2148.4146,301.7813 2148.4146,301.3906 C2148.4146,300.9375 2148.0239,300.5469 2147.5552,300.5469 C2147.3364,300.5469 2147.1333,300.625 2146.9458,300.8125 C2146.4927,301.2969 2146.4927,301.2969 2146.3052,301.3906 C2145.8833,301.6563 2145.1958,301.7813 2144.4302,301.7813 C2142.3833,301.7813 2141.0864,300.6875 2141.0864,298.9844 L2141.0864,297.8906 C2141.0864,296.1094 2142.3364,294.7969 2144.0708,294.7969 C2144.6489,294.7969 2145.2583,294.9531 2145.7271,295.2031 C2146.2114,295.4844 2146.3833,295.7031 2146.4771,296.1094 C2146.5396,296.5156 2146.5708,296.6406 2146.7114,296.7656 C2146.8521,296.9063 2147.0864,297.0156 2147.3052,297.0156 C2147.5708,297.0156 2147.8364,296.875 2148.0083,296.6563 C2148.1177,296.5 2148.1489,296.3125 2148.1489,295.8906 L2148.1489,294.4688 C2148.1489,294.0313 2148.1333,293.9063 2148.0396,293.75 C2147.8833,293.4844 2147.6021,293.3438 2147.3052,293.3438 C2147.0083,293.3438 2146.8052,293.4375 2146.5864,293.75 L2146.4146,293.6719 Z " fill="#000000"/><text fill="#000000" font-family="sans-serif" font-size="14" lengthAdjust="spacing" textLength="168" x="2158.0708" y="302.8467">Select Wallet to Modify</text><line style="stroke:#181818;stroke-width:0.5;" x1="2130.0708" x2="2328.0708" y1="314" y2="314"/><line style="stroke:#181818;stroke-width:0.5;" x1="2130.0708" x2="2328.0708" y1="322" y2="322"/></g><!--class Update Wallet Details--><g id="elem_Update Wallet Details"><rect fill="#F1F1F1" height="48" id="Update Wallet Details" rx="2.5" ry="2.5" style="stroke:#181818;stroke-width:0.5;" width="188" x="2364.0708" y="282"/><ellipse cx="2379.0708" cy="298" fill="#ADD1B2" rx="11" ry="11" style="stroke:#181818;stroke-width:1.0;"/><path d="M2381.4146,293.6719 C2380.4771,293.2344 2379.8833,293.0938 2379.0083,293.0938 C2376.3833,293.0938 2374.3833,295.1719 2374.3833,297.8906 L2374.3833,299.0156 C2374.3833,301.5938 2376.4927,303.4844 2379.3833,303.4844 C2380.6021,303.4844 2381.7583,303.1875 2382.5083,302.6406 C2383.0864,302.2344 2383.4146,301.7813 2383.4146,301.3906 C2383.4146,300.9375 2383.0239,300.5469 2382.5552,300.5469 C2382.3364,300.5469 2382.1333,300.625 2381.9458,300.8125 C2381.4927,301.2969 2381.4927,301.2969 2381.3052,301.3906 C2380.8833,301.6563 2380.1958,301.7813 2379.4302,301.7813 C2377.3833,301.7813 2376.0864,300.6875 2376.0864,298.9844 L2376.0864,297.8906 C2376.0864,296.1094 2377.3364,294.7969 2379.0708,294.7969 C2379.6489,294.7969 2380.2583,294.9531 2380.7271,295.2031 C2381.2114,295.4844 2381.3833,295.7031 2381.4771,296.1094 C2381.5396,296.5156 2381.5708,296.6406 2381.7114,296.7656 C2381.8521,296.9063 2382.0864,297.0156 2382.3052,297.0156 C2382.5708,297.0156 2382.8364,296.875 2383.0083,296.6563 C2383.1177,296.5 2383.1489,296.3125 2383.1489,295.8906 L2383.1489,294.4688 C2383.1489,294.0313 2383.1333,293.9063 2383.0396,293.75 C2382.8833,293.4844 2382.6021,293.3438 2382.3052,293.3438 C2382.0083,293.3438 2381.8052,293.4375 2381.5864,293.75 L2381.4146,293.6719 Z " fill="#000000"/><text fill="#000000" font-family="sans-serif" font-size="14" lengthAdjust="spacing" textLength="156" x="2393.0708" y="302.8467">Update Wallet Details</text><line style="stroke:#181818;stroke-width:0.5;" x1="2365.0708" x2="2551.0708" y1="314" y2="314"/><line style="stroke:#181818;stroke-width:0.5;" x1="2365.0708" x2="2551.0708" y1="322" y2="322"/></g><!--class Select Wallet to Delete--><g id="elem_Select Wallet to Delete"><rect fill="#F1F1F1" height="48" id="Select Wallet to Delete" rx="2.5" ry="2.5" style="stroke:#181818;stroke-width:0.5;" width="201" x="2608.5708" y="282"/><ellipse cx="2623.5708" cy="298" fill="#ADD1B2" rx="11" ry="11" style="stroke:#181818;stroke-width:1.0;"/><path d="M2625.9146,293.6719 C2624.9771,293.2344 2624.3833,293.0938 2623.5083,293.0938 C2620.8833,293.0938 2618.8833,295.1719 2618.8833,297.8906 L2618.8833,299.0156 C2618.8833,301.5938 2620.9927,303.4844 2623.8833,303.4844 C2625.1021,303.4844 2626.2583,303.1875 2627.0083,302.6406 C2627.5864,302.2344 2627.9146,301.7813 2627.9146,301.3906 C2627.9146,300.9375 2627.5239,300.5469 2627.0552,300.5469 C2626.8364,300.5469 2626.6333,300.625 2626.4458,300.8125 C2625.9927,301.2969 2625.9927,301.2969 2625.8052,301.3906 C2625.3833,301.6563 2624.6958,301.7813 2623.9302,301.7813 C2621.8833,301.7813 2620.5864,300.6875 2620.5864,298.9844 L2620.5864,297.8906 C2620.5864,296.1094 2621.8364,294.7969 2623.5708,294.7969 C2624.1489,294.7969 2624.7583,294.9531 2625.2271,295.2031 C2625.7114,295.4844 2625.8833,295.7031 2625.9771,296.1094 C2626.0396,296.5156 2626.0708,296.6406 2626.2114,296.7656 C2626.3521,296.9063 2626.5864,297.0156 2626.8052,297.0156 C2627.0708,297.0156 2627.3364,296.875 2627.5083,296.6563 C2627.6177,296.5 2627.6489,296.3125 2627.6489,295.8906 L2627.6489,294.4688 C2627.6489,294.0313 2627.6333,293.9063 2627.5396,293.75 C2627.3833,293.4844 2627.1021,293.3438 2626.8052,293.3438 C2626.5083,293.3438 2626.3052,293.4375 2626.0864,293.75 L2625.9146,293.6719 Z " fill="#000000"/><text fill="#000000" font-family="sans-serif" font-size="14" lengthAdjust="spacing" textLength="169" x="2637.5708" y="302.8467">Select Wallet to Delete</text><line style="stroke:#181818;stroke-width:0.5;" x1="2609.5708" x2="2808.5708" y1="314" y2="314"/><line style="stroke:#181818;stroke-width:0.5;" x1="2609.5708" x2="2808.5708" y1="322" y2="322"/></g><!--class Confirm Deletion--><g id="elem_Confirm Deletion"><rect fill="#F1F1F1" height="48" id="Confirm Deletion" rx="2.5" ry="2.5" style="stroke:#181818;stroke-width:0.5;" width="156" x="2845.0708" y="282"/><ellipse cx="2860.0708" cy="298" fill="#ADD1B2" rx="11" ry="11" style="stroke:#181818;stroke-width:1.0;"/><path d="M2862.4146,293.6719 C2861.4771,293.2344 2860.8833,293.0938 2860.0083,293.0938 C2857.3833,293.0938 2855.3833,295.1719 2855.3833,297.8906 L2855.3833,299.0156 C2855.3833,301.5938 2857.4927,303.4844 2860.3833,303.4844 C2861.6021,303.4844 2862.7583,303.1875 2863.5083,302.6406 C2864.0864,302.2344 2864.4146,301.7813 2864.4146,301.3906 C2864.4146,300.9375 2864.0239,300.5469 2863.5552,300.5469 C2863.3364,300.5469 2863.1333,300.625 2862.9458,300.8125 C2862.4927,301.2969 2862.4927,301.2969 2862.3052,301.3906 C2861.8833,301.6563 2861.1958,301.7813 2860.4302,301.7813 C2858.3833,301.7813 2857.0864,300.6875 2857.0864,298.9844 L2857.0864,297.8906 C2857.0864,296.1094 2858.3364,294.7969 2860.0708,294.7969 C2860.6489,294.7969 2861.2583,294.9531 2861.7271,295.2031 C2862.2114,295.4844 2862.3833,295.7031 2862.4771,296.1094 C2862.5396,296.5156 2862.5708,296.6406 2862.7114,296.7656 C2862.8521,296.9063 2863.0864,297.0156 2863.3052,297.0156 C2863.5708,297.0156 2863.8364,296.875 2864.0083,296.6563 C2864.1177,296.5 2864.1489,296.3125 2864.1489,295.8906 L2864.1489,294.4688 C2864.1489,294.0313 2864.1333,293.9063 2864.0396,293.75 C2863.8833,293.4844 2863.6021,293.3438 2863.3052,293.3438 C2863.0083,293.3438 2862.8052,293.4375 2862.5864,293.75 L2862.4146,293.6719 Z " fill="#000000"/><text fill="#000000" font-family="sans-serif" font-size="14" lengthAdjust="spacing" textLength="124" x="2874.0708" y="302.8467">Confirm Deletion</text><line style="stroke:#181818;stroke-width:0.5;" x1="2846.0708" x2="3000.0708" y1="314" y2="314"/><line style="stroke:#181818;stroke-width:0.5;" x1="2846.0708" x2="3000.0708" y1="322" y2="322"/></g><!--class Initiate Transactions--><g id="elem_Initiate Transactions"><rect fill="#F1F1F1" height="48" id="Initiate Transactions" rx="2.5" ry="2.5" style="stroke:#181818;stroke-width:0.5;" width="179" x="3081.5708" y="282"/><ellipse cx="3096.5708" cy="298" fill="#ADD1B2" rx="11" ry="11" style="stroke:#181818;stroke-width:1.0;"/><path d="M3098.9146,293.6719 C3097.9771,293.2344 3097.3833,293.0938 3096.5083,293.0938 C3093.8833,293.0938 3091.8833,295.1719 3091.8833,297.8906 L3091.8833,299.0156 C3091.8833,301.5938 3093.9927,303.4844 3096.8833,303.4844 C3098.1021,303.4844 3099.2583,303.1875 3100.0083,302.6406 C3100.5864,302.2344 3100.9146,301.7813 3100.9146,301.3906 C3100.9146,300.9375 3100.5239,300.5469 3100.0552,300.5469 C3099.8364,300.5469 3099.6333,300.625 3099.4458,300.8125 C3098.9927,301.2969 3098.9927,301.2969 3098.8052,301.3906 C3098.3833,301.6563 3097.6958,301.7813 3096.9302,301.7813 C3094.8833,301.7813 3093.5864,300.6875 3093.5864,298.9844 L3093.5864,297.8906 C3093.5864,296.1094 3094.8364,294.7969 3096.5708,294.7969 C3097.1489,294.7969 3097.7583,294.9531 3098.2271,295.2031 C3098.7114,295.4844 3098.8833,295.7031 3098.9771,296.1094 C3099.0396,296.5156 3099.0708,296.6406 3099.2114,296.7656 C3099.3521,296.9063 3099.5864,297.0156 3099.8052,297.0156 C3100.0708,297.0156 3100.3364,296.875 3100.5083,296.6563 C3100.6177,296.5 3100.6489,296.3125 3100.6489,295.8906 L3100.6489,294.4688 C3100.6489,294.0313 3100.6333,293.9063 3100.5396,293.75 C3100.3833,293.4844 3100.1021,293.3438 3099.8052,293.3438 C3099.5083,293.3438 3099.3052,293.4375 3099.0864,293.75 L3098.9146,293.6719 Z " fill="#000000"/><text fill="#000000" font-family="sans-serif" font-size="14" lengthAdjust="spacing" textLength="147" x="3110.5708" y="302.8467">Initiate Transactions</text><line style="stroke:#181818;stroke-width:0.5;" x1="3082.5708" x2="3259.5708" y1="314" y2="314"/><line style="stroke:#181818;stroke-width:0.5;" x1="3082.5708" x2="3259.5708" y1="322" y2="322"/></g><!--class Add Cryptos to Watchlist--><g id="elem_Add Cryptos to Watchlist"><rect fill="#F1F1F1" height="48" id="Add Cryptos to Watchlist" rx="2.5" ry="2.5" style="stroke:#181818;stroke-width:0.5;" width="213" x="3387.5708" y="282"/><ellipse cx="3402.5708" cy="298" fill="#ADD1B2" rx="11" ry="11" style="stroke:#181818;stroke-width:1.0;"/><path d="M3404.9146,293.6719 C3403.9771,293.2344 3403.3833,293.0938 3402.5083,293.0938 C3399.8833,293.0938 3397.8833,295.1719 3397.8833,297.8906 L3397.8833,299.0156 C3397.8833,301.5938 3399.9927,303.4844 3402.8833,303.4844 C3404.1021,303.4844 3405.2583,303.1875 3406.0083,302.6406 C3406.5864,302.2344 3406.9146,301.7813 3406.9146,301.3906 C3406.9146,300.9375 3406.5239,300.5469 3406.0552,300.5469 C3405.8364,300.5469 3405.6333,300.625 3405.4458,300.8125 C3404.9927,301.2969 3404.9927,301.2969 3404.8052,301.3906 C3404.3833,301.6563 3403.6958,301.7813 3402.9302,301.7813 C3400.8833,301.7813 3399.5864,300.6875 3399.5864,298.9844 L3399.5864,297.8906 C3399.5864,296.1094 3400.8364,294.7969 3402.5708,294.7969 C3403.1489,294.7969 3403.7583,294.9531 3404.2271,295.2031 C3404.7114,295.4844 3404.8833,295.7031 3404.9771,296.1094 C3405.0396,296.5156 3405.0708,296.6406 3405.2114,296.7656 C3405.3521,296.9063 3405.5864,297.0156 3405.8052,297.0156 C3406.0708,297.0156 3406.3364,296.875 3406.5083,296.6563 C3406.6177,296.5 3406.6489,296.3125 3406.6489,295.8906 L3406.6489,294.4688 C3406.6489,294.0313 3406.6333,293.9063 3406.5396,293.75 C3406.3833,293.4844 3406.1021,293.3438 3405.8052,293.3438 C3405.5083,293.3438 3405.3052,293.4375 3405.0864,293.75 L3404.9146,293.6719 Z " fill="#000000"/><text fill="#000000" font-family="sans-serif" font-size="14" lengthAdjust="spacing" textLength="181" x="3416.5708" y="302.8467">Add Cryptos to Watchlist</text><line style="stroke:#181818;stroke-width:0.5;" x1="3388.5708" x2="3599.5708" y1="314" y2="314"/><line style="stroke:#181818;stroke-width:0.5;" x1="3388.5708" x2="3599.5708" y1="322" y2="322"/></g><!--class Edit Watchlist--><g id="elem_Edit Watchlist"><rect fill="#F1F1F1" height="48" id="Edit Watchlist" rx="2.5" ry="2.5" style="stroke:#181818;stroke-width:0.5;" width="133" x="3635.5708" y="282"/><ellipse cx="3650.5708" cy="298" fill="#ADD1B2" rx="11" ry="11" style="stroke:#181818;stroke-width:1.0;"/><path d="M3652.9146,293.6719 C3651.9771,293.2344 3651.3833,293.0938 3650.5083,293.0938 C3647.8833,293.0938 3645.8833,295.1719 3645.8833,297.8906 L3645.8833,299.0156 C3645.8833,301.5938 3647.9927,303.4844 3650.8833,303.4844 C3652.1021,303.4844 3653.2583,303.1875 3654.0083,302.6406 C3654.5864,302.2344 3654.9146,301.7813 3654.9146,301.3906 C3654.9146,300.9375 3654.5239,300.5469 3654.0552,300.5469 C3653.8364,300.5469 3653.6333,300.625 3653.4458,300.8125 C3652.9927,301.2969 3652.9927,301.2969 3652.8052,301.3906 C3652.3833,301.6563 3651.6958,301.7813 3650.9302,301.7813 C3648.8833,301.7813 3647.5864,300.6875 3647.5864,298.9844 L3647.5864,297.8906 C3647.5864,296.1094 3648.8364,294.7969 3650.5708,294.7969 C3651.1489,294.7969 3651.7583,294.9531 3652.2271,295.2031 C3652.7114,295.4844 3652.8833,295.7031 3652.9771,296.1094 C3653.0396,296.5156 3653.0708,296.6406 3653.2114,296.7656 C3653.3521,296.9063 3653.5864,297.0156 3653.8052,297.0156 C3654.0708,297.0156 3654.3364,296.875 3654.5083,296.6563 C3654.6177,296.5 3654.6489,296.3125 3654.6489,295.8906 L3654.6489,294.4688 C3654.6489,294.0313 3654.6333,293.9063 3654.5396,293.75 C3654.3833,293.4844 3654.1021,293.3438 3653.8052,293.3438 C3653.5083,293.3438 3653.3052,293.4375 3653.0864,293.75 L3652.9146,293.6719 Z " fill="#000000"/><text fill="#000000" font-family="sans-serif" font-size="14" lengthAdjust="spacing" textLength="101" x="3664.5708" y="302.8467">Edit Watchlist</text><line style="stroke:#181818;stroke-width:0.5;" x1="3636.5708" x2="3767.5708" y1="314" y2="314"/><line style="stroke:#181818;stroke-width:0.5;" x1="3636.5708" x2="3767.5708" y1="322" y2="322"/></g><!--class Remove Cryptos from Watchlist--><g id="elem_Remove Cryptos from Watchlist"><rect fill="#F1F1F1" height="48" id="Remove Cryptos from Watchlist" rx="2.5" ry="2.5" style="stroke:#181818;stroke-width:0.5;" width="263" x="3803.5708" y="282"/><ellipse cx="3818.5708" cy="298" fill="#ADD1B2" rx="11" ry="11" style="stroke:#181818;stroke-width:1.0;"/><path d="M3820.9146,293.6719 C3819.9771,293.2344 3819.3833,293.0938 3818.5083,293.0938 C3815.8833,293.0938 3813.8833,295.1719 3813.8833,297.8906 L3813.8833,299.0156 C3813.8833,301.5938 3815.9927,303.4844 3818.8833,303.4844 C3820.1021,303.4844 3821.2583,303.1875 3822.0083,302.6406 C3822.5864,302.2344 3822.9146,301.7813 3822.9146,301.3906 C3822.9146,300.9375 3822.5239,300.5469 3822.0552,300.5469 C3821.8364,300.5469 3821.6333,300.625 3821.4458,300.8125 C3820.9927,301.2969 3820.9927,301.2969 3820.8052,301.3906 C3820.3833,301.6563 3819.6958,301.7813 3818.9302,301.7813 C3816.8833,301.7813 3815.5864,300.6875 3815.5864,298.9844 L3815.5864,297.8906 C3815.5864,296.1094 3816.8364,294.7969 3818.5708,294.7969 C3819.1489,294.7969 3819.7583,294.9531 3820.2271,295.2031 C3820.7114,295.4844 3820.8833,295.7031 3820.9771,296.1094 C3821.0396,296.5156 3821.0708,296.6406 3821.2114,296.7656 C3821.3521,296.9063 3821.5864,297.0156 3821.8052,297.0156 C3822.0708,297.0156 3822.3364,296.875 3822.5083,296.6563 C3822.6177,296.5 3822.6489,296.3125 3822.6489,295.8906 L3822.6489,294.4688 C3822.6489,294.0313 3822.6333,293.9063 3822.5396,293.75 C3822.3833,293.4844 3822.1021,293.3438 3821.8052,293.3438 C3821.5083,293.3438 3821.3052,293.4375 3821.0864,293.75 L3820.9146,293.6719 Z " fill="#000000"/><text fill="#000000" font-family="sans-serif" font-size="14" lengthAdjust="spacing" textLength="231" x="3832.5708" y="302.8467">Remove Cryptos from Watchlist</text><line style="stroke:#181818;stroke-width:0.5;" x1="3804.5708" x2="4065.5708" y1="314" y2="314"/><line style="stroke:#181818;stroke-width:0.5;" x1="3804.5708" x2="4065.5708" y1="322" y2="322"/></g><!--class View Transaction History--><g id="elem_View Transaction History"><rect fill="#F1F1F1" height="48" id="View Transaction History" rx="2.5" ry="2.5" style="stroke:#181818;stroke-width:0.5;" width="209" x="4147.5708" y="282"/><ellipse cx="4162.5708" cy="298" fill="#ADD1B2" rx="11" ry="11" style="stroke:#181818;stroke-width:1.0;"/><path d="M4164.9145,293.6719 C4163.977,293.2344 4163.3833,293.0938 4162.5083,293.0938 C4159.8833,293.0938 4157.8833,295.1719 4157.8833,297.8906 L4157.8833,299.0156 C4157.8833,301.5938 4159.9927,303.4844 4162.8833,303.4844 C4164.102,303.4844 4165.2583,303.1875 4166.0083,302.6406 C4166.5864,302.2344 4166.9145,301.7813 4166.9145,301.3906 C4166.9145,300.9375 4166.5239,300.5469 4166.0552,300.5469 C4165.8364,300.5469 4165.6333,300.625 4165.4458,300.8125 C4164.9927,301.2969 4164.9927,301.2969 4164.8052,301.3906 C4164.3833,301.6563 4163.6958,301.7813 4162.9302,301.7813 C4160.8833,301.7813 4159.5864,300.6875 4159.5864,298.9844 L4159.5864,297.8906 C4159.5864,296.1094 4160.8364,294.7969 4162.5708,294.7969 C4163.1489,294.7969 4163.7583,294.9531 4164.227,295.2031 C4164.7114,295.4844 4164.8833,295.7031 4164.977,296.1094 C4165.0395,296.5156 4165.0708,296.6406 4165.2114,296.7656 C4165.352,296.9063 4165.5864,297.0156 4165.8052,297.0156 C4166.0708,297.0156 4166.3364,296.875 4166.5083,296.6563 C4166.6177,296.5 4166.6489,296.3125 4166.6489,295.8906 L4166.6489,294.4688 C4166.6489,294.0313 4166.6333,293.9063 4166.5395,293.75 C4166.3833,293.4844 4166.102,293.3438 4165.8052,293.3438 C4165.5083,293.3438 4165.3052,293.4375 4165.0864,293.75 L4164.9145,293.6719 Z " fill="#000000"/><text fill="#000000" font-family="sans-serif" font-size="14" lengthAdjust="spacing" textLength="177" x="4176.5708" y="302.8467">View Transaction History</text><line style="stroke:#181818;stroke-width:0.5;" x1="4148.5708" x2="4355.5708" y1="314" y2="314"/><line style="stroke:#181818;stroke-width:0.5;" x1="4148.5708" x2="4355.5708" y1="322" y2="322"/></g><!--class Generate Charts--><g id="elem_Generate Charts"><rect fill="#F1F1F1" height="48" id="Generate Charts" rx="2.5" ry="2.5" style="stroke:#181818;stroke-width:0.5;" width="151" x="4413.5708" y="282"/><ellipse cx="4428.5708" cy="298" fill="#ADD1B2" rx="11" ry="11" style="stroke:#181818;stroke-width:1.0;"/><path d="M4430.9145,293.6719 C4429.977,293.2344 4429.3833,293.0938 4428.5083,293.0938 C4425.8833,293.0938 4423.8833,295.1719 4423.8833,297.8906 L4423.8833,299.0156 C4423.8833,301.5938 4425.9927,303.4844 4428.8833,303.4844 C4430.102,303.4844 4431.2583,303.1875 4432.0083,302.6406 C4432.5864,302.2344 4432.9145,301.7813 4432.9145,301.3906 C4432.9145,300.9375 4432.5239,300.5469 4432.0552,300.5469 C4431.8364,300.5469 4431.6333,300.625 4431.4458,300.8125 C4430.9927,301.2969 4430.9927,301.2969 4430.8052,301.3906 C4430.3833,301.6563 4429.6958,301.7813 4428.9302,301.7813 C4426.8833,301.7813 4425.5864,300.6875 4425.5864,298.9844 L4425.5864,297.8906 C4425.5864,296.1094 4426.8364,294.7969 4428.5708,294.7969 C4429.1489,294.7969 4429.7583,294.9531 4430.227,295.2031 C4430.7114,295.4844 4430.8833,295.7031 4430.977,296.1094 C4431.0395,296.5156 4431.0708,296.6406 4431.2114,296.7656 C4431.352,296.9063 4431.5864,297.0156 4431.8052,297.0156 C4432.0708,297.0156 4432.3364,296.875 4432.5083,296.6563 C4432.6177,296.5 4432.6489,296.3125 4432.6489,295.8906 L4432.6489,294.4688 C4432.6489,294.0313 4432.6333,293.9063 4432.5395,293.75 C4432.3833,293.4844 4432.102,293.3438 4431.8052,293.3438 C4431.5083,293.3438 4431.3052,293.4375 4431.0864,293.75 L4430.9145,293.6719 Z " fill="#000000"/><text fill="#000000" font-family="sans-serif" font-size="14" lengthAdjust="spacing" textLength="119" x="4442.5708" y="302.8467">Generate Charts</text><line style="stroke:#181818;stroke-width:0.5;" x1="4414.5708" x2="4563.5708" y1="314" y2="314"/><line style="stroke:#181818;stroke-width:0.5;" x1="4414.5708" x2="4563.5708" y1="322" y2="322"/></g><!--class User--><g id="elem_User"><rect codeLine="6" fill="#F1F1F1" height="48" id="User" rx="2.5" ry="2.5" style="stroke:#181818;stroke-width:0.5;" width="63" x="2077.5708" y="7"/><ellipse cx="2092.5708" cy="23" fill="#ADD1B2" rx="11" ry="11" style="stroke:#181818;stroke-width:1.0;"/><path d="M2094.9146,18.6719 C2093.9771,18.2344 2093.3833,18.0938 2092.5083,18.0938 C2089.8833,18.0938 2087.8833,20.1719 2087.8833,22.8906 L2087.8833,24.0156 C2087.8833,26.5938 2089.9927,28.4844 2092.8833,28.4844 C2094.1021,28.4844 2095.2583,28.1875 2096.0083,27.6406 C2096.5864,27.2344 2096.9146,26.7813 2096.9146,26.3906 C2096.9146,25.9375 2096.5239,25.5469 2096.0552,25.5469 C2095.8364,25.5469 2095.6333,25.625 2095.4458,25.8125 C2094.9927,26.2969 2094.9927,26.2969 2094.8052,26.3906 C2094.3833,26.6563 2093.6958,26.7813 2092.9302,26.7813 C2090.8833,26.7813 2089.5864,25.6875 2089.5864,23.9844 L2089.5864,22.8906 C2089.5864,21.1094 2090.8364,19.7969 2092.5708,19.7969 C2093.1489,19.7969 2093.7583,19.9531 2094.2271,20.2031 C2094.7114,20.4844 2094.8833,20.7031 2094.9771,21.1094 C2095.0396,21.5156 2095.0708,21.6406 2095.2114,21.7656 C2095.3521,21.9063 2095.5864,22.0156 2095.8052,22.0156 C2096.0708,22.0156 2096.3364,21.875 2096.5083,21.6563 C2096.6177,21.5 2096.6489,21.3125 2096.6489,20.8906 L2096.6489,19.4688 C2096.6489,19.0313 2096.6333,18.9063 2096.5396,18.75 C2096.3833,18.4844 2096.1021,18.3438 2095.8052,18.3438 C2095.5083,18.3438 2095.3052,18.4375 2095.0864,18.75 L2094.9146,18.6719 Z " fill="#000000"/><text fill="#000000" font-family="sans-serif" font-size="14" lengthAdjust="spacing" textLength="31" x="2106.5708" y="27.8467">User</text><line style="stroke:#181818;stroke-width:0.5;" x1="2078.5708" x2="2139.5708" y1="39" y2="39"/><line style="stroke:#181818;stroke-width:0.5;" x1="2078.5708" x2="2139.5708" y1="47" y2="47"/></g><!--class Admin--><g id="elem_Admin"><rect codeLine="7" fill="#F1F1F1" height="48" id="Admin" rx="2.5" ry="2.5" style="stroke:#181818;stroke-width:0.5;" width="78" x="143.0753" y="282"/><ellipse cx="158.0753" cy="298" fill="#ADD1B2" rx="11" ry="11" style="stroke:#181818;stroke-width:1.0;"/><path d="M160.4191,293.6719 C159.4816,293.2344 158.8878,293.0938 158.0128,293.0938 C155.3878,293.0938 153.3878,295.1719 153.3878,297.8906 L153.3878,299.0156 C153.3878,301.5938 155.4972,303.4844 158.3878,303.4844 C159.6066,303.4844 160.7628,303.1875 161.5128,302.6406 C162.0909,302.2344 162.4191,301.7813 162.4191,301.3906 C162.4191,300.9375 162.0284,300.5469 161.5597,300.5469 C161.3409,300.5469 161.1378,300.625 160.9503,300.8125 C160.4972,301.2969 160.4972,301.2969 160.3097,301.3906 C159.8878,301.6563 159.2003,301.7813 158.4347,301.7813 C156.3878,301.7813 155.0909,300.6875 155.0909,298.9844 L155.0909,297.8906 C155.0909,296.1094 156.3409,294.7969 158.0753,294.7969 C158.6534,294.7969 159.2628,294.9531 159.7316,295.2031 C160.2159,295.4844 160.3878,295.7031 160.4816,296.1094 C160.5441,296.5156 160.5753,296.6406 160.7159,296.7656 C160.8566,296.9063 161.0909,297.0156 161.3097,297.0156 C161.5753,297.0156 161.8409,296.875 162.0128,296.6563 C162.1222,296.5 162.1534,296.3125 162.1534,295.8906 L162.1534,294.4688 C162.1534,294.0313 162.1378,293.9063 162.0441,293.75 C161.8878,293.4844 161.6066,293.3438 161.3097,293.3438 C161.0128,293.3438 160.8097,293.4375 160.5909,293.75 L160.4191,293.6719 Z " fill="#000000"/><text fill="#000000" font-family="sans-serif" font-size="14" lengthAdjust="spacing" textLength="46" x="172.0753" y="302.8467">Admin</text><line style="stroke:#181818;stroke-width:0.5;" x1="144.0753" x2="220.0753" y1="314" y2="314"/><line style="stroke:#181818;stroke-width:0.5;" x1="144.0753" x2="220.0753" y1="322" y2="322"/></g><!--class Exchanges--><g id="elem_Exchanges"><rect codeLine="8" fill="#F1F1F1" height="48" id="Exchanges" rx="2.5" ry="2.5" style="stroke:#181818;stroke-width:0.5;" width="162" x="165.0758" y="457"/><ellipse cx="180.0758" cy="473" fill="#ADD1B2" rx="11" ry="11" style="stroke:#181818;stroke-width:1.0;"/><path d="M182.4196,468.6719 C181.4821,468.2344 180.8883,468.0938 180.0133,468.0938 C177.3883,468.0938 175.3883,470.1719 175.3883,472.8906 L175.3883,474.0156 C175.3883,476.5938 177.4977,478.4844 180.3883,478.4844 C181.6071,478.4844 182.7633,478.1875 183.5133,477.6406 C184.0914,477.2344 184.4196,476.7813 184.4196,476.3906 C184.4196,475.9375 184.0289,475.5469 183.5602,475.5469 C183.3414,475.5469 183.1383,475.625 182.9508,475.8125 C182.4977,476.2969 182.4977,476.2969 182.3102,476.3906 C181.8883,476.6563 181.2008,476.7813 180.4352,476.7813 C178.3883,476.7813 177.0914,475.6875 177.0914,473.9844 L177.0914,472.8906 C177.0914,471.1094 178.3414,469.7969 180.0758,469.7969 C180.6539,469.7969 181.2633,469.9531 181.7321,470.2031 C182.2164,470.4844 182.3883,470.7031 182.4821,471.1094 C182.5446,471.5156 182.5758,471.6406 182.7164,471.7656 C182.8571,471.9063 183.0914,472.0156 183.3102,472.0156 C183.5758,472.0156 183.8414,471.875 184.0133,471.6563 C184.1227,471.5 184.1539,471.3125 184.1539,470.8906 L184.1539,469.4688 C184.1539,469.0313 184.1383,468.9063 184.0446,468.75 C183.8883,468.4844 183.6071,468.3438 183.3102,468.3438 C183.0133,468.3438 182.8102,468.4375 182.5914,468.75 L182.4196,468.6719 Z " fill="#000000"/><text fill="#000000" font-family="sans-serif" font-size="14" lengthAdjust="spacing" textLength="130" x="194.0758" y="477.8467">Crypto Exchanges</text><line style="stroke:#181818;stroke-width:0.5;" x1="166.0758" x2="326.0758" y1="489" y2="489"/><line style="stroke:#181818;stroke-width:0.5;" x1="166.0758" x2="326.0758" y1="497" y2="497"/></g><!--class Blockchain--><g id="elem_Blockchain"><rect codeLine="9" fill="#F1F1F1" height="48" id="Blockchain" rx="2.5" ry="2.5" style="stroke:#181818;stroke-width:0.5;" width="175" x="422.5758" y="282"/><ellipse cx="437.5758" cy="298" fill="#ADD1B2" rx="11" ry="11" style="stroke:#181818;stroke-width:1.0;"/><path d="M439.9195,293.6719 C438.982,293.2344 438.3883,293.0938 437.5133,293.0938 C434.8883,293.0938 432.8883,295.1719 432.8883,297.8906 L432.8883,299.0156 C432.8883,301.5938 434.9977,303.4844 437.8883,303.4844 C439.107,303.4844 440.2633,303.1875 441.0133,302.6406 C441.5914,302.2344 441.9195,301.7813 441.9195,301.3906 C441.9195,300.9375 441.5289,300.5469 441.0602,300.5469 C440.8414,300.5469 440.6383,300.625 440.4508,300.8125 C439.9977,301.2969 439.9977,301.2969 439.8102,301.3906 C439.3883,301.6563 438.7008,301.7813 437.9352,301.7813 C435.8883,301.7813 434.5914,300.6875 434.5914,298.9844 L434.5914,297.8906 C434.5914,296.1094 435.8414,294.7969 437.5758,294.7969 C438.1539,294.7969 438.7633,294.9531 439.232,295.2031 C439.7164,295.4844 439.8883,295.7031 439.982,296.1094 C440.0445,296.5156 440.0758,296.6406 440.2164,296.7656 C440.357,296.9063 440.5914,297.0156 440.8102,297.0156 C441.0758,297.0156 441.3414,296.875 441.5133,296.6563 C441.6227,296.5 441.6539,296.3125 441.6539,295.8906 L441.6539,294.4688 C441.6539,294.0313 441.6383,293.9063 441.5445,293.75 C441.3883,293.4844 441.107,293.3438 440.8102,293.3438 C440.5133,293.3438 440.3102,293.4375 440.0914,293.75 L439.9195,293.6719 Z " fill="#000000"/><text fill="#000000" font-family="sans-serif" font-size="14" lengthAdjust="spacing" textLength="143" x="451.5758" y="302.8467">Blockchain Network</text><line style="stroke:#181818;stroke-width:0.5;" x1="423.5758" x2="596.5758" y1="314" y2="314"/><line style="stroke:#181818;stroke-width:0.5;" x1="423.5758" x2="596.5758" y1="322" y2="322"/></g><!--class Wallets--><g id="elem_Wallets"><rect codeLine="10" fill="#F1F1F1" height="48" id="Wallets" rx="2.5" ry="2.5" style="stroke:#181818;stroke-width:0.5;" width="120" x="2176.0708" y="7"/><ellipse cx="2191.0708" cy="23" fill="#ADD1B2" rx="11" ry="11" style="stroke:#181818;stroke-width:1.0;"/><path d="M2193.4146,18.6719 C2192.4771,18.2344 2191.8833,18.0938 2191.0083,18.0938 C2188.3833,18.0938 2186.3833,20.1719 2186.3833,22.8906 L2186.3833,24.0156 C2186.3833,26.5938 2188.4927,28.4844 2191.3833,28.4844 C2192.6021,28.4844 2193.7583,28.1875 2194.5083,27.6406 C2195.0864,27.2344 2195.4146,26.7813 2195.4146,26.3906 C2195.4146,25.9375 2195.0239,25.5469 2194.5552,25.5469 C2194.3364,25.5469 2194.1333,25.625 2193.9458,25.8125 C2193.4927,26.2969 2193.4927,26.2969 2193.3052,26.3906 C2192.8833,26.6563 2192.1958,26.7813 2191.4302,26.7813 C2189.3833,26.7813 2188.0864,25.6875 2188.0864,23.9844 L2188.0864,22.8906 C2188.0864,21.1094 2189.3364,19.7969 2191.0708,19.7969 C2191.6489,19.7969 2192.2583,19.9531 2192.7271,20.2031 C2193.2114,20.4844 2193.3833,20.7031 2193.4771,21.1094 C2193.5396,21.5156 2193.5708,21.6406 2193.7114,21.7656 C2193.8521,21.9063 2194.0864,22.0156 2194.3052,22.0156 C2194.5708,22.0156 2194.8364,21.875 2195.0083,21.6563 C2195.1177,21.5 2195.1489,21.3125 2195.1489,20.8906 L2195.1489,19.4688 C2195.1489,19.0313 2195.1333,18.9063 2195.0396,18.75 C2194.8833,18.4844 2194.6021,18.3438 2194.3052,18.3438 C2194.0083,18.3438 2193.8052,18.4375 2193.5864,18.75 L2193.4146,18.6719 Z " fill="#000000"/><text fill="#000000" font-family="sans-serif" font-size="14" lengthAdjust="spacing" textLength="88" x="2205.0708" y="27.8467">User Wallets</text><line style="stroke:#181818;stroke-width:0.5;" x1="2177.0708" x2="2295.0708" y1="39" y2="39"/><line style="stroke:#181818;stroke-width:0.5;" x1="2177.0708" x2="2295.0708" y1="47" y2="47"/></g><!--link User to Admin--><g id="link_User_Admin"><path codeLine="12" d="M2077.5608,32.21 C1822.2308,33.982 100.7892,47.322 64.0753,85 C6,144.6 96.8241,234.6842 148.1602,277.9342 " fill="none" id="User-to-Admin" style="stroke:#181818;stroke-width:1.0;stroke-dasharray:7.0,7.0;"/><polygon fill="#181818" points="152.7488,281.8,148.4431,272.9422,148.925,278.5785,143.2887,279.0603,152.7488,281.8" style="stroke:#181818;stroke-width:1.0;"/><text fill="#000000" font-family="sans-serif" font-size="13" lengthAdjust="spacing" textLength="91" x="65.0753" y="98.0669">Admin Control</text></g><!--link Admin to User--><g id="link_Admin_User"><path codeLine="16" d="M174.9588,281.94 C162.6138,236.775 143.3719,136.578 197.0758,85 C232.4388,51.036 1824.9011,34.6788 2071.3211,32.3478 " fill="none" id="Admin-to-User" style="stroke:#181818;stroke-width:1.0;stroke-dasharray:7.0,7.0;"/><polygon fill="#181818" points="2077.3208,32.291,2068.2834,28.3763,2072.321,32.3383,2068.359,36.376,2077.3208,32.291" style="stroke:#181818;stroke-width:1.0;"/><text fill="#000000" font-family="sans-serif" font-size="13" lengthAdjust="spacing" textLength="86" x="198.0758" y="98.0669">Configuration</text></g><!--link User to Exchanges--><g id="link_User_Exchanges"><path codeLine="13" d="M2077.5608,32.214 C1844.4208,33.936 394.9018,47.154 329.0758,110 C226.3638,208.061 344.8408,296.402 289.0758,427 C284.4688,437.788 280.9028,443.6052 273.4668,452.2682 " fill="none" id="User-to-Exchanges" style="stroke:#181818;stroke-width:1.0;stroke-dasharray:7.0,7.0;"/><polygon fill="#181818" points="269.5588,456.821,278.4559,452.5971,272.8154,453.027,272.3855,447.3865,269.5588,456.821" style="stroke:#181818;stroke-width:1.0;"/><text fill="#000000" font-family="sans-serif" font-size="13" lengthAdjust="spacing" textLength="74" x="330.0758" y="310.5669">Query Data</text></g><!--link User to Blockchain--><g id="link_User_Blockchain"><path codeLine="14" d="M2077.5708,32.437 C1899.5008,35.024 1017.3788,49.463 748.0758,85 C698.3708,91.559 679.2638,81.415 638.0758,110 C574.6978,153.985 536.9619,234.9047 520.6759,276.2907 " fill="none" id="User-to-Blockchain" style="stroke:#181818;stroke-width:1.0;stroke-dasharray:7.0,7.0;"/><polygon fill="#181818" points="518.4788,281.874,525.4966,274.9638,520.3097,277.2213,518.0523,272.0344,518.4788,281.874" style="stroke:#181818;stroke-width:1.0;"/><text fill="#000000" font-family="sans-serif" font-size="13" lengthAdjust="spacing" textLength="110" x="749.0758" y="98.0669">Transaction Data</text></g><!--link Admin to Exchanges--><g id="link_Admin_Exchanges"><path codeLine="17" d="M175.4228,330.436 C169.6048,355.641 164.1858,396.237 179.0758,427 C184.8258,438.881 189.9249,445.2424 200.3289,453.2674 " fill="none" id="Admin-to-Exchanges" style="stroke:#181818;stroke-width:1.0;stroke-dasharray:7.0,7.0;"/><polygon fill="#181818" points="205.0798,456.932,200.3965,448.2679,201.1207,453.8782,195.5104,454.6024,205.0798,456.932" style="stroke:#181818;stroke-width:1.0;"/><text fill="#000000" font-family="sans-serif" font-size="13" lengthAdjust="spacing" textLength="104" x="180.0758" y="423.0669">Data Integration</text></g><!--link User to Validate Credentials--><g id="link_User_Validate Credentials"><path codeLine="21" d="M2077.5008,32.09 C1892.5508,32.861 954.4188,40.209 849.0758,110 C787.5608,150.754 760.225,233.8339 749.619,276.0439 " fill="none" id="User-to-Validate Credentials" style="stroke:#181818;stroke-width:1.0;stroke-dasharray:7.0,7.0;"/><polygon fill="#181818" points="748.1568,281.863,754.2294,274.1091,749.3753,277.0137,746.4706,272.1596,748.1568,281.863" style="stroke:#181818;stroke-width:1.0;"/></g><!--link User to 2FA Implementation--><g id="link_User_2FA Implementation"><path codeLine="22" d="M2077.3808,32.776 C1914.2608,36.984 1173.5608,58.807 1086.0708,110 C1018.6508,149.455 981.292,233.7776 965.8,276.2916 " fill="none" id="User-to-2FA Implementation" style="stroke:#181818;stroke-width:1.0;stroke-dasharray:7.0,7.0;"/><polygon fill="#181818" points="963.7458,281.929,970.5854,274.8424,965.4577,277.2312,963.0689,272.1034,963.7458,281.929" style="stroke:#181818;stroke-width:1.0;"/></g><!--link User to Query Crypto Data--><g id="link_User_Query Crypto Data"><path codeLine="26" d="M2077.4608,32.753 C1958.4508,36.017 1538.2208,51.535 1420.0708,110 C1339.5708,149.839 1278.1305,234.1547 1250.6305,276.6517 " fill="none" id="User-to-Query Crypto Data" style="stroke:#181818;stroke-width:1.0;stroke-dasharray:7.0,7.0;"/><polygon fill="#181818" points="1247.3708,281.689,1255.6185,276.3061,1250.0872,277.4912,1248.9021,271.9599,1247.3708,281.689" style="stroke:#181818;stroke-width:1.0;"/></g><!--link Query Crypto Data to Fetch Data from Exchanges--><g id="link_Query Crypto Data_Fetch Data from Exchanges"><path codeLine="27" d="M1230.9208,330.332 C1227.8508,363.442 1222.8338,417.7295 1219.7738,450.7875 " fill="none" id="Query Crypto Data-to-Fetch Data from Exchanges" style="stroke:#181818;stroke-width:1.0;stroke-dasharray:7.0,7.0;"/><polygon fill="#181818" points="1219.2208,456.762,1224.0333,448.169,1219.6817,451.7833,1216.0674,447.4316,1219.2208,456.762" style="stroke:#181818;stroke-width:1.0;"/></g><!--link User to Provide Wallet Details--><g id="link_User_Provide Wallet Details"><path codeLine="33" d="M2077.4408,38.29 C2010.5708,51.435 1849.8408,82.231 1714.0708,102 C1698.5808,104.256 1657.1708,101.424 1644.0708,110 C1581.3908,151.044 1550.9214,234.0363 1538.7114,276.1553 " fill="none" id="User-to-Provide Wallet Details" style="stroke:#181818;stroke-width:1.0;stroke-dasharray:7.0,7.0;"/><polygon fill="#181818" points="1537.0408,281.918,1543.3885,274.3876,1538.4329,277.1157,1535.7048,272.1602,1537.0408,281.918" style="stroke:#181818;stroke-width:1.0;"/></g><!--link User to Generate Wallet Address--><g id="link_User_Generate Wallet Address"><path codeLine="34" d="M2077.2408,36.603 C2031.5408,44.591 1946.6308,64.722 1890.0708,110 C1830.8608,157.405 1794.1437,235.9089 1777.9137,276.3889 " fill="none" id="User-to-Generate Wallet Address" style="stroke:#181818;stroke-width:1.0;stroke-dasharray:7.0,7.0;"/><polygon fill="#181818" points="1775.6808,281.958,1782.7428,275.093,1777.5415,277.3171,1775.3174,272.1158,1775.6808,281.958" style="stroke:#181818;stroke-width:1.0;"/></g><!--link User to Store Private Keys--><g id="link_User_Store Private Keys"><path codeLine="35" d="M2098.9308,55.276 C2076.4508,106.853 2025.0484,224.7599 2002.5884,276.2829 " fill="none" id="User-to-Store Private Keys" style="stroke:#181818;stroke-width:1.0;stroke-dasharray:7.0,7.0;"/><polygon fill="#181818" points="2000.1908,281.783,2007.454,275.1312,2002.1888,277.1996,2000.1205,271.9344,2000.1908,281.783" style="stroke:#181818;stroke-width:1.0;"/></g><!--link User to Select Wallet to Modify--><g id="link_User_Select Wallet to Modify"><path codeLine="38" d="M2119.3108,55.276 C2141.9808,106.853 2193.8062,224.7673 2216.4562,276.2903 " fill="none" id="User-to-Select Wallet to Modify" style="stroke:#181818;stroke-width:1.0;stroke-dasharray:7.0,7.0;"/><polygon fill="#181818" points="2218.8708,281.783,2218.9106,271.9342,2216.8586,277.2058,2211.5871,275.1537,2218.8708,281.783" style="stroke:#181818;stroke-width:1.0;"/></g><!--link User to Update Wallet Details--><g id="link_User_Update Wallet Details"><path codeLine="39" d="M2140.7908,47.432 C2146.8008,50.113 2153.0808,52.758 2159.0708,55 C2240.6208,85.495 2278.7808,56.009 2347.0708,110 C2405.1408,155.901 2436.3218,235.3708 2449.4818,276.2418 " fill="none" id="User-to-Update Wallet Details" style="stroke:#181818;stroke-width:1.0;stroke-dasharray:7.0,7.0;"/><polygon fill="#181818" points="2451.3208,281.953,2452.3699,272.1602,2449.7883,277.1936,2444.7549,274.6121,2451.3208,281.953" style="stroke:#181818;stroke-width:1.0;"/></g><!--link User to Select Wallet to Delete--><g id="link_User_Select Wallet to Delete"><path codeLine="42" d="M2140.8108,48.298 C2146.7608,50.863 2153.0208,53.243 2159.0708,55 C2335.2208,106.111 2410.6808,15.824 2568.0708,110 C2636.7308,151.078 2679.1859,234.3113 2697.4259,276.4193 " fill="none" id="User-to-Select Wallet to Delete" style="stroke:#181818;stroke-width:1.0;stroke-dasharray:7.0,7.0;"/><polygon fill="#181818" points="2699.8108,281.925,2699.9039,272.0766,2697.8234,277.337,2692.563,275.2564,2699.8108,281.925" style="stroke:#181818;stroke-width:1.0;"/></g><!--link User to Confirm Deletion--><g id="link_User_Confirm Deletion"><path codeLine="43" d="M2140.7308,48.596 C2146.6908,51.131 2152.9708,53.423 2159.0708,55 C2303.2908,92.243 2704.4508,25.445 2827.0708,110 C2886.5608,151.022 2909.5948,233.9044 2918.0148,276.0304 " fill="none" id="User-to-Confirm Deletion" style="stroke:#181818;stroke-width:1.0;stroke-dasharray:7.0,7.0;"/><polygon fill="#181818" points="2919.1908,281.914,2921.3492,272.3046,2918.2108,277.011,2913.5044,273.8726,2919.1908,281.914" style="stroke:#181818;stroke-width:1.0;"/></g><!--link User to Initiate Transactions--><g id="link_User_Initiate Transactions"><path codeLine="47" d="M2140.6908,48.742 C2146.6508,51.261 2152.9508,53.511 2159.0708,55 C2301.3108,89.559 2671.2308,72.579 2817.0708,85 C2906.3308,92.601 2939.0408,66.007 3017.0708,110 C3089.0408,150.57 3136.8544,234.1801 3157.7244,276.4481 " fill="none" id="User-to-Initiate Transactions" style="stroke:#181818;stroke-width:1.0;stroke-dasharray:7.0,7.0;"/><polygon fill="#181818" points="3160.3808,281.828,3159.9829,271.9872,3158.1672,277.3447,3152.8096,275.529,3160.3808,281.828" style="stroke:#181818;stroke-width:1.0;"/></g><!--link User to Add Cryptos to Watchlist--><g id="link_User_Add Cryptos to Watchlist"><path codeLine="50" d="M2140.6808,48.776 C2146.6508,51.292 2152.9408,53.532 2159.0708,55 C2326.6908,95.116 2761.9908,75.401 2934.0708,85 C3086.6908,93.513 3136.4308,50.14 3277.0708,110 C3366.5508,148.085 3440.2199,233.9763 3473.2899,276.9183 " fill="none" id="User-to-Add Cryptos to Watchlist" style="stroke:#181818;stroke-width:1.0;stroke-dasharray:7.0,7.0;"/><polygon fill="#181818" points="3476.9508,281.672,3474.6286,272.1008,3473.9001,277.7106,3468.2903,276.982,3476.9508,281.672" style="stroke:#181818;stroke-width:1.0;"/></g><!--link User to Edit Watchlist--><g id="link_User_Edit Watchlist"><path codeLine="51" d="M2140.6708,48.814 C2146.6408,51.326 2152.9408,53.555 2159.0708,55 C2262.9508,79.453 3012.4408,80.663 3119.0708,85 C3230.0108,89.512 3526.8808,46.664 3618.0708,110 C3676.0508,150.268 3693.5155,233.4583 3699.0355,275.8203 " fill="none" id="User-to-Edit Watchlist" style="stroke:#181818;stroke-width:1.0;stroke-dasharray:7.0,7.0;"/><polygon fill="#181818" points="3699.8108,281.77,3702.6143,272.3286,3699.1647,276.8119,3694.6814,273.3623,3699.8108,281.77" style="stroke:#181818;stroke-width:1.0;"/></g><!--link User to Remove Cryptos from Watchlist--><g id="link_User_Remove Cryptos from Watchlist"><path codeLine="52" d="M2140.6708,48.849 C2146.6308,51.357 2152.9308,53.576 2159.0708,55 C2291.8208,85.773 3248.9408,79.093 3385.0708,85 C3563.4708,92.741 3628.5408,25.914 3786.0708,110 C3858.2408,148.52 3903.4993,233.4807 3922.8493,276.2867 " fill="none" id="User-to-Remove Cryptos from Watchlist" style="stroke:#181818;stroke-width:1.0;stroke-dasharray:7.0,7.0;"/><polygon fill="#181818" points="3925.3208,281.754,3925.2585,271.9053,3923.2613,277.1979,3917.9687,275.2006,3925.3208,281.754" style="stroke:#181818;stroke-width:1.0;"/></g><!--link User to View Transaction History--><g id="link_User_View Transaction History"><path codeLine="57" d="M2140.6608,48.867 C2146.6308,51.374 2152.9308,53.587 2159.0708,55 C2315.3708,90.93 3441.8108,79.171 3602.0708,85 C3816.0008,92.781 3890.7208,16.057 4083.0708,110 C4160.5608,147.846 4214.2215,233.7591 4237.4815,276.6691 " fill="none" id="User-to-View Transaction History" style="stroke:#181818;stroke-width:1.0;stroke-dasharray:7.0,7.0;"/><polygon fill="#181818" points="4240.3408,281.944,4239.5684,272.1255,4237.958,277.5483,4232.5352,275.9379,4240.3408,281.944" style="stroke:#181818;stroke-width:1.0;"/></g><!--link User to Generate Charts--><g id="link_User_Generate Charts"><path codeLine="61" d="M2140.6608,48.883 C2146.6308,51.388 2152.9308,53.597 2159.0708,55 C2343.0408,96.989 3668.4808,78.767 3857.0708,85 C3971.8108,88.792 4274.6808,50.85 4373.0708,110 C4437.8908,148.968 4469.06,233.4093 4481.43,276.0753 " fill="none" id="User-to-Generate Charts" style="stroke:#181818;stroke-width:1.0;stroke-dasharray:7.0,7.0;"/><polygon fill="#181818" points="4483.1008,281.838,4484.4365,272.0801,4481.7085,277.0358,4476.7529,274.3078,4483.1008,281.838" style="stroke:#181818;stroke-width:1.0;"/></g><!--SRC=[ZLJ1Sjem4BtxApQ-vz8ZXywuG5AcJKWnIQQJwNHKQx4ro18Z2LAtmxzNjcHROA2SB4llxRvzgzKDnHKJ2DF7vMpv7J9Ej8vk_ERJOZwUfYaep0mHESVkP98iav_fShv8xgT0YI6_YEvFayLY_WgtRvJe0kcFsuzHvEC_QrJjEg4b4-rFF5RLnaYO_iuAcmfr34JtVnti4vVPscuo0OzetgLQDy1-kqFMgU2LS8x61VFhA6fE0dLE2OpyToo5KP8FOPqQ2_ssHLN1n5O-n0KQHx1KH6YI6IQ5WqSkIqXe8epgn2kMRnMfmITWOVuw5Co4mTp3ewv9dPUkO7WWWkHOeZ2GLjfW6SFV2BhcEgEIhIaiWcLDD8S069GMln3ERByHnWffJI1SnsUm7-uIc9KRtkHsSIro7uN9lTIPM4bLDXZuAkLwkpalmLdlYRKFBl-9_KFU7PgiSCQjb2o3gzQg2YmSUDVgERJjBEoWHAmDSz3-_5HfJqhk66snC453MEllQSOz2bHzU7k5gK9zaP8QgUniAxQhUL-mwj3xO-aFah9LTPNq5BbrhvLXE-2ubuGyRsYW_AZOWPQ9JN2bZGCjZdj9IpDxgdH8VrDx6Vl3rll0uMYVkW73B3F1xCJOAWAghtYGmbvMphIvChBjkx_w6fhHz_JuB6DAcRa6jy1Ixh0BtepE4Mq_6ElG6hlErapa5nuLXky7RdwseQMgXiz5CxqlJ6_jC_JdFqzLDnhZWYZZftp_3m00]--></g></svg>