<?xml version="1.0" encoding="us-ascii" standalone="no"?><svg xmlns="http://www.w3.org/2000/svg" xmlns:xlink="http://www.w3.org/1999/xlink" contentStyleType="text/css" height="415px" preserveAspectRatio="none" style="width:1179px;height:415px;background:#FFFFFF;" version="1.1" viewBox="0 0 1179 415" width="1179px" zoomAndPan="magnify"><defs/><g><!--cluster Crypto Wallet Management System--><g id="cluster_Crypto Wallet Management System"><rect fill="none" height="166" rx="2.5" ry="2.5" style="stroke:#181818;stroke-width:1.0;" width="823" x="7" y="243"/><text fill="#000000" font-family="sans-serif" font-size="14" font-weight="bold" lengthAdjust="spacing" textLength="286" x="275.5" y="257.9951">Crypto Wallet Management System</text></g><!--cluster User Registration--><g id="cluster_User Registration"><rect fill="none" height="99" rx="2.5" ry="2.5" style="stroke:#181818;stroke-width:1.0;" width="160" x="31" y="286"/><text fill="#000000" font-family="sans-serif" font-size="14" font-weight="bold" lengthAdjust="spacing" textLength="143" x="39.5" y="300.9951">User Registration</text></g><!--cluster Trading--><g id="cluster_Trading"><rect fill="none" height="99" rx="2.5" ry="2.5" style="stroke:#181818;stroke-width:1.0;" width="192" x="215" y="286"/><text fill="#000000" font-family="sans-serif" font-size="14" font-weight="bold" lengthAdjust="spacing" textLength="63" x="279.5" y="300.9951">Trading</text></g><!--cluster Account Management--><g id="cluster_Account Management"><rect fill="none" height="99" rx="2.5" ry="2.5" style="stroke:#181818;stroke-width:1.0;" width="193" x="431" y="286"/><text fill="#000000" font-family="sans-serif" font-size="14" font-weight="bold" lengthAdjust="spacing" textLength="177" x="439" y="300.9951">Account Management</text></g><!--cluster Data Processing--><g id="cluster_Data Processing"><rect fill="none" height="99" rx="2.5" ry="2.5" style="stroke:#181818;stroke-width:1.0;" width="158" x="648" y="286"/><text fill="#000000" font-family="sans-serif" font-size="14" font-weight="bold" lengthAdjust="spacing" textLength="132" x="661" y="300.9951">Data Processing</text></g><!--class Register User--><g id="elem_Register User"><rect fill="#F1F1F1" height="48" id="Register User" rx="2.5" ry="2.5" style="stroke:#181818;stroke-width:0.5;" width="128" x="47" y="321"/><ellipse cx="62" cy="337" fill="#ADD1B2" rx="11" ry="11" style="stroke:#181818;stroke-width:1.0;"/><path d="M64.3438,332.6719 C63.4063,332.2344 62.8125,332.0938 61.9375,332.0938 C59.3125,332.0938 57.3125,334.1719 57.3125,336.8906 L57.3125,338.0156 C57.3125,340.5938 59.4219,342.4844 62.3125,342.4844 C63.5313,342.4844 64.6875,342.1875 65.4375,341.6406 C66.0156,341.2344 66.3438,340.7813 66.3438,340.3906 C66.3438,339.9375 65.9531,339.5469 65.4844,339.5469 C65.2656,339.5469 65.0625,339.625 64.875,339.8125 C64.4219,340.2969 64.4219,340.2969 64.2344,340.3906 C63.8125,340.6563 63.125,340.7813 62.3594,340.7813 C60.3125,340.7813 59.0156,339.6875 59.0156,337.9844 L59.0156,336.8906 C59.0156,335.1094 60.2656,333.7969 62,333.7969 C62.5781,333.7969 63.1875,333.9531 63.6563,334.2031 C64.1406,334.4844 64.3125,334.7031 64.4063,335.1094 C64.4688,335.5156 64.5,335.6406 64.6406,335.7656 C64.7813,335.9063 65.0156,336.0156 65.2344,336.0156 C65.5,336.0156 65.7656,335.875 65.9375,335.6563 C66.0469,335.5 66.0781,335.3125 66.0781,334.8906 L66.0781,333.4688 C66.0781,333.0313 66.0625,332.9063 65.9688,332.75 C65.8125,332.4844 65.5313,332.3438 65.2344,332.3438 C64.9375,332.3438 64.7344,332.4375 64.5156,332.75 L64.3438,332.6719 Z " fill="#000000"/><text fill="#000000" font-family="sans-serif" font-size="14" lengthAdjust="spacing" textLength="96" x="76" y="341.8467">Register User</text><line style="stroke:#181818;stroke-width:0.5;" x1="48" x2="174" y1="353" y2="353"/><line style="stroke:#181818;stroke-width:0.5;" x1="48" x2="174" y1="361" y2="361"/></g><!--class Place Trade Order--><g id="elem_Place Trade Order"><rect fill="#F1F1F1" height="48" id="Place Trade Order" rx="2.5" ry="2.5" style="stroke:#181818;stroke-width:0.5;" width="160" x="231" y="321"/><ellipse cx="246" cy="337" fill="#ADD1B2" rx="11" ry="11" style="stroke:#181818;stroke-width:1.0;"/><path d="M248.3438,332.6719 C247.4063,332.2344 246.8125,332.0938 245.9375,332.0938 C243.3125,332.0938 241.3125,334.1719 241.3125,336.8906 L241.3125,338.0156 C241.3125,340.5938 243.4219,342.4844 246.3125,342.4844 C247.5313,342.4844 248.6875,342.1875 249.4375,341.6406 C250.0156,341.2344 250.3438,340.7813 250.3438,340.3906 C250.3438,339.9375 249.9531,339.5469 249.4844,339.5469 C249.2656,339.5469 249.0625,339.625 248.875,339.8125 C248.4219,340.2969 248.4219,340.2969 248.2344,340.3906 C247.8125,340.6563 247.125,340.7813 246.3594,340.7813 C244.3125,340.7813 243.0156,339.6875 243.0156,337.9844 L243.0156,336.8906 C243.0156,335.1094 244.2656,333.7969 246,333.7969 C246.5781,333.7969 247.1875,333.9531 247.6563,334.2031 C248.1406,334.4844 248.3125,334.7031 248.4063,335.1094 C248.4688,335.5156 248.5,335.6406 248.6406,335.7656 C248.7813,335.9063 249.0156,336.0156 249.2344,336.0156 C249.5,336.0156 249.7656,335.875 249.9375,335.6563 C250.0469,335.5 250.0781,335.3125 250.0781,334.8906 L250.0781,333.4688 C250.0781,333.0313 250.0625,332.9063 249.9688,332.75 C249.8125,332.4844 249.5313,332.3438 249.2344,332.3438 C248.9375,332.3438 248.7344,332.4375 248.5156,332.75 L248.3438,332.6719 Z " fill="#000000"/><text fill="#000000" font-family="sans-serif" font-size="14" lengthAdjust="spacing" textLength="128" x="260" y="341.8467">Place Trade Order</text><line style="stroke:#181818;stroke-width:0.5;" x1="232" x2="390" y1="353" y2="353"/><line style="stroke:#181818;stroke-width:0.5;" x1="232" x2="390" y1="361" y2="361"/></g><!--class Manage Account--><g id="elem_Manage Account"><rect fill="#F1F1F1" height="48" id="Manage Account" rx="2.5" ry="2.5" style="stroke:#181818;stroke-width:0.5;" width="150" x="447" y="321"/><ellipse cx="462" cy="337" fill="#ADD1B2" rx="11" ry="11" style="stroke:#181818;stroke-width:1.0;"/><path d="M464.3438,332.6719 C463.4063,332.2344 462.8125,332.0938 461.9375,332.0938 C459.3125,332.0938 457.3125,334.1719 457.3125,336.8906 L457.3125,338.0156 C457.3125,340.5938 459.4219,342.4844 462.3125,342.4844 C463.5313,342.4844 464.6875,342.1875 465.4375,341.6406 C466.0156,341.2344 466.3438,340.7813 466.3438,340.3906 C466.3438,339.9375 465.9531,339.5469 465.4844,339.5469 C465.2656,339.5469 465.0625,339.625 464.875,339.8125 C464.4219,340.2969 464.4219,340.2969 464.2344,340.3906 C463.8125,340.6563 463.125,340.7813 462.3594,340.7813 C460.3125,340.7813 459.0156,339.6875 459.0156,337.9844 L459.0156,336.8906 C459.0156,335.1094 460.2656,333.7969 462,333.7969 C462.5781,333.7969 463.1875,333.9531 463.6563,334.2031 C464.1406,334.4844 464.3125,334.7031 464.4063,335.1094 C464.4688,335.5156 464.5,335.6406 464.6406,335.7656 C464.7813,335.9063 465.0156,336.0156 465.2344,336.0156 C465.5,336.0156 465.7656,335.875 465.9375,335.6563 C466.0469,335.5 466.0781,335.3125 466.0781,334.8906 L466.0781,333.4688 C466.0781,333.0313 466.0625,332.9063 465.9688,332.75 C465.8125,332.4844 465.5313,332.3438 465.2344,332.3438 C464.9375,332.3438 464.7344,332.4375 464.5156,332.75 L464.3438,332.6719 Z " fill="#000000"/><text fill="#000000" font-family="sans-serif" font-size="14" lengthAdjust="spacing" textLength="118" x="476" y="341.8467">Manage Account</text><line style="stroke:#181818;stroke-width:0.5;" x1="448" x2="596" y1="353" y2="353"/><line style="stroke:#181818;stroke-width:0.5;" x1="448" x2="596" y1="361" y2="361"/></g><!--class Process Data--><g id="elem_Process Data"><rect fill="#F1F1F1" height="48" id="Process Data" rx="2.5" ry="2.5" style="stroke:#181818;stroke-width:0.5;" width="125" x="664.5" y="321"/><ellipse cx="679.5" cy="337" fill="#ADD1B2" rx="11" ry="11" style="stroke:#181818;stroke-width:1.0;"/><path d="M681.8438,332.6719 C680.9063,332.2344 680.3125,332.0938 679.4375,332.0938 C676.8125,332.0938 674.8125,334.1719 674.8125,336.8906 L674.8125,338.0156 C674.8125,340.5938 676.9219,342.4844 679.8125,342.4844 C681.0313,342.4844 682.1875,342.1875 682.9375,341.6406 C683.5156,341.2344 683.8438,340.7813 683.8438,340.3906 C683.8438,339.9375 683.4531,339.5469 682.9844,339.5469 C682.7656,339.5469 682.5625,339.625 682.375,339.8125 C681.9219,340.2969 681.9219,340.2969 681.7344,340.3906 C681.3125,340.6563 680.625,340.7813 679.8594,340.7813 C677.8125,340.7813 676.5156,339.6875 676.5156,337.9844 L676.5156,336.8906 C676.5156,335.1094 677.7656,333.7969 679.5,333.7969 C680.0781,333.7969 680.6875,333.9531 681.1563,334.2031 C681.6406,334.4844 681.8125,334.7031 681.9063,335.1094 C681.9688,335.5156 682,335.6406 682.1406,335.7656 C682.2813,335.9063 682.5156,336.0156 682.7344,336.0156 C683,336.0156 683.2656,335.875 683.4375,335.6563 C683.5469,335.5 683.5781,335.3125 683.5781,334.8906 L683.5781,333.4688 C683.5781,333.0313 683.5625,332.9063 683.4688,332.75 C683.3125,332.4844 683.0313,332.3438 682.7344,332.3438 C682.4375,332.3438 682.2344,332.4375 682.0156,332.75 L681.8438,332.6719 Z " fill="#000000"/><text fill="#000000" font-family="sans-serif" font-size="14" lengthAdjust="spacing" textLength="93" x="693.5" y="341.8467">Process Data</text><line style="stroke:#181818;stroke-width:0.5;" x1="665.5" x2="788.5" y1="353" y2="353"/><line style="stroke:#181818;stroke-width:0.5;" x1="665.5" x2="788.5" y1="361" y2="361"/></g><!--class Users--><g id="elem_Users"><rect codeLine="5" fill="#F1F1F1" height="48" id="Users" rx="2.5" ry="2.5" style="stroke:#181818;stroke-width:0.5;" width="70" x="364" y="7"/><ellipse cx="379" cy="23" fill="#ADD1B2" rx="11" ry="11" style="stroke:#181818;stroke-width:1.0;"/><path d="M377.7969,23.875 L379.25,23.875 L379.25,23.9844 C379.25,24.3906 379.2813,24.5469 379.3594,24.7031 C379.5156,24.9531 379.7969,25.1094 380.0938,25.1094 C380.3438,25.1094 380.6094,24.9688 380.7656,24.75 C380.8906,24.5938 380.9219,24.4375 380.9219,23.9844 L380.9219,22.0625 C380.9219,21.9063 380.9219,21.8594 380.9063,21.7031 C380.8438,21.2344 380.5313,20.9219 380.0781,20.9219 C379.8281,20.9219 379.5625,21.0625 379.3906,21.2813 C379.2813,21.4531 379.25,21.6094 379.25,22.0625 L379.25,22.1875 L377.7969,22.1875 L377.7969,19.7813 L381.7813,19.7813 L381.7813,20.6406 C381.7813,21.0469 381.8125,21.2188 381.8906,21.375 C382.0625,21.625 382.3438,21.7813 382.625,21.7813 C382.8906,21.7813 383.1563,21.6406 383.3281,21.4219 C383.4375,21.25 383.4688,21.1094 383.4688,20.6406 L383.4688,18.0938 L375.8438,18.0938 C375.4063,18.0938 375.2813,18.1094 375.125,18.2031 C374.875,18.3594 374.7188,18.6563 374.7188,18.9375 C374.7188,19.2188 374.8594,19.4688 375.0781,19.6406 C375.2344,19.75 375.4219,19.7813 375.8438,19.7813 L376.0938,19.7813 L376.0938,26.2969 L375.8438,26.2969 C375.4375,26.2969 375.2813,26.3125 375.125,26.4219 C374.875,26.5938 374.7188,26.8594 374.7188,27.1563 C374.7188,27.4219 374.8594,27.6719 375.0781,27.8281 C375.2188,27.9531 375.4531,28 375.8438,28 L383.8438,28 L383.8438,25.4219 C383.8438,24.9844 383.8125,24.8438 383.7344,24.6875 C383.5625,24.4375 383.2813,24.2813 383,24.2813 C382.7344,24.2813 382.4688,24.3906 382.2969,24.6406 C382.1875,24.7969 382.1563,24.9375 382.1563,25.4219 L382.1563,26.2969 L377.7969,26.2969 L377.7969,23.875 Z " fill="#000000"/><text fill="#000000" font-family="sans-serif" font-size="14" lengthAdjust="spacing" textLength="38" x="393" y="27.8467">Users</text><line style="stroke:#181818;stroke-width:0.5;" x1="365" x2="433" y1="39" y2="39"/><line style="stroke:#181818;stroke-width:0.5;" x1="365" x2="433" y1="47" y2="47"/></g><!--class Admins--><g id="elem_Admins"><rect codeLine="6" fill="#F1F1F1" height="48" id="Admins" rx="2.5" ry="2.5" style="stroke:#181818;stroke-width:0.5;" width="85" x="822.5" y="7"/><ellipse cx="837.5" cy="23" fill="#ADD1B2" rx="11" ry="11" style="stroke:#181818;stroke-width:1.0;"/><path d="M836.2969,23.875 L837.75,23.875 L837.75,23.9844 C837.75,24.3906 837.7813,24.5469 837.8594,24.7031 C838.0156,24.9531 838.2969,25.1094 838.5938,25.1094 C838.8438,25.1094 839.1094,24.9688 839.2656,24.75 C839.3906,24.5938 839.4219,24.4375 839.4219,23.9844 L839.4219,22.0625 C839.4219,21.9063 839.4219,21.8594 839.4063,21.7031 C839.3438,21.2344 839.0313,20.9219 838.5781,20.9219 C838.3281,20.9219 838.0625,21.0625 837.8906,21.2813 C837.7813,21.4531 837.75,21.6094 837.75,22.0625 L837.75,22.1875 L836.2969,22.1875 L836.2969,19.7813 L840.2813,19.7813 L840.2813,20.6406 C840.2813,21.0469 840.3125,21.2188 840.3906,21.375 C840.5625,21.625 840.8438,21.7813 841.125,21.7813 C841.3906,21.7813 841.6563,21.6406 841.8281,21.4219 C841.9375,21.25 841.9688,21.1094 841.9688,20.6406 L841.9688,18.0938 L834.3438,18.0938 C833.9063,18.0938 833.7813,18.1094 833.625,18.2031 C833.375,18.3594 833.2188,18.6563 833.2188,18.9375 C833.2188,19.2188 833.3594,19.4688 833.5781,19.6406 C833.7344,19.75 833.9219,19.7813 834.3438,19.7813 L834.5938,19.7813 L834.5938,26.2969 L834.3438,26.2969 C833.9375,26.2969 833.7813,26.3125 833.625,26.4219 C833.375,26.5938 833.2188,26.8594 833.2188,27.1563 C833.2188,27.4219 833.3594,27.6719 833.5781,27.8281 C833.7188,27.9531 833.9531,28 834.3438,28 L842.3438,28 L842.3438,25.4219 C842.3438,24.9844 842.3125,24.8438 842.2344,24.6875 C842.0625,24.4375 841.7813,24.2813 841.5,24.2813 C841.2344,24.2813 840.9688,24.3906 840.7969,24.6406 C840.6875,24.7969 840.6563,24.9375 840.6563,25.4219 L840.6563,26.2969 L836.2969,26.2969 L836.2969,23.875 Z " fill="#000000"/><text fill="#000000" font-family="sans-serif" font-size="14" lengthAdjust="spacing" textLength="53" x="851.5" y="27.8467">Admins</text><line style="stroke:#181818;stroke-width:0.5;" x1="823.5" x2="906.5" y1="39" y2="39"/><line style="stroke:#181818;stroke-width:0.5;" x1="823.5" x2="906.5" y1="47" y2="47"/></g><!--class ExternalData--><g id="elem_ExternalData"><rect codeLine="7" fill="#F1F1F1" height="48" id="ExternalData" rx="2.5" ry="2.5" style="stroke:#181818;stroke-width:0.5;" width="190" x="770" y="132"/><ellipse cx="785" cy="148" fill="#ADD1B2" rx="11" ry="11" style="stroke:#181818;stroke-width:1.0;"/><path d="M783.7969,148.875 L785.25,148.875 L785.25,148.9844 C785.25,149.3906 785.2813,149.5469 785.3594,149.7031 C785.5156,149.9531 785.7969,150.1094 786.0938,150.1094 C786.3438,150.1094 786.6094,149.9688 786.7656,149.75 C786.8906,149.5938 786.9219,149.4375 786.9219,148.9844 L786.9219,147.0625 C786.9219,146.9063 786.9219,146.8594 786.9063,146.7031 C786.8438,146.2344 786.5313,145.9219 786.0781,145.9219 C785.8281,145.9219 785.5625,146.0625 785.3906,146.2813 C785.2813,146.4531 785.25,146.6094 785.25,147.0625 L785.25,147.1875 L783.7969,147.1875 L783.7969,144.7813 L787.7813,144.7813 L787.7813,145.6406 C787.7813,146.0469 787.8125,146.2188 787.8906,146.375 C788.0625,146.625 788.3438,146.7813 788.625,146.7813 C788.8906,146.7813 789.1563,146.6406 789.3281,146.4219 C789.4375,146.25 789.4688,146.1094 789.4688,145.6406 L789.4688,143.0938 L781.8438,143.0938 C781.4063,143.0938 781.2813,143.1094 781.125,143.2031 C780.875,143.3594 780.7188,143.6563 780.7188,143.9375 C780.7188,144.2188 780.8594,144.4688 781.0781,144.6406 C781.2344,144.75 781.4219,144.7813 781.8438,144.7813 L782.0938,144.7813 L782.0938,151.2969 L781.8438,151.2969 C781.4375,151.2969 781.2813,151.3125 781.125,151.4219 C780.875,151.5938 780.7188,151.8594 780.7188,152.1563 C780.7188,152.4219 780.8594,152.6719 781.0781,152.8281 C781.2188,152.9531 781.4531,153 781.8438,153 L789.8438,153 L789.8438,150.4219 C789.8438,149.9844 789.8125,149.8438 789.7344,149.6875 C789.5625,149.4375 789.2813,149.2813 789,149.2813 C788.7344,149.2813 788.4688,149.3906 788.2969,149.6406 C788.1875,149.7969 788.1563,149.9375 788.1563,150.4219 L788.1563,151.2969 L783.7969,151.2969 L783.7969,148.875 Z " fill="#000000"/><text fill="#000000" font-family="sans-serif" font-size="14" lengthAdjust="spacing" textLength="158" x="799" y="152.8467">External Data Sources</text><line style="stroke:#181818;stroke-width:0.5;" x1="771" x2="959" y1="164" y2="164"/><line style="stroke:#181818;stroke-width:0.5;" x1="771" x2="959" y1="172" y2="172"/></g><!--class UserAccounts--><g id="elem_UserAccounts"><rect codeLine="8" fill="#F1F1F1" height="48" id="UserAccounts" rx="2.5" ry="2.5" style="stroke:#181818;stroke-width:0.5;" width="133" x="846.5" y="321"/><ellipse cx="861.5" cy="337" fill="#ADD1B2" rx="11" ry="11" style="stroke:#181818;stroke-width:1.0;"/><path d="M860.2969,337.875 L861.75,337.875 L861.75,337.9844 C861.75,338.3906 861.7813,338.5469 861.8594,338.7031 C862.0156,338.9531 862.2969,339.1094 862.5938,339.1094 C862.8438,339.1094 863.1094,338.9688 863.2656,338.75 C863.3906,338.5938 863.4219,338.4375 863.4219,337.9844 L863.4219,336.0625 C863.4219,335.9063 863.4219,335.8594 863.4063,335.7031 C863.3438,335.2344 863.0313,334.9219 862.5781,334.9219 C862.3281,334.9219 862.0625,335.0625 861.8906,335.2813 C861.7813,335.4531 861.75,335.6094 861.75,336.0625 L861.75,336.1875 L860.2969,336.1875 L860.2969,333.7813 L864.2813,333.7813 L864.2813,334.6406 C864.2813,335.0469 864.3125,335.2188 864.3906,335.375 C864.5625,335.625 864.8438,335.7813 865.125,335.7813 C865.3906,335.7813 865.6563,335.6406 865.8281,335.4219 C865.9375,335.25 865.9688,335.1094 865.9688,334.6406 L865.9688,332.0938 L858.3438,332.0938 C857.9063,332.0938 857.7813,332.1094 857.625,332.2031 C857.375,332.3594 857.2188,332.6563 857.2188,332.9375 C857.2188,333.2188 857.3594,333.4688 857.5781,333.6406 C857.7344,333.75 857.9219,333.7813 858.3438,333.7813 L858.5938,333.7813 L858.5938,340.2969 L858.3438,340.2969 C857.9375,340.2969 857.7813,340.3125 857.625,340.4219 C857.375,340.5938 857.2188,340.8594 857.2188,341.1563 C857.2188,341.4219 857.3594,341.6719 857.5781,341.8281 C857.7188,341.9531 857.9531,342 858.3438,342 L866.3438,342 L866.3438,339.4219 C866.3438,338.9844 866.3125,338.8438 866.2344,338.6875 C866.0625,338.4375 865.7813,338.2813 865.5,338.2813 C865.2344,338.2813 864.9688,338.3906 864.7969,338.6406 C864.6875,338.7969 864.6563,338.9375 864.6563,339.4219 L864.6563,340.2969 L860.2969,340.2969 L860.2969,337.875 Z " fill="#000000"/><text fill="#000000" font-family="sans-serif" font-size="14" lengthAdjust="spacing" textLength="101" x="875.5" y="341.8467">User Accounts</text><line style="stroke:#181818;stroke-width:0.5;" x1="847.5" x2="978.5" y1="353" y2="353"/><line style="stroke:#181818;stroke-width:0.5;" x1="847.5" x2="978.5" y1="361" y2="361"/></g><!--class TradeRecords--><g id="elem_TradeRecords"><rect codeLine="9" fill="#F1F1F1" height="48" id="TradeRecords" rx="2.5" ry="2.5" style="stroke:#181818;stroke-width:0.5;" width="135" x="1015.5" y="321"/><ellipse cx="1030.5" cy="337" fill="#ADD1B2" rx="11" ry="11" style="stroke:#181818;stroke-width:1.0;"/><path d="M1029.2969,337.875 L1030.75,337.875 L1030.75,337.9844 C1030.75,338.3906 1030.7813,338.5469 1030.8594,338.7031 C1031.0156,338.9531 1031.2969,339.1094 1031.5938,339.1094 C1031.8438,339.1094 1032.1094,338.9688 1032.2656,338.75 C1032.3906,338.5938 1032.4219,338.4375 1032.4219,337.9844 L1032.4219,336.0625 C1032.4219,335.9063 1032.4219,335.8594 1032.4063,335.7031 C1032.3438,335.2344 1032.0313,334.9219 1031.5781,334.9219 C1031.3281,334.9219 1031.0625,335.0625 1030.8906,335.2813 C1030.7813,335.4531 1030.75,335.6094 1030.75,336.0625 L1030.75,336.1875 L1029.2969,336.1875 L1029.2969,333.7813 L1033.2813,333.7813 L1033.2813,334.6406 C1033.2813,335.0469 1033.3125,335.2188 1033.3906,335.375 C1033.5625,335.625 1033.8438,335.7813 1034.125,335.7813 C1034.3906,335.7813 1034.6563,335.6406 1034.8281,335.4219 C1034.9375,335.25 1034.9688,335.1094 1034.9688,334.6406 L1034.9688,332.0938 L1027.3438,332.0938 C1026.9063,332.0938 1026.7813,332.1094 1026.625,332.2031 C1026.375,332.3594 1026.2188,332.6563 1026.2188,332.9375 C1026.2188,333.2188 1026.3594,333.4688 1026.5781,333.6406 C1026.7344,333.75 1026.9219,333.7813 1027.3438,333.7813 L1027.5938,333.7813 L1027.5938,340.2969 L1027.3438,340.2969 C1026.9375,340.2969 1026.7813,340.3125 1026.625,340.4219 C1026.375,340.5938 1026.2188,340.8594 1026.2188,341.1563 C1026.2188,341.4219 1026.3594,341.6719 1026.5781,341.8281 C1026.7188,341.9531 1026.9531,342 1027.3438,342 L1035.3438,342 L1035.3438,339.4219 C1035.3438,338.9844 1035.3125,338.8438 1035.2344,338.6875 C1035.0625,338.4375 1034.7813,338.2813 1034.5,338.2813 C1034.2344,338.2813 1033.9688,338.3906 1033.7969,338.6406 C1033.6875,338.7969 1033.6563,338.9375 1033.6563,339.4219 L1033.6563,340.2969 L1029.2969,340.2969 L1029.2969,337.875 Z " fill="#000000"/><text fill="#000000" font-family="sans-serif" font-size="14" lengthAdjust="spacing" textLength="103" x="1044.5" y="341.8467">Trade Records</text><line style="stroke:#181818;stroke-width:0.5;" x1="1016.5" x2="1149.5" y1="353" y2="353"/><line style="stroke:#181818;stroke-width:0.5;" x1="1016.5" x2="1149.5" y1="361" y2="361"/></g><!--link Users to ExternalData--><g id="link_Users_ExternalData"><path codeLine="11" d="M434.026,41.245 C506.31,60.324 668.0977,103.0277 771.6997,130.3737 " fill="none" id="Users-to-ExternalData" style="stroke:#181818;stroke-width:1.0;stroke-dasharray:7.0,7.0;"/><polygon fill="#181818" points="777.501,131.905,769.8199,125.7406,772.6666,130.6289,767.7782,133.4756,777.501,131.905" style="stroke:#181818;stroke-width:1.0;"/><text fill="#000000" font-family="sans-serif" font-size="13" lengthAdjust="spacing" textLength="88" x="660" y="98.0669">Data Request</text></g><!--link Admins to ExternalData--><g id="link_Admins_ExternalData"><path codeLine="12" d="M865,55.135 C865,77.126 865,104.012 865,125.968 " fill="none" id="Admins-to-ExternalData" style="stroke:#181818;stroke-width:1.0;stroke-dasharray:7.0,7.0;"/><polygon fill="#181818" points="865,131.968,869,122.968,865,126.968,861,122.968,865,131.968" style="stroke:#181818;stroke-width:1.0;"/><text fill="#000000" font-family="sans-serif" font-size="13" lengthAdjust="spacing" textLength="121" x="866" y="98.0669">Data Configuration</text></g><!--link Users to Register User--><g id="link_Users_Register User"><path codeLine="16" d="M377.588,55.196 C324.271,112.956 190.0887,258.3202 136.6217,316.2422 " fill="none" id="Users-to-Register User" style="stroke:#181818;stroke-width:1.0;stroke-dasharray:7.0,7.0;"/><polygon fill="#181818" points="132.552,320.651,141.5958,316.7509,135.9434,316.977,135.7174,311.3247,132.552,320.651" style="stroke:#181818;stroke-width:1.0;"/></g><!--link Users to Place Trade Order--><g id="link_Users_Place Trade Order"><path codeLine="20" d="M392.458,55.196 C376.166,112.956 335.5519,256.9543 319.2139,314.8763 " fill="none" id="Users-to-Place Trade Order" style="stroke:#181818;stroke-width:1.0;stroke-dasharray:7.0,7.0;"/><polygon fill="#181818" points="317.585,320.651,323.8781,313.0749,318.9424,315.8388,316.1785,310.9031,317.585,320.651" style="stroke:#181818;stroke-width:1.0;"/></g><!--link Users to Manage Account--><g id="link_Users_Manage Account"><path codeLine="24" d="M408.145,55.196 C430.916,112.956 487.7594,257.1471 510.5944,315.0691 " fill="none" id="Users-to-Manage Account" style="stroke:#181818;stroke-width:1.0;stroke-dasharray:7.0,7.0;"/><polygon fill="#181818" points="512.795,320.651,513.2154,310.8111,510.9612,315.9994,505.7729,313.7452,512.795,320.651" style="stroke:#181818;stroke-width:1.0;"/></g><!--link ExternalData to Process Data--><g id="link_ExternalData_Process Data"><path codeLine="28" d="M847.801,180.306 C821.212,216.336 774.0017,280.3093 747.5447,316.1603 " fill="none" id="ExternalData-to-Process Data" style="stroke:#181818;stroke-width:1.0;stroke-dasharray:7.0,7.0;"/><polygon fill="#181818" points="743.982,320.988,752.5446,316.1216,746.9509,316.9649,746.1076,311.3713,743.982,320.988" style="stroke:#181818;stroke-width:1.0;"/></g><!--link ExternalData to UserAccounts--><g id="link_ExternalData_UserAccounts"><path codeLine="29" d="M870.982,180.306 C880.231,216.336 896.3993,279.3254 905.6013,315.1764 " fill="none" id="ExternalData-to-UserAccounts" style="stroke:#181818;stroke-width:1.0;stroke-dasharray:7.0,7.0;"/><polygon fill="#181818" points="907.093,320.988,908.7299,311.2761,905.8499,316.145,900.9811,313.265,907.093,320.988" style="stroke:#181818;stroke-width:1.0;"/><text fill="#000000" font-family="sans-serif" font-size="13" lengthAdjust="spacing" textLength="130" x="882" y="223.0669">Update Account Info</text></g><!--link ExternalData to TradeRecords--><g id="link_ExternalData_TradeRecords"><path codeLine="30" d="M960.287,175.864 C982.101,183.648 1003.88,194.602 1021,210 C1054.26,239.912 1069.5513,285.4786 1076.8313,315.1716 " fill="none" id="ExternalData-to-TradeRecords" style="stroke:#181818;stroke-width:1.0;stroke-dasharray:7.0,7.0;"/><polygon fill="#181818" points="1078.26,320.999,1080.0018,311.3054,1077.0694,316.1428,1072.232,313.2104,1078.26,320.999" style="stroke:#181818;stroke-width:1.0;"/><text fill="#000000" font-family="sans-serif" font-size="13" lengthAdjust="spacing" textLength="136" x="1035" y="223.0669">Update Trade History</text></g><!--SRC=[XLB1QiCm3BtxArJV-mCx34eNM0zRIf9InjZ1n6fcIEtELc1XzD-NHgcRq97TZDxJqzEJ5neFnY8ahyMcU0EqPAWLYw6wpT9rakVWiIHbgneZiigoT0_BTwt29-gFvQCGWuJS1VH1WWhGls9zfO_6Ci3FY2JVXDwg6fuKASXTuqjauXMv09C1i2fBrrYw3ReM8gtmIYDaM3glcTPNXe8GlRln2fDfyC1kClngC91Wo__IryuUJDLuHSPP8M9m8DU-FP63lQfh97XHLbLuxFA6l0s4Hma_0cBWl6E6bGd4Mem3tBkMJElu5qnshBCOIrssDhQQ4TZMgaHE1rAl_n8PqXtvdj5ZqlL4zs9zKbllkYk7aRD9dbE3pEqZblFSyLVeZh8xQKNH2cpimSttZ__8hP-pUUvYThxjzpd_0W00]--></g></svg>