<?xml version="1.0" encoding="us-ascii" standalone="no"?><svg xmlns="http://www.w3.org/2000/svg" xmlns:xlink="http://www.w3.org/1999/xlink" contentStyleType="text/css" height="415px" preserveAspectRatio="none" style="width:990px;height:415px;background:#FFFFFF;" version="1.1" viewBox="0 0 990 415" width="990px" zoomAndPan="magnify"><defs/><g><!--cluster Crypto Wallet System--><g id="cluster_Crypto Wallet System"><rect fill="none" height="166" rx="2.5" ry="2.5" style="stroke:#181818;stroke-width:1.0;" width="460" x="524.5" y="243"/><text fill="#000000" font-family="sans-serif" font-size="14" font-weight="bold" lengthAdjust="spacing" textLength="176" x="666.5" y="257.9951">Crypto Wallet System</text></g><!--cluster User Authentication--><g id="cluster_User Authentication"><rect fill="none" height="99" rx="2.5" ry="2.5" style="stroke:#181818;stroke-width:1.0;" width="180" x="548.5" y="286"/><text fill="#000000" font-family="sans-serif" font-size="14" font-weight="bold" lengthAdjust="spacing" textLength="164" x="556.5" y="300.9951">User Authentication</text></g><!--cluster Crypto Information--><g id="cluster_Crypto Information"><rect fill="none" height="99" rx="2.5" ry="2.5" style="stroke:#181818;stroke-width:1.0;" width="208" x="752.5" y="286"/><text fill="#000000" font-family="sans-serif" font-size="14" font-weight="bold" lengthAdjust="spacing" textLength="156" x="778.5" y="300.9951">Crypto Information</text></g><!--class Secure Login--><g id="elem_Secure Login"><rect fill="#F1F1F1" height="48" id="Secure Login" rx="2.5" ry="2.5" style="stroke:#181818;stroke-width:0.5;" width="124" x="564.5" y="321"/><ellipse cx="579.5" cy="337" fill="#ADD1B2" rx="11" ry="11" style="stroke:#181818;stroke-width:1.0;"/><path d="M581.8438,332.6719 C580.9063,332.2344 580.3125,332.0938 579.4375,332.0938 C576.8125,332.0938 574.8125,334.1719 574.8125,336.8906 L574.8125,338.0156 C574.8125,340.5938 576.9219,342.4844 579.8125,342.4844 C581.0313,342.4844 582.1875,342.1875 582.9375,341.6406 C583.5156,341.2344 583.8438,340.7813 583.8438,340.3906 C583.8438,339.9375 583.4531,339.5469 582.9844,339.5469 C582.7656,339.5469 582.5625,339.625 582.375,339.8125 C581.9219,340.2969 581.9219,340.2969 581.7344,340.3906 C581.3125,340.6563 580.625,340.7813 579.8594,340.7813 C577.8125,340.7813 576.5156,339.6875 576.5156,337.9844 L576.5156,336.8906 C576.5156,335.1094 577.7656,333.7969 579.5,333.7969 C580.0781,333.7969 580.6875,333.9531 581.1563,334.2031 C581.6406,334.4844 581.8125,334.7031 581.9063,335.1094 C581.9688,335.5156 582,335.6406 582.1406,335.7656 C582.2813,335.9063 582.5156,336.0156 582.7344,336.0156 C583,336.0156 583.2656,335.875 583.4375,335.6563 C583.5469,335.5 583.5781,335.3125 583.5781,334.8906 L583.5781,333.4688 C583.5781,333.0313 583.5625,332.9063 583.4688,332.75 C583.3125,332.4844 583.0313,332.3438 582.7344,332.3438 C582.4375,332.3438 582.2344,332.4375 582.0156,332.75 L581.8438,332.6719 Z " fill="#000000"/><text fill="#000000" font-family="sans-serif" font-size="14" lengthAdjust="spacing" textLength="92" x="593.5" y="341.8467">Secure Login</text><line style="stroke:#181818;stroke-width:0.5;" x1="565.5" x2="687.5" y1="353" y2="353"/><line style="stroke:#181818;stroke-width:0.5;" x1="565.5" x2="687.5" y1="361" y2="361"/></g><!--class Cryptocurrency Info--><g id="elem_Cryptocurrency Info"><rect fill="#F1F1F1" height="48" id="Cryptocurrency Info" rx="2.5" ry="2.5" style="stroke:#181818;stroke-width:0.5;" width="176" x="768.5" y="321"/><ellipse cx="783.5" cy="337" fill="#ADD1B2" rx="11" ry="11" style="stroke:#181818;stroke-width:1.0;"/><path d="M785.8438,332.6719 C784.9063,332.2344 784.3125,332.0938 783.4375,332.0938 C780.8125,332.0938 778.8125,334.1719 778.8125,336.8906 L778.8125,338.0156 C778.8125,340.5938 780.9219,342.4844 783.8125,342.4844 C785.0313,342.4844 786.1875,342.1875 786.9375,341.6406 C787.5156,341.2344 787.8438,340.7813 787.8438,340.3906 C787.8438,339.9375 787.4531,339.5469 786.9844,339.5469 C786.7656,339.5469 786.5625,339.625 786.375,339.8125 C785.9219,340.2969 785.9219,340.2969 785.7344,340.3906 C785.3125,340.6563 784.625,340.7813 783.8594,340.7813 C781.8125,340.7813 780.5156,339.6875 780.5156,337.9844 L780.5156,336.8906 C780.5156,335.1094 781.7656,333.7969 783.5,333.7969 C784.0781,333.7969 784.6875,333.9531 785.1563,334.2031 C785.6406,334.4844 785.8125,334.7031 785.9063,335.1094 C785.9688,335.5156 786,335.6406 786.1406,335.7656 C786.2813,335.9063 786.5156,336.0156 786.7344,336.0156 C787,336.0156 787.2656,335.875 787.4375,335.6563 C787.5469,335.5 787.5781,335.3125 787.5781,334.8906 L787.5781,333.4688 C787.5781,333.0313 787.5625,332.9063 787.4688,332.75 C787.3125,332.4844 787.0313,332.3438 786.7344,332.3438 C786.4375,332.3438 786.2344,332.4375 786.0156,332.75 L785.8438,332.6719 Z " fill="#000000"/><text fill="#000000" font-family="sans-serif" font-size="14" lengthAdjust="spacing" textLength="144" x="797.5" y="341.8467">Cryptocurrency Info</text><line style="stroke:#181818;stroke-width:0.5;" x1="769.5" x2="943.5" y1="353" y2="353"/><line style="stroke:#181818;stroke-width:0.5;" x1="769.5" x2="943.5" y1="361" y2="361"/></g><!--class Users--><g id="elem_Users"><rect codeLine="5" fill="#F1F1F1" height="48" id="Users" rx="2.5" ry="2.5" style="stroke:#181818;stroke-width:0.5;" width="70" x="412.5" y="132"/><ellipse cx="427.5" cy="148" fill="#ADD1B2" rx="11" ry="11" style="stroke:#181818;stroke-width:1.0;"/><path d="M426.2969,148.875 L427.75,148.875 L427.75,148.9844 C427.75,149.3906 427.7813,149.5469 427.8594,149.7031 C428.0156,149.9531 428.2969,150.1094 428.5938,150.1094 C428.8438,150.1094 429.1094,149.9688 429.2656,149.75 C429.3906,149.5938 429.4219,149.4375 429.4219,148.9844 L429.4219,147.0625 C429.4219,146.9063 429.4219,146.8594 429.4063,146.7031 C429.3438,146.2344 429.0313,145.9219 428.5781,145.9219 C428.3281,145.9219 428.0625,146.0625 427.8906,146.2813 C427.7813,146.4531 427.75,146.6094 427.75,147.0625 L427.75,147.1875 L426.2969,147.1875 L426.2969,144.7813 L430.2813,144.7813 L430.2813,145.6406 C430.2813,146.0469 430.3125,146.2188 430.3906,146.375 C430.5625,146.625 430.8438,146.7813 431.125,146.7813 C431.3906,146.7813 431.6563,146.6406 431.8281,146.4219 C431.9375,146.25 431.9688,146.1094 431.9688,145.6406 L431.9688,143.0938 L424.3438,143.0938 C423.9063,143.0938 423.7813,143.1094 423.625,143.2031 C423.375,143.3594 423.2188,143.6563 423.2188,143.9375 C423.2188,144.2188 423.3594,144.4688 423.5781,144.6406 C423.7344,144.75 423.9219,144.7813 424.3438,144.7813 L424.5938,144.7813 L424.5938,151.2969 L424.3438,151.2969 C423.9375,151.2969 423.7813,151.3125 423.625,151.4219 C423.375,151.5938 423.2188,151.8594 423.2188,152.1563 C423.2188,152.4219 423.3594,152.6719 423.5781,152.8281 C423.7188,152.9531 423.9531,153 424.3438,153 L432.3438,153 L432.3438,150.4219 C432.3438,149.9844 432.3125,149.8438 432.2344,149.6875 C432.0625,149.4375 431.7813,149.2813 431.5,149.2813 C431.2344,149.2813 430.9688,149.3906 430.7969,149.6406 C430.6875,149.7969 430.6563,149.9375 430.6563,150.4219 L430.6563,151.2969 L426.2969,151.2969 L426.2969,148.875 Z " fill="#000000"/><text fill="#000000" font-family="sans-serif" font-size="14" lengthAdjust="spacing" textLength="38" x="441.5" y="152.8467">Users</text><line style="stroke:#181818;stroke-width:0.5;" x1="413.5" x2="481.5" y1="164" y2="164"/><line style="stroke:#181818;stroke-width:0.5;" x1="413.5" x2="481.5" y1="172" y2="172"/></g><!--class Admin--><g id="elem_Admin"><rect codeLine="6" fill="#F1F1F1" height="48" id="Admin" rx="2.5" ry="2.5" style="stroke:#181818;stroke-width:0.5;" width="78" x="408.5" y="7"/><ellipse cx="423.5" cy="23" fill="#ADD1B2" rx="11" ry="11" style="stroke:#181818;stroke-width:1.0;"/><path d="M422.2969,23.875 L423.75,23.875 L423.75,23.9844 C423.75,24.3906 423.7813,24.5469 423.8594,24.7031 C424.0156,24.9531 424.2969,25.1094 424.5938,25.1094 C424.8438,25.1094 425.1094,24.9688 425.2656,24.75 C425.3906,24.5938 425.4219,24.4375 425.4219,23.9844 L425.4219,22.0625 C425.4219,21.9063 425.4219,21.8594 425.4063,21.7031 C425.3438,21.2344 425.0313,20.9219 424.5781,20.9219 C424.3281,20.9219 424.0625,21.0625 423.8906,21.2813 C423.7813,21.4531 423.75,21.6094 423.75,22.0625 L423.75,22.1875 L422.2969,22.1875 L422.2969,19.7813 L426.2813,19.7813 L426.2813,20.6406 C426.2813,21.0469 426.3125,21.2188 426.3906,21.375 C426.5625,21.625 426.8438,21.7813 427.125,21.7813 C427.3906,21.7813 427.6563,21.6406 427.8281,21.4219 C427.9375,21.25 427.9688,21.1094 427.9688,20.6406 L427.9688,18.0938 L420.3438,18.0938 C419.9063,18.0938 419.7813,18.1094 419.625,18.2031 C419.375,18.3594 419.2188,18.6563 419.2188,18.9375 C419.2188,19.2188 419.3594,19.4688 419.5781,19.6406 C419.7344,19.75 419.9219,19.7813 420.3438,19.7813 L420.5938,19.7813 L420.5938,26.2969 L420.3438,26.2969 C419.9375,26.2969 419.7813,26.3125 419.625,26.4219 C419.375,26.5938 419.2188,26.8594 419.2188,27.1563 C419.2188,27.4219 419.3594,27.6719 419.5781,27.8281 C419.7188,27.9531 419.9531,28 420.3438,28 L428.3438,28 L428.3438,25.4219 C428.3438,24.9844 428.3125,24.8438 428.2344,24.6875 C428.0625,24.4375 427.7813,24.2813 427.5,24.2813 C427.2344,24.2813 426.9688,24.3906 426.7969,24.6406 C426.6875,24.7969 426.6563,24.9375 426.6563,25.4219 L426.6563,26.2969 L422.2969,26.2969 L422.2969,23.875 Z " fill="#000000"/><text fill="#000000" font-family="sans-serif" font-size="14" lengthAdjust="spacing" textLength="46" x="437.5" y="27.8467">Admin</text><line style="stroke:#181818;stroke-width:0.5;" x1="409.5" x2="485.5" y1="39" y2="39"/><line style="stroke:#181818;stroke-width:0.5;" x1="409.5" x2="485.5" y1="47" y2="47"/></g><!--class Wallets--><g id="elem_Wallets"><rect codeLine="7" fill="#F1F1F1" height="48" id="Wallets" rx="2.5" ry="2.5" style="stroke:#181818;stroke-width:0.5;" width="139" x="7" y="321"/><ellipse cx="22" cy="337" fill="#ADD1B2" rx="11" ry="11" style="stroke:#181818;stroke-width:1.0;"/><path d="M20.7969,337.875 L22.25,337.875 L22.25,337.9844 C22.25,338.3906 22.2813,338.5469 22.3594,338.7031 C22.5156,338.9531 22.7969,339.1094 23.0938,339.1094 C23.3438,339.1094 23.6094,338.9688 23.7656,338.75 C23.8906,338.5938 23.9219,338.4375 23.9219,337.9844 L23.9219,336.0625 C23.9219,335.9063 23.9219,335.8594 23.9063,335.7031 C23.8438,335.2344 23.5313,334.9219 23.0781,334.9219 C22.8281,334.9219 22.5625,335.0625 22.3906,335.2813 C22.2813,335.4531 22.25,335.6094 22.25,336.0625 L22.25,336.1875 L20.7969,336.1875 L20.7969,333.7813 L24.7813,333.7813 L24.7813,334.6406 C24.7813,335.0469 24.8125,335.2188 24.8906,335.375 C25.0625,335.625 25.3438,335.7813 25.625,335.7813 C25.8906,335.7813 26.1563,335.6406 26.3281,335.4219 C26.4375,335.25 26.4688,335.1094 26.4688,334.6406 L26.4688,332.0938 L18.8438,332.0938 C18.4063,332.0938 18.2813,332.1094 18.125,332.2031 C17.875,332.3594 17.7188,332.6563 17.7188,332.9375 C17.7188,333.2188 17.8594,333.4688 18.0781,333.6406 C18.2344,333.75 18.4219,333.7813 18.8438,333.7813 L19.0938,333.7813 L19.0938,340.2969 L18.8438,340.2969 C18.4375,340.2969 18.2813,340.3125 18.125,340.4219 C17.875,340.5938 17.7188,340.8594 17.7188,341.1563 C17.7188,341.4219 17.8594,341.6719 18.0781,341.8281 C18.2188,341.9531 18.4531,342 18.8438,342 L26.8438,342 L26.8438,339.4219 C26.8438,338.9844 26.8125,338.8438 26.7344,338.6875 C26.5625,338.4375 26.2813,338.2813 26,338.2813 C25.7344,338.2813 25.4688,338.3906 25.2969,338.6406 C25.1875,338.7969 25.1563,338.9375 25.1563,339.4219 L25.1563,340.2969 L20.7969,340.2969 L20.7969,337.875 Z " fill="#000000"/><text fill="#000000" font-family="sans-serif" font-size="14" lengthAdjust="spacing" textLength="107" x="36" y="341.8467">Crypto Wallets</text><line style="stroke:#181818;stroke-width:0.5;" x1="8" x2="145" y1="353" y2="353"/><line style="stroke:#181818;stroke-width:0.5;" x1="8" x2="145" y1="361" y2="361"/></g><!--class Transactions--><g id="elem_Transactions"><rect codeLine="8" fill="#F1F1F1" height="48" id="Transactions" rx="2.5" ry="2.5" style="stroke:#181818;stroke-width:0.5;" width="171" x="181" y="321"/><ellipse cx="196" cy="337" fill="#ADD1B2" rx="11" ry="11" style="stroke:#181818;stroke-width:1.0;"/><path d="M194.7969,337.875 L196.25,337.875 L196.25,337.9844 C196.25,338.3906 196.2813,338.5469 196.3594,338.7031 C196.5156,338.9531 196.7969,339.1094 197.0938,339.1094 C197.3438,339.1094 197.6094,338.9688 197.7656,338.75 C197.8906,338.5938 197.9219,338.4375 197.9219,337.9844 L197.9219,336.0625 C197.9219,335.9063 197.9219,335.8594 197.9063,335.7031 C197.8438,335.2344 197.5313,334.9219 197.0781,334.9219 C196.8281,334.9219 196.5625,335.0625 196.3906,335.2813 C196.2813,335.4531 196.25,335.6094 196.25,336.0625 L196.25,336.1875 L194.7969,336.1875 L194.7969,333.7813 L198.7813,333.7813 L198.7813,334.6406 C198.7813,335.0469 198.8125,335.2188 198.8906,335.375 C199.0625,335.625 199.3438,335.7813 199.625,335.7813 C199.8906,335.7813 200.1563,335.6406 200.3281,335.4219 C200.4375,335.25 200.4688,335.1094 200.4688,334.6406 L200.4688,332.0938 L192.8438,332.0938 C192.4063,332.0938 192.2813,332.1094 192.125,332.2031 C191.875,332.3594 191.7188,332.6563 191.7188,332.9375 C191.7188,333.2188 191.8594,333.4688 192.0781,333.6406 C192.2344,333.75 192.4219,333.7813 192.8438,333.7813 L193.0938,333.7813 L193.0938,340.2969 L192.8438,340.2969 C192.4375,340.2969 192.2813,340.3125 192.125,340.4219 C191.875,340.5938 191.7188,340.8594 191.7188,341.1563 C191.7188,341.4219 191.8594,341.6719 192.0781,341.8281 C192.2188,341.9531 192.4531,342 192.8438,342 L200.8438,342 L200.8438,339.4219 C200.8438,338.9844 200.8125,338.8438 200.7344,338.6875 C200.5625,338.4375 200.2813,338.2813 200,338.2813 C199.7344,338.2813 199.4688,338.3906 199.2969,338.6406 C199.1875,338.7969 199.1563,338.9375 199.1563,339.4219 L199.1563,340.2969 L194.7969,340.2969 L194.7969,337.875 Z " fill="#000000"/><text fill="#000000" font-family="sans-serif" font-size="14" lengthAdjust="spacing" textLength="139" x="210" y="341.8467">Transaction History</text><line style="stroke:#181818;stroke-width:0.5;" x1="182" x2="351" y1="353" y2="353"/><line style="stroke:#181818;stroke-width:0.5;" x1="182" x2="351" y1="361" y2="361"/></g><!--class MarketData--><g id="elem_MarketData"><rect codeLine="9" fill="#F1F1F1" height="48" id="MarketData" rx="2.5" ry="2.5" style="stroke:#181818;stroke-width:0.5;" width="121" x="387" y="321"/><ellipse cx="402" cy="337" fill="#ADD1B2" rx="11" ry="11" style="stroke:#181818;stroke-width:1.0;"/><path d="M400.7969,337.875 L402.25,337.875 L402.25,337.9844 C402.25,338.3906 402.2813,338.5469 402.3594,338.7031 C402.5156,338.9531 402.7969,339.1094 403.0938,339.1094 C403.3438,339.1094 403.6094,338.9688 403.7656,338.75 C403.8906,338.5938 403.9219,338.4375 403.9219,337.9844 L403.9219,336.0625 C403.9219,335.9063 403.9219,335.8594 403.9063,335.7031 C403.8438,335.2344 403.5313,334.9219 403.0781,334.9219 C402.8281,334.9219 402.5625,335.0625 402.3906,335.2813 C402.2813,335.4531 402.25,335.6094 402.25,336.0625 L402.25,336.1875 L400.7969,336.1875 L400.7969,333.7813 L404.7813,333.7813 L404.7813,334.6406 C404.7813,335.0469 404.8125,335.2188 404.8906,335.375 C405.0625,335.625 405.3438,335.7813 405.625,335.7813 C405.8906,335.7813 406.1563,335.6406 406.3281,335.4219 C406.4375,335.25 406.4688,335.1094 406.4688,334.6406 L406.4688,332.0938 L398.8438,332.0938 C398.4063,332.0938 398.2813,332.1094 398.125,332.2031 C397.875,332.3594 397.7188,332.6563 397.7188,332.9375 C397.7188,333.2188 397.8594,333.4688 398.0781,333.6406 C398.2344,333.75 398.4219,333.7813 398.8438,333.7813 L399.0938,333.7813 L399.0938,340.2969 L398.8438,340.2969 C398.4375,340.2969 398.2813,340.3125 398.125,340.4219 C397.875,340.5938 397.7188,340.8594 397.7188,341.1563 C397.7188,341.4219 397.8594,341.6719 398.0781,341.8281 C398.2188,341.9531 398.4531,342 398.8438,342 L406.8438,342 L406.8438,339.4219 C406.8438,338.9844 406.8125,338.8438 406.7344,338.6875 C406.5625,338.4375 406.2813,338.2813 406,338.2813 C405.7344,338.2813 405.4688,338.3906 405.2969,338.6406 C405.1875,338.7969 405.1563,338.9375 405.1563,339.4219 L405.1563,340.2969 L400.7969,340.2969 L400.7969,337.875 Z " fill="#000000"/><text fill="#000000" font-family="sans-serif" font-size="14" lengthAdjust="spacing" textLength="89" x="416" y="341.8467">Market Data</text><line style="stroke:#181818;stroke-width:0.5;" x1="388" x2="507" y1="353" y2="353"/><line style="stroke:#181818;stroke-width:0.5;" x1="388" x2="507" y1="361" y2="361"/></g><!--link Users to Wallets--><g id="link_Users_Wallets"><path codeLine="11" d="M412.09,158.977 C361.355,162.98 266.099,174.911 193.5,210 C144.005,233.922 109.7581,284.1556 91.6655,315.7186 " fill="none" id="Users-to-Wallets" style="stroke:#181818;stroke-width:1.0;stroke-dasharray:7.0,7.0;"/><polygon fill="#181818" points="88.6816,320.924,96.6277,315.1051,91.1682,316.5861,89.6871,311.1266,88.6816,320.924" style="stroke:#181818;stroke-width:1.0;"/><text fill="#000000" font-family="sans-serif" font-size="13" lengthAdjust="spacing" textLength="101" x="194.5" y="223.0669">Manage Wallets</text></g><!--link Users to Transactions--><g id="link_Users_Transactions"><path codeLine="12" d="M412.212,163.102 C382.999,169.871 342.25,183.537 316.5,210 C286.456,240.876 275.1357,285.5284 270.3377,314.9184 " fill="none" id="Users-to-Transactions" style="stroke:#181818;stroke-width:1.0;stroke-dasharray:7.0,7.0;"/><polygon fill="#181818" points="269.371,320.84,274.7688,312.6021,270.1766,315.9053,266.8733,311.3131,269.371,320.84" style="stroke:#181818;stroke-width:1.0;"/><text fill="#000000" font-family="sans-serif" font-size="13" lengthAdjust="spacing" textLength="121" x="317.5" y="223.0669">Track Transactions</text></g><!--link Users to MarketData--><g id="link_Users_MarketData"><path codeLine="13" d="M447.5,180.306 C447.5,216.336 447.5,279.137 447.5,314.988 " fill="none" id="Users-to-MarketData" style="stroke:#181818;stroke-width:1.0;stroke-dasharray:7.0,7.0;"/><polygon fill="#181818" points="447.5,320.988,451.5,311.988,447.5,315.988,443.5,311.988,447.5,320.988" style="stroke:#181818;stroke-width:1.0;"/><text fill="#000000" font-family="sans-serif" font-size="13" lengthAdjust="spacing" textLength="113" x="448.5" y="223.0669">View Market Data</text></g><!--link Admin to Users--><g id="link_Admin_Users"><path codeLine="15" d="M447.5,55.135 C447.5,77.126 447.5,104.012 447.5,125.968 " fill="none" id="Admin-to-Users" style="stroke:#181818;stroke-width:1.0;stroke-dasharray:7.0,7.0;"/><polygon fill="#181818" points="447.5,131.968,451.5,122.968,447.5,126.968,443.5,122.968,447.5,131.968" style="stroke:#181818;stroke-width:1.0;"/><text fill="#000000" font-family="sans-serif" font-size="13" lengthAdjust="spacing" textLength="90" x="448.5" y="98.0669">Manage Users</text></g><!--link Users to Secure Login--><g id="link_Users_Secure Login"><path codeLine="19" d="M482.612,164.502 C509.727,171.924 546.546,185.781 570.5,210 C601.262,241.103 614.7814,285.7314 621.1174,315.0454 " fill="none" id="Users-to-Secure Login" style="stroke:#181818;stroke-width:1.0;stroke-dasharray:7.0,7.0;"/><polygon fill="#181818" points="622.385,320.91,624.3933,311.2681,621.3287,316.0229,616.5739,312.9582,622.385,320.91" style="stroke:#181818;stroke-width:1.0;"/></g><!--link Users to Cryptocurrency Info--><g id="link_Users_Cryptocurrency Info"><path codeLine="23" d="M482.526,163.811 C533.29,174.517 629.444,197.964 704.5,235 C752.112,258.494 796.3102,292.5841 825.3572,316.9381 " fill="none" id="Users-to-Cryptocurrency Info" style="stroke:#181818;stroke-width:1.0;stroke-dasharray:7.0,7.0;"/><polygon fill="#181818" points="829.955,320.793,825.6283,311.9454,826.1235,317.5806,820.4884,318.0758,829.955,320.793" style="stroke:#181818;stroke-width:1.0;"/></g><!--SRC=[XL7DJiCm3BxdARpUzm8SaAenYKd0K5kO4E9WfLuNhKrGuWbLQEzEcfIiemTkiVFzoT-YfhtI1EkdQbEz0MbMt8l5k7qkjgjrMO8boQYRbj9FNXJR7IpVQtG7gZ-MjqAC4jcB8-ioG0VXbVPvtIaTzk6LzYlRVxA17ROjSIIExmIfB6g7afNHSAyS6zi7t6H_0J-YFHB37J86K9o7KOYGQ1hxrmfkF4vZGybx3fswURmVvV4wmfnpCVUCLqLVC8adHBZ45I5Af3JnX28LyETSKFQEgSlWMq1gApG0-OaFGvqIXsmH0J1Fc9KaJvRWmJI-7WywYwdMQBVHUsEx_wGYsCjPqh8FfAXu_W40]--></g></svg>