<?xml version="1.0" encoding="us-ascii" standalone="no"?><svg xmlns="http://www.w3.org/2000/svg" xmlns:xlink="http://www.w3.org/1999/xlink" contentStyleType="text/css" height="415px" preserveAspectRatio="none" style="width:1632px;height:415px;background:#FFFFFF;" version="1.1" viewBox="0 0 1632 415" width="1632px" zoomAndPan="magnify"><defs/><g><!--cluster Crypto Wallet Management System--><g id="cluster_Crypto Wallet Management System"><rect fill="none" height="166" rx="2.5" ry="2.5" style="stroke:#181818;stroke-width:1.0;" width="1102" x="524.5" y="243"/><text fill="#000000" font-family="sans-serif" font-size="14" font-weight="bold" lengthAdjust="spacing" textLength="286" x="932.5" y="257.9951">Crypto Wallet Management System</text></g><!--cluster User Authentication--><g id="cluster_User Authentication"><rect fill="none" height="99" rx="2.5" ry="2.5" style="stroke:#181818;stroke-width:1.0;" width="180" x="548.5" y="286"/><text fill="#000000" font-family="sans-serif" font-size="14" font-weight="bold" lengthAdjust="spacing" textLength="164" x="556.5" y="300.9951">User Authentication</text></g><!--cluster Crypto Information--><g id="cluster_Crypto Information"><rect fill="none" height="99" rx="2.5" ry="2.5" style="stroke:#181818;stroke-width:1.0;" width="208" x="752.5" y="286"/><text fill="#000000" font-family="sans-serif" font-size="14" font-weight="bold" lengthAdjust="spacing" textLength="156" x="778.5" y="300.9951">Crypto Information</text></g><!--cluster Wallet Management--><g id="cluster_Wallet Management"><rect fill="none" height="99" rx="2.5" ry="2.5" style="stroke:#181818;stroke-width:1.0;" width="178" x="984.5" y="286"/><text fill="#000000" font-family="sans-serif" font-size="14" font-weight="bold" lengthAdjust="spacing" textLength="162" x="992.5" y="300.9951">Wallet Management</text></g><!--cluster Transaction Tracking--><g id="cluster_Transaction Tracking"><rect fill="none" height="99" rx="2.5" ry="2.5" style="stroke:#181818;stroke-width:1.0;" width="200" x="1186.5" y="286"/><text fill="#000000" font-family="sans-serif" font-size="14" font-weight="bold" lengthAdjust="spacing" textLength="175" x="1199" y="300.9951">Transaction Tracking</text></g><!--cluster Data Visualization--><g id="cluster_Data Visualization"><rect fill="none" height="99" rx="2.5" ry="2.5" style="stroke:#181818;stroke-width:1.0;" width="192" x="1410.5" y="286"/><text fill="#000000" font-family="sans-serif" font-size="14" font-weight="bold" lengthAdjust="spacing" textLength="151" x="1431" y="300.9951">Data Visualization</text></g><!--class Secure Login--><g id="elem_Secure Login"><rect fill="#F1F1F1" height="48" id="Secure Login" rx="2.5" ry="2.5" style="stroke:#181818;stroke-width:0.5;" width="124" x="588.5" y="321"/><ellipse cx="603.5" cy="337" fill="#ADD1B2" rx="11" ry="11" style="stroke:#181818;stroke-width:1.0;"/><path d="M605.8438,332.6719 C604.9063,332.2344 604.3125,332.0938 603.4375,332.0938 C600.8125,332.0938 598.8125,334.1719 598.8125,336.8906 L598.8125,338.0156 C598.8125,340.5938 600.9219,342.4844 603.8125,342.4844 C605.0313,342.4844 606.1875,342.1875 606.9375,341.6406 C607.5156,341.2344 607.8438,340.7813 607.8438,340.3906 C607.8438,339.9375 607.4531,339.5469 606.9844,339.5469 C606.7656,339.5469 606.5625,339.625 606.375,339.8125 C605.9219,340.2969 605.9219,340.2969 605.7344,340.3906 C605.3125,340.6563 604.625,340.7813 603.8594,340.7813 C601.8125,340.7813 600.5156,339.6875 600.5156,337.9844 L600.5156,336.8906 C600.5156,335.1094 601.7656,333.7969 603.5,333.7969 C604.0781,333.7969 604.6875,333.9531 605.1563,334.2031 C605.6406,334.4844 605.8125,334.7031 605.9063,335.1094 C605.9688,335.5156 606,335.6406 606.1406,335.7656 C606.2813,335.9063 606.5156,336.0156 606.7344,336.0156 C607,336.0156 607.2656,335.875 607.4375,335.6563 C607.5469,335.5 607.5781,335.3125 607.5781,334.8906 L607.5781,333.4688 C607.5781,333.0313 607.5625,332.9063 607.4688,332.75 C607.3125,332.4844 607.0313,332.3438 606.7344,332.3438 C606.4375,332.3438 606.2344,332.4375 606.0156,332.75 L605.8438,332.6719 Z " fill="#000000"/><text fill="#000000" font-family="sans-serif" font-size="14" lengthAdjust="spacing" textLength="92" x="617.5" y="341.8467">Secure Login</text><line style="stroke:#181818;stroke-width:0.5;" x1="589.5" x2="711.5" y1="353" y2="353"/><line style="stroke:#181818;stroke-width:0.5;" x1="589.5" x2="711.5" y1="361" y2="361"/></g><!--class Cryptocurrency Info--><g id="elem_Cryptocurrency Info"><rect fill="#F1F1F1" height="48" id="Cryptocurrency Info" rx="2.5" ry="2.5" style="stroke:#181818;stroke-width:0.5;" width="176" x="768.5" y="321"/><ellipse cx="783.5" cy="337" fill="#ADD1B2" rx="11" ry="11" style="stroke:#181818;stroke-width:1.0;"/><path d="M785.8438,332.6719 C784.9063,332.2344 784.3125,332.0938 783.4375,332.0938 C780.8125,332.0938 778.8125,334.1719 778.8125,336.8906 L778.8125,338.0156 C778.8125,340.5938 780.9219,342.4844 783.8125,342.4844 C785.0313,342.4844 786.1875,342.1875 786.9375,341.6406 C787.5156,341.2344 787.8438,340.7813 787.8438,340.3906 C787.8438,339.9375 787.4531,339.5469 786.9844,339.5469 C786.7656,339.5469 786.5625,339.625 786.375,339.8125 C785.9219,340.2969 785.9219,340.2969 785.7344,340.3906 C785.3125,340.6563 784.625,340.7813 783.8594,340.7813 C781.8125,340.7813 780.5156,339.6875 780.5156,337.9844 L780.5156,336.8906 C780.5156,335.1094 781.7656,333.7969 783.5,333.7969 C784.0781,333.7969 784.6875,333.9531 785.1563,334.2031 C785.6406,334.4844 785.8125,334.7031 785.9063,335.1094 C785.9688,335.5156 786,335.6406 786.1406,335.7656 C786.2813,335.9063 786.5156,336.0156 786.7344,336.0156 C787,336.0156 787.2656,335.875 787.4375,335.6563 C787.5469,335.5 787.5781,335.3125 787.5781,334.8906 L787.5781,333.4688 C787.5781,333.0313 787.5625,332.9063 787.4688,332.75 C787.3125,332.4844 787.0313,332.3438 786.7344,332.3438 C786.4375,332.3438 786.2344,332.4375 786.0156,332.75 L785.8438,332.6719 Z " fill="#000000"/><text fill="#000000" font-family="sans-serif" font-size="14" lengthAdjust="spacing" textLength="144" x="797.5" y="341.8467">Cryptocurrency Info</text><line style="stroke:#181818;stroke-width:0.5;" x1="769.5" x2="943.5" y1="353" y2="353"/><line style="stroke:#181818;stroke-width:0.5;" x1="769.5" x2="943.5" y1="361" y2="361"/></g><!--class Manage Wallets--><g id="elem_Manage Wallets"><rect fill="#F1F1F1" height="48" id="Manage Wallets" rx="2.5" ry="2.5" style="stroke:#181818;stroke-width:0.5;" width="144" x="1000.5" y="321"/><ellipse cx="1015.5" cy="337" fill="#ADD1B2" rx="11" ry="11" style="stroke:#181818;stroke-width:1.0;"/><path d="M1017.8438,332.6719 C1016.9063,332.2344 1016.3125,332.0938 1015.4375,332.0938 C1012.8125,332.0938 1010.8125,334.1719 1010.8125,336.8906 L1010.8125,338.0156 C1010.8125,340.5938 1012.9219,342.4844 1015.8125,342.4844 C1017.0313,342.4844 1018.1875,342.1875 1018.9375,341.6406 C1019.5156,341.2344 1019.8438,340.7813 1019.8438,340.3906 C1019.8438,339.9375 1019.4531,339.5469 1018.9844,339.5469 C1018.7656,339.5469 1018.5625,339.625 1018.375,339.8125 C1017.9219,340.2969 1017.9219,340.2969 1017.7344,340.3906 C1017.3125,340.6563 1016.625,340.7813 1015.8594,340.7813 C1013.8125,340.7813 1012.5156,339.6875 1012.5156,337.9844 L1012.5156,336.8906 C1012.5156,335.1094 1013.7656,333.7969 1015.5,333.7969 C1016.0781,333.7969 1016.6875,333.9531 1017.1563,334.2031 C1017.6406,334.4844 1017.8125,334.7031 1017.9063,335.1094 C1017.9688,335.5156 1018,335.6406 1018.1406,335.7656 C1018.2813,335.9063 1018.5156,336.0156 1018.7344,336.0156 C1019,336.0156 1019.2656,335.875 1019.4375,335.6563 C1019.5469,335.5 1019.5781,335.3125 1019.5781,334.8906 L1019.5781,333.4688 C1019.5781,333.0313 1019.5625,332.9063 1019.4688,332.75 C1019.3125,332.4844 1019.0313,332.3438 1018.7344,332.3438 C1018.4375,332.3438 1018.2344,332.4375 1018.0156,332.75 L1017.8438,332.6719 Z " fill="#000000"/><text fill="#000000" font-family="sans-serif" font-size="14" lengthAdjust="spacing" textLength="112" x="1029.5" y="341.8467">Manage Wallets</text><line style="stroke:#181818;stroke-width:0.5;" x1="1001.5" x2="1143.5" y1="353" y2="353"/><line style="stroke:#181818;stroke-width:0.5;" x1="1001.5" x2="1143.5" y1="361" y2="361"/></g><!--class Track Transactions--><g id="elem_Track Transactions"><rect fill="#F1F1F1" height="48" id="Track Transactions" rx="2.5" ry="2.5" style="stroke:#181818;stroke-width:0.5;" width="167" x="1203" y="321"/><ellipse cx="1218" cy="337" fill="#ADD1B2" rx="11" ry="11" style="stroke:#181818;stroke-width:1.0;"/><path d="M1220.3438,332.6719 C1219.4063,332.2344 1218.8125,332.0938 1217.9375,332.0938 C1215.3125,332.0938 1213.3125,334.1719 1213.3125,336.8906 L1213.3125,338.0156 C1213.3125,340.5938 1215.4219,342.4844 1218.3125,342.4844 C1219.5313,342.4844 1220.6875,342.1875 1221.4375,341.6406 C1222.0156,341.2344 1222.3438,340.7813 1222.3438,340.3906 C1222.3438,339.9375 1221.9531,339.5469 1221.4844,339.5469 C1221.2656,339.5469 1221.0625,339.625 1220.875,339.8125 C1220.4219,340.2969 1220.4219,340.2969 1220.2344,340.3906 C1219.8125,340.6563 1219.125,340.7813 1218.3594,340.7813 C1216.3125,340.7813 1215.0156,339.6875 1215.0156,337.9844 L1215.0156,336.8906 C1215.0156,335.1094 1216.2656,333.7969 1218,333.7969 C1218.5781,333.7969 1219.1875,333.9531 1219.6563,334.2031 C1220.1406,334.4844 1220.3125,334.7031 1220.4063,335.1094 C1220.4688,335.5156 1220.5,335.6406 1220.6406,335.7656 C1220.7813,335.9063 1221.0156,336.0156 1221.2344,336.0156 C1221.5,336.0156 1221.7656,335.875 1221.9375,335.6563 C1222.0469,335.5 1222.0781,335.3125 1222.0781,334.8906 L1222.0781,333.4688 C1222.0781,333.0313 1222.0625,332.9063 1221.9688,332.75 C1221.8125,332.4844 1221.5313,332.3438 1221.2344,332.3438 C1220.9375,332.3438 1220.7344,332.4375 1220.5156,332.75 L1220.3438,332.6719 Z " fill="#000000"/><text fill="#000000" font-family="sans-serif" font-size="14" lengthAdjust="spacing" textLength="135" x="1232" y="341.8467">Track Transactions</text><line style="stroke:#181818;stroke-width:0.5;" x1="1204" x2="1369" y1="353" y2="353"/><line style="stroke:#181818;stroke-width:0.5;" x1="1204" x2="1369" y1="361" y2="361"/></g><!--class View Market Data--><g id="elem_View Market Data"><rect fill="#F1F1F1" height="48" id="View Market Data" rx="2.5" ry="2.5" style="stroke:#181818;stroke-width:0.5;" width="159" x="1427" y="321"/><ellipse cx="1442" cy="337" fill="#ADD1B2" rx="11" ry="11" style="stroke:#181818;stroke-width:1.0;"/><path d="M1444.3438,332.6719 C1443.4063,332.2344 1442.8125,332.0938 1441.9375,332.0938 C1439.3125,332.0938 1437.3125,334.1719 1437.3125,336.8906 L1437.3125,338.0156 C1437.3125,340.5938 1439.4219,342.4844 1442.3125,342.4844 C1443.5313,342.4844 1444.6875,342.1875 1445.4375,341.6406 C1446.0156,341.2344 1446.3438,340.7813 1446.3438,340.3906 C1446.3438,339.9375 1445.9531,339.5469 1445.4844,339.5469 C1445.2656,339.5469 1445.0625,339.625 1444.875,339.8125 C1444.4219,340.2969 1444.4219,340.2969 1444.2344,340.3906 C1443.8125,340.6563 1443.125,340.7813 1442.3594,340.7813 C1440.3125,340.7813 1439.0156,339.6875 1439.0156,337.9844 L1439.0156,336.8906 C1439.0156,335.1094 1440.2656,333.7969 1442,333.7969 C1442.5781,333.7969 1443.1875,333.9531 1443.6563,334.2031 C1444.1406,334.4844 1444.3125,334.7031 1444.4063,335.1094 C1444.4688,335.5156 1444.5,335.6406 1444.6406,335.7656 C1444.7813,335.9063 1445.0156,336.0156 1445.2344,336.0156 C1445.5,336.0156 1445.7656,335.875 1445.9375,335.6563 C1446.0469,335.5 1446.0781,335.3125 1446.0781,334.8906 L1446.0781,333.4688 C1446.0781,333.0313 1446.0625,332.9063 1445.9688,332.75 C1445.8125,332.4844 1445.5313,332.3438 1445.2344,332.3438 C1444.9375,332.3438 1444.7344,332.4375 1444.5156,332.75 L1444.3438,332.6719 Z " fill="#000000"/><text fill="#000000" font-family="sans-serif" font-size="14" lengthAdjust="spacing" textLength="127" x="1456" y="341.8467">View Market Data</text><line style="stroke:#181818;stroke-width:0.5;" x1="1428" x2="1585" y1="353" y2="353"/><line style="stroke:#181818;stroke-width:0.5;" x1="1428" x2="1585" y1="361" y2="361"/></g><!--class Users--><g id="elem_Users"><rect codeLine="5" fill="#F1F1F1" height="48" id="Users" rx="2.5" ry="2.5" style="stroke:#181818;stroke-width:0.5;" width="70" x="717.5" y="132"/><ellipse cx="732.5" cy="148" fill="#ADD1B2" rx="11" ry="11" style="stroke:#181818;stroke-width:1.0;"/><path d="M731.2969,148.875 L732.75,148.875 L732.75,148.9844 C732.75,149.3906 732.7813,149.5469 732.8594,149.7031 C733.0156,149.9531 733.2969,150.1094 733.5938,150.1094 C733.8438,150.1094 734.1094,149.9688 734.2656,149.75 C734.3906,149.5938 734.4219,149.4375 734.4219,148.9844 L734.4219,147.0625 C734.4219,146.9063 734.4219,146.8594 734.4063,146.7031 C734.3438,146.2344 734.0313,145.9219 733.5781,145.9219 C733.3281,145.9219 733.0625,146.0625 732.8906,146.2813 C732.7813,146.4531 732.75,146.6094 732.75,147.0625 L732.75,147.1875 L731.2969,147.1875 L731.2969,144.7813 L735.2813,144.7813 L735.2813,145.6406 C735.2813,146.0469 735.3125,146.2188 735.3906,146.375 C735.5625,146.625 735.8438,146.7813 736.125,146.7813 C736.3906,146.7813 736.6563,146.6406 736.8281,146.4219 C736.9375,146.25 736.9688,146.1094 736.9688,145.6406 L736.9688,143.0938 L729.3438,143.0938 C728.9063,143.0938 728.7813,143.1094 728.625,143.2031 C728.375,143.3594 728.2188,143.6563 728.2188,143.9375 C728.2188,144.2188 728.3594,144.4688 728.5781,144.6406 C728.7344,144.75 728.9219,144.7813 729.3438,144.7813 L729.5938,144.7813 L729.5938,151.2969 L729.3438,151.2969 C728.9375,151.2969 728.7813,151.3125 728.625,151.4219 C728.375,151.5938 728.2188,151.8594 728.2188,152.1563 C728.2188,152.4219 728.3594,152.6719 728.5781,152.8281 C728.7188,152.9531 728.9531,153 729.3438,153 L737.3438,153 L737.3438,150.4219 C737.3438,149.9844 737.3125,149.8438 737.2344,149.6875 C737.0625,149.4375 736.7813,149.2813 736.5,149.2813 C736.2344,149.2813 735.9688,149.3906 735.7969,149.6406 C735.6875,149.7969 735.6563,149.9375 735.6563,150.4219 L735.6563,151.2969 L731.2969,151.2969 L731.2969,148.875 Z " fill="#000000"/><text fill="#000000" font-family="sans-serif" font-size="14" lengthAdjust="spacing" textLength="38" x="746.5" y="152.8467">Users</text><line style="stroke:#181818;stroke-width:0.5;" x1="718.5" x2="786.5" y1="164" y2="164"/><line style="stroke:#181818;stroke-width:0.5;" x1="718.5" x2="786.5" y1="172" y2="172"/></g><!--class Admin--><g id="elem_Admin"><rect codeLine="6" fill="#F1F1F1" height="48" id="Admin" rx="2.5" ry="2.5" style="stroke:#181818;stroke-width:0.5;" width="78" x="864.5" y="7"/><ellipse cx="879.5" cy="23" fill="#ADD1B2" rx="11" ry="11" style="stroke:#181818;stroke-width:1.0;"/><path d="M878.2969,23.875 L879.75,23.875 L879.75,23.9844 C879.75,24.3906 879.7813,24.5469 879.8594,24.7031 C880.0156,24.9531 880.2969,25.1094 880.5938,25.1094 C880.8438,25.1094 881.1094,24.9688 881.2656,24.75 C881.3906,24.5938 881.4219,24.4375 881.4219,23.9844 L881.4219,22.0625 C881.4219,21.9063 881.4219,21.8594 881.4063,21.7031 C881.3438,21.2344 881.0313,20.9219 880.5781,20.9219 C880.3281,20.9219 880.0625,21.0625 879.8906,21.2813 C879.7813,21.4531 879.75,21.6094 879.75,22.0625 L879.75,22.1875 L878.2969,22.1875 L878.2969,19.7813 L882.2813,19.7813 L882.2813,20.6406 C882.2813,21.0469 882.3125,21.2188 882.3906,21.375 C882.5625,21.625 882.8438,21.7813 883.125,21.7813 C883.3906,21.7813 883.6563,21.6406 883.8281,21.4219 C883.9375,21.25 883.9688,21.1094 883.9688,20.6406 L883.9688,18.0938 L876.3438,18.0938 C875.9063,18.0938 875.7813,18.1094 875.625,18.2031 C875.375,18.3594 875.2188,18.6563 875.2188,18.9375 C875.2188,19.2188 875.3594,19.4688 875.5781,19.6406 C875.7344,19.75 875.9219,19.7813 876.3438,19.7813 L876.5938,19.7813 L876.5938,26.2969 L876.3438,26.2969 C875.9375,26.2969 875.7813,26.3125 875.625,26.4219 C875.375,26.5938 875.2188,26.8594 875.2188,27.1563 C875.2188,27.4219 875.3594,27.6719 875.5781,27.8281 C875.7188,27.9531 875.9531,28 876.3438,28 L884.3438,28 L884.3438,25.4219 C884.3438,24.9844 884.3125,24.8438 884.2344,24.6875 C884.0625,24.4375 883.7813,24.2813 883.5,24.2813 C883.2344,24.2813 882.9688,24.3906 882.7969,24.6406 C882.6875,24.7969 882.6563,24.9375 882.6563,25.4219 L882.6563,26.2969 L878.2969,26.2969 L878.2969,23.875 Z " fill="#000000"/><text fill="#000000" font-family="sans-serif" font-size="14" lengthAdjust="spacing" textLength="46" x="893.5" y="27.8467">Admin</text><line style="stroke:#181818;stroke-width:0.5;" x1="865.5" x2="941.5" y1="39" y2="39"/><line style="stroke:#181818;stroke-width:0.5;" x1="865.5" x2="941.5" y1="47" y2="47"/></g><!--class Exchanges--><g id="elem_Exchanges"><rect codeLine="7" fill="#F1F1F1" height="48" id="Exchanges" rx="2.5" ry="2.5" style="stroke:#181818;stroke-width:0.5;" width="162" x="822.5" y="132"/><ellipse cx="837.5" cy="148" fill="#ADD1B2" rx="11" ry="11" style="stroke:#181818;stroke-width:1.0;"/><path d="M836.2969,148.875 L837.75,148.875 L837.75,148.9844 C837.75,149.3906 837.7813,149.5469 837.8594,149.7031 C838.0156,149.9531 838.2969,150.1094 838.5938,150.1094 C838.8438,150.1094 839.1094,149.9688 839.2656,149.75 C839.3906,149.5938 839.4219,149.4375 839.4219,148.9844 L839.4219,147.0625 C839.4219,146.9063 839.4219,146.8594 839.4063,146.7031 C839.3438,146.2344 839.0313,145.9219 838.5781,145.9219 C838.3281,145.9219 838.0625,146.0625 837.8906,146.2813 C837.7813,146.4531 837.75,146.6094 837.75,147.0625 L837.75,147.1875 L836.2969,147.1875 L836.2969,144.7813 L840.2813,144.7813 L840.2813,145.6406 C840.2813,146.0469 840.3125,146.2188 840.3906,146.375 C840.5625,146.625 840.8438,146.7813 841.125,146.7813 C841.3906,146.7813 841.6563,146.6406 841.8281,146.4219 C841.9375,146.25 841.9688,146.1094 841.9688,145.6406 L841.9688,143.0938 L834.3438,143.0938 C833.9063,143.0938 833.7813,143.1094 833.625,143.2031 C833.375,143.3594 833.2188,143.6563 833.2188,143.9375 C833.2188,144.2188 833.3594,144.4688 833.5781,144.6406 C833.7344,144.75 833.9219,144.7813 834.3438,144.7813 L834.5938,144.7813 L834.5938,151.2969 L834.3438,151.2969 C833.9375,151.2969 833.7813,151.3125 833.625,151.4219 C833.375,151.5938 833.2188,151.8594 833.2188,152.1563 C833.2188,152.4219 833.3594,152.6719 833.5781,152.8281 C833.7188,152.9531 833.9531,153 834.3438,153 L842.3438,153 L842.3438,150.4219 C842.3438,149.9844 842.3125,149.8438 842.2344,149.6875 C842.0625,149.4375 841.7813,149.2813 841.5,149.2813 C841.2344,149.2813 840.9688,149.3906 840.7969,149.6406 C840.6875,149.7969 840.6563,149.9375 840.6563,150.4219 L840.6563,151.2969 L836.2969,151.2969 L836.2969,148.875 Z " fill="#000000"/><text fill="#000000" font-family="sans-serif" font-size="14" lengthAdjust="spacing" textLength="130" x="851.5" y="152.8467">Crypto Exchanges</text><line style="stroke:#181818;stroke-width:0.5;" x1="823.5" x2="983.5" y1="164" y2="164"/><line style="stroke:#181818;stroke-width:0.5;" x1="823.5" x2="983.5" y1="172" y2="172"/></g><!--class Blockchain--><g id="elem_Blockchain"><rect codeLine="8" fill="#F1F1F1" height="48" id="Blockchain" rx="2.5" ry="2.5" style="stroke:#181818;stroke-width:0.5;" width="175" x="1020" y="132"/><ellipse cx="1035" cy="148" fill="#ADD1B2" rx="11" ry="11" style="stroke:#181818;stroke-width:1.0;"/><path d="M1033.7969,148.875 L1035.25,148.875 L1035.25,148.9844 C1035.25,149.3906 1035.2813,149.5469 1035.3594,149.7031 C1035.5156,149.9531 1035.7969,150.1094 1036.0938,150.1094 C1036.3438,150.1094 1036.6094,149.9688 1036.7656,149.75 C1036.8906,149.5938 1036.9219,149.4375 1036.9219,148.9844 L1036.9219,147.0625 C1036.9219,146.9063 1036.9219,146.8594 1036.9063,146.7031 C1036.8438,146.2344 1036.5313,145.9219 1036.0781,145.9219 C1035.8281,145.9219 1035.5625,146.0625 1035.3906,146.2813 C1035.2813,146.4531 1035.25,146.6094 1035.25,147.0625 L1035.25,147.1875 L1033.7969,147.1875 L1033.7969,144.7813 L1037.7813,144.7813 L1037.7813,145.6406 C1037.7813,146.0469 1037.8125,146.2188 1037.8906,146.375 C1038.0625,146.625 1038.3438,146.7813 1038.625,146.7813 C1038.8906,146.7813 1039.1563,146.6406 1039.3281,146.4219 C1039.4375,146.25 1039.4688,146.1094 1039.4688,145.6406 L1039.4688,143.0938 L1031.8438,143.0938 C1031.4063,143.0938 1031.2813,143.1094 1031.125,143.2031 C1030.875,143.3594 1030.7188,143.6563 1030.7188,143.9375 C1030.7188,144.2188 1030.8594,144.4688 1031.0781,144.6406 C1031.2344,144.75 1031.4219,144.7813 1031.8438,144.7813 L1032.0938,144.7813 L1032.0938,151.2969 L1031.8438,151.2969 C1031.4375,151.2969 1031.2813,151.3125 1031.125,151.4219 C1030.875,151.5938 1030.7188,151.8594 1030.7188,152.1563 C1030.7188,152.4219 1030.8594,152.6719 1031.0781,152.8281 C1031.2188,152.9531 1031.4531,153 1031.8438,153 L1039.8438,153 L1039.8438,150.4219 C1039.8438,149.9844 1039.8125,149.8438 1039.7344,149.6875 C1039.5625,149.4375 1039.2813,149.2813 1039,149.2813 C1038.7344,149.2813 1038.4688,149.3906 1038.2969,149.6406 C1038.1875,149.7969 1038.1563,149.9375 1038.1563,150.4219 L1038.1563,151.2969 L1033.7969,151.2969 L1033.7969,148.875 Z " fill="#000000"/><text fill="#000000" font-family="sans-serif" font-size="14" lengthAdjust="spacing" textLength="143" x="1049" y="152.8467">Blockchain Network</text><line style="stroke:#181818;stroke-width:0.5;" x1="1021" x2="1194" y1="164" y2="164"/><line style="stroke:#181818;stroke-width:0.5;" x1="1021" x2="1194" y1="172" y2="172"/></g><!--class Wallets--><g id="elem_Wallets"><rect codeLine="9" fill="#F1F1F1" height="48" id="Wallets" rx="2.5" ry="2.5" style="stroke:#181818;stroke-width:0.5;" width="139" x="7" y="321"/><ellipse cx="22" cy="337" fill="#ADD1B2" rx="11" ry="11" style="stroke:#181818;stroke-width:1.0;"/><path d="M20.7969,337.875 L22.25,337.875 L22.25,337.9844 C22.25,338.3906 22.2813,338.5469 22.3594,338.7031 C22.5156,338.9531 22.7969,339.1094 23.0938,339.1094 C23.3438,339.1094 23.6094,338.9688 23.7656,338.75 C23.8906,338.5938 23.9219,338.4375 23.9219,337.9844 L23.9219,336.0625 C23.9219,335.9063 23.9219,335.8594 23.9063,335.7031 C23.8438,335.2344 23.5313,334.9219 23.0781,334.9219 C22.8281,334.9219 22.5625,335.0625 22.3906,335.2813 C22.2813,335.4531 22.25,335.6094 22.25,336.0625 L22.25,336.1875 L20.7969,336.1875 L20.7969,333.7813 L24.7813,333.7813 L24.7813,334.6406 C24.7813,335.0469 24.8125,335.2188 24.8906,335.375 C25.0625,335.625 25.3438,335.7813 25.625,335.7813 C25.8906,335.7813 26.1563,335.6406 26.3281,335.4219 C26.4375,335.25 26.4688,335.1094 26.4688,334.6406 L26.4688,332.0938 L18.8438,332.0938 C18.4063,332.0938 18.2813,332.1094 18.125,332.2031 C17.875,332.3594 17.7188,332.6563 17.7188,332.9375 C17.7188,333.2188 17.8594,333.4688 18.0781,333.6406 C18.2344,333.75 18.4219,333.7813 18.8438,333.7813 L19.0938,333.7813 L19.0938,340.2969 L18.8438,340.2969 C18.4375,340.2969 18.2813,340.3125 18.125,340.4219 C17.875,340.5938 17.7188,340.8594 17.7188,341.1563 C17.7188,341.4219 17.8594,341.6719 18.0781,341.8281 C18.2188,341.9531 18.4531,342 18.8438,342 L26.8438,342 L26.8438,339.4219 C26.8438,338.9844 26.8125,338.8438 26.7344,338.6875 C26.5625,338.4375 26.2813,338.2813 26,338.2813 C25.7344,338.2813 25.4688,338.3906 25.2969,338.6406 C25.1875,338.7969 25.1563,338.9375 25.1563,339.4219 L25.1563,340.2969 L20.7969,340.2969 L20.7969,337.875 Z " fill="#000000"/><text fill="#000000" font-family="sans-serif" font-size="14" lengthAdjust="spacing" textLength="107" x="36" y="341.8467">Crypto Wallets</text><line style="stroke:#181818;stroke-width:0.5;" x1="8" x2="145" y1="353" y2="353"/><line style="stroke:#181818;stroke-width:0.5;" x1="8" x2="145" y1="361" y2="361"/></g><!--class Transactions--><g id="elem_Transactions"><rect codeLine="10" fill="#F1F1F1" height="48" id="Transactions" rx="2.5" ry="2.5" style="stroke:#181818;stroke-width:0.5;" width="171" x="181" y="321"/><ellipse cx="196" cy="337" fill="#ADD1B2" rx="11" ry="11" style="stroke:#181818;stroke-width:1.0;"/><path d="M194.7969,337.875 L196.25,337.875 L196.25,337.9844 C196.25,338.3906 196.2813,338.5469 196.3594,338.7031 C196.5156,338.9531 196.7969,339.1094 197.0938,339.1094 C197.3438,339.1094 197.6094,338.9688 197.7656,338.75 C197.8906,338.5938 197.9219,338.4375 197.9219,337.9844 L197.9219,336.0625 C197.9219,335.9063 197.9219,335.8594 197.9063,335.7031 C197.8438,335.2344 197.5313,334.9219 197.0781,334.9219 C196.8281,334.9219 196.5625,335.0625 196.3906,335.2813 C196.2813,335.4531 196.25,335.6094 196.25,336.0625 L196.25,336.1875 L194.7969,336.1875 L194.7969,333.7813 L198.7813,333.7813 L198.7813,334.6406 C198.7813,335.0469 198.8125,335.2188 198.8906,335.375 C199.0625,335.625 199.3438,335.7813 199.625,335.7813 C199.8906,335.7813 200.1563,335.6406 200.3281,335.4219 C200.4375,335.25 200.4688,335.1094 200.4688,334.6406 L200.4688,332.0938 L192.8438,332.0938 C192.4063,332.0938 192.2813,332.1094 192.125,332.2031 C191.875,332.3594 191.7188,332.6563 191.7188,332.9375 C191.7188,333.2188 191.8594,333.4688 192.0781,333.6406 C192.2344,333.75 192.4219,333.7813 192.8438,333.7813 L193.0938,333.7813 L193.0938,340.2969 L192.8438,340.2969 C192.4375,340.2969 192.2813,340.3125 192.125,340.4219 C191.875,340.5938 191.7188,340.8594 191.7188,341.1563 C191.7188,341.4219 191.8594,341.6719 192.0781,341.8281 C192.2188,341.9531 192.4531,342 192.8438,342 L200.8438,342 L200.8438,339.4219 C200.8438,338.9844 200.8125,338.8438 200.7344,338.6875 C200.5625,338.4375 200.2813,338.2813 200,338.2813 C199.7344,338.2813 199.4688,338.3906 199.2969,338.6406 C199.1875,338.7969 199.1563,338.9375 199.1563,339.4219 L199.1563,340.2969 L194.7969,340.2969 L194.7969,337.875 Z " fill="#000000"/><text fill="#000000" font-family="sans-serif" font-size="14" lengthAdjust="spacing" textLength="139" x="210" y="341.8467">Transaction History</text><line style="stroke:#181818;stroke-width:0.5;" x1="182" x2="351" y1="353" y2="353"/><line style="stroke:#181818;stroke-width:0.5;" x1="182" x2="351" y1="361" y2="361"/></g><!--class MarketData--><g id="elem_MarketData"><rect codeLine="11" fill="#F1F1F1" height="48" id="MarketData" rx="2.5" ry="2.5" style="stroke:#181818;stroke-width:0.5;" width="121" x="387" y="321"/><ellipse cx="402" cy="337" fill="#ADD1B2" rx="11" ry="11" style="stroke:#181818;stroke-width:1.0;"/><path d="M400.7969,337.875 L402.25,337.875 L402.25,337.9844 C402.25,338.3906 402.2813,338.5469 402.3594,338.7031 C402.5156,338.9531 402.7969,339.1094 403.0938,339.1094 C403.3438,339.1094 403.6094,338.9688 403.7656,338.75 C403.8906,338.5938 403.9219,338.4375 403.9219,337.9844 L403.9219,336.0625 C403.9219,335.9063 403.9219,335.8594 403.9063,335.7031 C403.8438,335.2344 403.5313,334.9219 403.0781,334.9219 C402.8281,334.9219 402.5625,335.0625 402.3906,335.2813 C402.2813,335.4531 402.25,335.6094 402.25,336.0625 L402.25,336.1875 L400.7969,336.1875 L400.7969,333.7813 L404.7813,333.7813 L404.7813,334.6406 C404.7813,335.0469 404.8125,335.2188 404.8906,335.375 C405.0625,335.625 405.3438,335.7813 405.625,335.7813 C405.8906,335.7813 406.1563,335.6406 406.3281,335.4219 C406.4375,335.25 406.4688,335.1094 406.4688,334.6406 L406.4688,332.0938 L398.8438,332.0938 C398.4063,332.0938 398.2813,332.1094 398.125,332.2031 C397.875,332.3594 397.7188,332.6563 397.7188,332.9375 C397.7188,333.2188 397.8594,333.4688 398.0781,333.6406 C398.2344,333.75 398.4219,333.7813 398.8438,333.7813 L399.0938,333.7813 L399.0938,340.2969 L398.8438,340.2969 C398.4375,340.2969 398.2813,340.3125 398.125,340.4219 C397.875,340.5938 397.7188,340.8594 397.7188,341.1563 C397.7188,341.4219 397.8594,341.6719 398.0781,341.8281 C398.2188,341.9531 398.4531,342 398.8438,342 L406.8438,342 L406.8438,339.4219 C406.8438,338.9844 406.8125,338.8438 406.7344,338.6875 C406.5625,338.4375 406.2813,338.2813 406,338.2813 C405.7344,338.2813 405.4688,338.3906 405.2969,338.6406 C405.1875,338.7969 405.1563,338.9375 405.1563,339.4219 L405.1563,340.2969 L400.7969,340.2969 L400.7969,337.875 Z " fill="#000000"/><text fill="#000000" font-family="sans-serif" font-size="14" lengthAdjust="spacing" textLength="89" x="416" y="341.8467">Market Data</text><line style="stroke:#181818;stroke-width:0.5;" x1="388" x2="507" y1="353" y2="353"/><line style="stroke:#181818;stroke-width:0.5;" x1="388" x2="507" y1="361" y2="361"/></g><!--link Users to Wallets--><g id="link_Users_Wallets"><path codeLine="13" d="M717.301,157.892 C604.97,161.313 256.94,176.502 163.5,235 C129.433,256.328 105.9477,290.6206 91.5485,315.7586 " fill="none" id="Users-to-Wallets" style="stroke:#181818;stroke-width:1.0;stroke-dasharray:7.0,7.0;"/><polygon fill="#181818" points="88.5663,320.965,96.5106,315.1436,91.0515,316.6264,89.5687,311.1673,88.5663,320.965" style="stroke:#181818;stroke-width:1.0;"/><text fill="#000000" font-family="sans-serif" font-size="13" lengthAdjust="spacing" textLength="101" x="219.5" y="223.0669">Manage Wallets</text></g><!--link Users to Transactions--><g id="link_Users_Transactions"><path codeLine="14" d="M717.476,160.821 C634.246,170.417 427.258,197.478 369.5,235 C333.694,258.261 305.1162,291.6705 286.5962,316.1165 " fill="none" id="Users-to-Transactions" style="stroke:#181818;stroke-width:1.0;stroke-dasharray:7.0,7.0;"/><polygon fill="#181818" points="282.973,320.899,291.5961,316.1407,285.9923,316.9136,285.2194,311.3098,282.973,320.899" style="stroke:#181818;stroke-width:1.0;"/><text fill="#000000" font-family="sans-serif" font-size="13" lengthAdjust="spacing" textLength="121" x="430.5" y="223.0669">Track Transactions</text></g><!--link Users to MarketData--><g id="link_Users_MarketData"><path codeLine="15" d="M717.217,164.249 C683.749,172.138 632.866,186.821 593.5,210 C541.914,240.375 496.971,286.8626 470.931,316.4106 " fill="none" id="Users-to-MarketData" style="stroke:#181818;stroke-width:1.0;stroke-dasharray:7.0,7.0;"/><polygon fill="#181818" points="466.964,320.912,475.9155,316.8045,470.2698,317.1608,469.9136,311.5152,466.964,320.912" style="stroke:#181818;stroke-width:1.0;"/><text fill="#000000" font-family="sans-serif" font-size="13" lengthAdjust="spacing" textLength="113" x="594.5" y="223.0669">View Market Data</text></g><!--link Admin to Users--><g id="link_Admin_Users"><path codeLine="17" d="M864.389,47.679 C844.787,56.734 821.464,69.426 803.5,85 C788.163,98.297 777.9923,111.9438 768.8043,126.6878 " fill="none" id="Admin-to-Users" style="stroke:#181818;stroke-width:1.0;stroke-dasharray:7.0,7.0;"/><polygon fill="#181818" points="765.631,131.78,773.7857,126.2573,768.2754,127.5365,766.9961,122.0262,765.631,131.78" style="stroke:#181818;stroke-width:1.0;"/><text fill="#000000" font-family="sans-serif" font-size="13" lengthAdjust="spacing" textLength="90" x="804.5" y="98.0669">Manage Users</text></g><!--link Admin to Exchanges--><g id="link_Admin_Exchanges"><path codeLine="18" d="M903.5,55.135 C903.5,77.126 903.5,104.012 903.5,125.968 " fill="none" id="Admin-to-Exchanges" style="stroke:#181818;stroke-width:1.0;stroke-dasharray:7.0,7.0;"/><polygon fill="#181818" points="903.5,131.968,907.5,122.968,903.5,126.968,899.5,122.968,903.5,131.968" style="stroke:#181818;stroke-width:1.0;"/><text fill="#000000" font-family="sans-serif" font-size="13" lengthAdjust="spacing" textLength="93" x="904.5" y="98.0669">Integrate Data</text></g><!--link Admin to Blockchain--><g id="link_Admin_Blockchain"><path codeLine="19" d="M942.794,50.708 C962.283,60.364 985.982,72.683 1006.5,85 C1030.64,99.494 1051.8783,114.1358 1071.4983,128.3258 " fill="none" id="Admin-to-Blockchain" style="stroke:#181818;stroke-width:1.0;stroke-dasharray:7.0,7.0;"/><polygon fill="#181818" points="1076.36,131.842,1071.4116,123.3266,1072.3086,128.9118,1066.7233,129.8088,1076.36,131.842" style="stroke:#181818;stroke-width:1.0;"/><text fill="#000000" font-family="sans-serif" font-size="13" lengthAdjust="spacing" textLength="116" x="1032.5" y="98.0669">Access Blockchain</text></g><!--link Users to Secure Login--><g id="link_Users_Secure Login"><path codeLine="23" d="M739.788,180.306 C720.135,216.336 685.4801,279.8696 665.9251,315.7206 " fill="none" id="Users-to-Secure Login" style="stroke:#181818;stroke-width:1.0;stroke-dasharray:7.0,7.0;"/><polygon fill="#181818" points="663.052,320.988,670.8732,315.0023,665.4463,316.5985,663.8501,311.1715,663.052,320.988" style="stroke:#181818;stroke-width:1.0;"/></g><!--link Users to Cryptocurrency Info--><g id="link_Users_Cryptocurrency Info"><path codeLine="27" d="M765.461,180.306 C785.499,216.336 820.8467,279.8934 840.7857,315.7444 " fill="none" id="Users-to-Cryptocurrency Info" style="stroke:#181818;stroke-width:1.0;stroke-dasharray:7.0,7.0;"/><polygon fill="#181818" points="843.702,320.988,842.8233,311.1784,841.2718,316.6183,835.8318,315.0668,843.702,320.988" style="stroke:#181818;stroke-width:1.0;"/></g><!--link Users to Manage Wallets--><g id="link_Users_Manage Wallets"><path codeLine="31" d="M787.711,172.68 C793.622,175.197 799.714,177.721 805.5,180 C873.512,206.788 898.429,196.395 960.5,235 C998.286,258.501 1029.755,292.0357 1050.275,316.4017 " fill="none" id="Users-to-Manage Wallets" style="stroke:#181818;stroke-width:1.0;stroke-dasharray:7.0,7.0;"/><polygon fill="#181818" points="1054.14,320.991,1051.4021,311.5303,1050.9192,317.1665,1045.283,316.6836,1054.14,320.991" style="stroke:#181818;stroke-width:1.0;"/></g><!--link Users to Track Transactions--><g id="link_Users_Track Transactions"><path codeLine="35" d="M787.676,173.745 C793.537,176.104 799.622,178.3 805.5,180 C958.873,224.364 1015.6,167.943 1160.5,235 C1204.34,255.288 1240.6108,291.0092 1263.3108,316.5122 " fill="none" id="Users-to-Track Transactions" style="stroke:#181818;stroke-width:1.0;stroke-dasharray:7.0,7.0;"/><polygon fill="#181818" points="1267.3,320.994,1264.3041,311.6119,1263.9757,317.2592,1258.3284,316.9308,1267.3,320.994" style="stroke:#181818;stroke-width:1.0;"/></g><!--link Users to View Market Data--><g id="link_Users_View Market Data"><path codeLine="39" d="M787.585,174.078 C793.458,176.395 799.57,178.491 805.5,180 C1056.86,243.981 1149.62,129.344 1386.5,235 C1429.43,254.146 1463.6048,290.059 1484.8348,315.941 " fill="none" id="Users-to-View Market Data" style="stroke:#181818;stroke-width:1.0;stroke-dasharray:7.0,7.0;"/><polygon fill="#181818" points="1488.64,320.58,1486.0249,311.0847,1485.469,316.7142,1479.8395,316.1583,1488.64,320.58" style="stroke:#181818;stroke-width:1.0;"/></g><!--SRC=[XPB1Ri8m38RlUGglTrw0mwIE8GrfWuaoq3Jj4AMcH6sJAGbYtSIxBoHTI8a4jyJv_Dkn_xiIjrmWJEUhsUeTK1XkEdBNHr-NYycqA40XCrHK3OQNVBbSR63qKLAzm_9pT4z8Bv6zQLGw0wh1dK8yBrikNDoTGdoYkYyZOVhDThO6-jHm2zX38rbjWrp07Cr1gjg1v_2bu8Os3Helrvy3ib9KQCeCbmAUk3PITOwBucVuXQeQ3JnIGntaxwSh8UwByHp-Iy7OSe9M66gdQ5pDylRAwc4BQSwvkCrOSpn0r1uXRhI312yHkl4xIR4mS8lEXC5AKODUD8MZNOmXPmprO14a-ELY6NqJhRKP59qss6RmIo3up7a7yhtPdOp8w6a8dW18Hv4LoFOAuLbMrbWMEf9Ogwyy4rkfsbjI7hPo2WNhN5Agc7pYYk1m-QbMx42tU2wgAtAfDr99PuerrtlQy9zR7xwqZfSx_W40]--></g></svg>